{"glyphs":{"0":{"ha":772,"x_min":54,"x_max":718,"o":"m 718 478 l 718 478 q 634 113 718 239 q 385 -14 549 -14 l 385 -14 q 137 112 220 -14 q 54 478 54 237 l 54 478 q 135 847 54 724 q 389 970 215 970 l 389 970 q 638 846 557 970 q 718 478 718 722 z m 594 478 l 594 478 q 573 703 594 616 q 507 830 553 789 q 389 871 462 871 l 389 871 q 267 831 314 871 q 199 704 220 791 q 178 478 178 618 l 178 478 q 200 256 178 342 q 268 127 222 169 q 386 86 314 86 l 386 86 q 544 182 494 86 q 594 478 594 279 z "},"1":{"ha":772,"x_min":106,"x_max":705,"o":"m 472 104 l 705 104 l 705 0 l 106 0 l 106 104 l 349 104 l 349 839 l 134 685 l 134 800 l 359 956 l 472 956 l 472 104 z "},"2":{"ha":772,"x_min":70,"x_max":703,"o":"m 204 104 l 703 104 l 703 0 l 70 0 l 70 86 q 154 227 104 165 q 258 336 203 288 q 368 427 314 385 l 368 427 q 419 469 395 448 q 465 511 444 490 l 465 511 q 535 600 509 553 q 562 704 562 646 l 562 704 q 516 826 562 783 q 388 869 470 869 l 388 869 q 259 827 310 869 q 200 708 209 785 l 200 708 l 75 720 q 173 902 89 834 q 388 970 256 970 l 388 970 q 610 902 532 970 q 688 708 688 833 l 688 708 q 662 597 688 652 q 587 488 637 543 l 587 488 q 513 418 562 460 q 395 317 465 375 l 395 317 q 271 202 317 254 q 204 104 224 151 l 204 104 z "},"3":{"ha":772,"x_min":53,"x_max":711,"o":"m 711 264 l 711 264 q 627 59 711 132 q 387 -14 543 -14 l 387 -14 q 156 52 242 -14 q 53 245 69 117 l 53 245 l 179 257 q 387 87 203 87 l 387 87 q 532 133 479 87 q 585 268 585 178 l 585 268 q 525 390 585 346 q 351 433 465 433 l 351 433 l 282 433 l 282 539 l 349 539 q 504 583 449 539 q 559 704 559 627 l 559 704 q 514 825 559 781 q 380 869 469 869 l 380 869 q 250 828 300 869 q 192 711 200 787 l 192 711 l 69 721 q 166 904 83 838 q 382 970 250 970 l 382 970 q 605 903 526 970 q 685 717 685 836 l 685 717 q 634 568 685 625 q 485 490 583 511 l 485 490 l 485 488 q 652 416 592 476 q 711 264 711 355 z "},"4":{"ha":772,"x_min":32,"x_max":732,"o":"m 732 216 l 597 216 l 597 0 l 482 0 l 482 216 l 32 216 l 32 311 l 469 956 l 597 956 l 597 313 l 732 313 l 732 216 z m 437 737 l 144 313 l 482 313 l 482 694 q 483 756 482 725 q 485 818 483 787 l 485 818 q 458 769 469 788 q 437 737 446 751 l 437 737 z "},"5":{"ha":772,"x_min":56,"x_max":714,"o":"m 714 311 l 714 311 q 624 73 714 160 q 375 -14 534 -14 l 375 -14 q 159 45 241 -14 q 56 214 77 103 l 56 214 l 179 228 q 248 122 199 157 q 378 86 298 86 l 378 86 q 532 145 476 86 q 587 309 587 205 l 587 309 q 531 454 587 399 q 380 510 475 510 l 380 510 q 288 494 331 510 q 203 441 245 479 l 203 441 l 83 441 l 115 956 l 659 956 l 659 852 l 227 852 l 208 549 q 406 610 288 610 l 406 610 q 569 572 500 610 q 676 467 638 534 q 714 311 714 400 z "},"6":{"ha":772,"x_min":71,"x_max":711,"o":"m 711 313 l 711 313 q 629 74 711 161 q 403 -14 547 -14 l 403 -14 q 156 106 241 -14 q 71 456 71 227 l 71 456 q 159 837 71 704 q 412 970 248 970 l 412 970 q 589 921 521 970 q 685 775 657 872 l 685 775 l 568 754 q 411 871 533 871 l 411 871 q 249 773 307 871 q 192 492 192 676 l 192 492 q 286 586 225 553 q 424 618 346 618 l 424 618 q 634 535 556 618 q 711 313 711 452 z m 587 307 l 587 307 q 536 467 587 411 q 395 524 486 524 l 395 524 q 257 474 309 524 q 204 336 204 424 l 204 336 q 229 206 204 263 q 298 117 254 149 q 399 85 342 85 l 399 85 q 537 144 487 85 q 587 307 587 203 z "},"7":{"ha":772,"x_min":71,"x_max":703,"o":"m 703 956 l 703 857 q 577 657 629 745 q 496 506 526 570 l 496 506 q 405 256 435 379 q 375 0 375 132 l 375 0 l 248 0 q 267 193 248 95 q 330 399 287 291 l 330 399 q 434 612 371 500 q 585 852 496 724 l 585 852 l 71 852 l 71 956 l 703 956 z "},"8":{"ha":772,"x_min":60,"x_max":712,"o":"m 712 267 l 712 267 q 628 60 712 134 q 387 -14 544 -14 l 387 -14 q 147 59 233 -14 q 60 265 60 132 l 60 265 q 114 422 60 359 q 251 500 168 486 l 251 500 l 251 503 q 128 582 173 521 q 83 725 83 643 l 83 725 q 164 902 83 834 q 384 970 246 970 l 384 970 q 607 903 525 970 q 688 724 688 837 l 688 724 q 643 581 688 642 q 519 504 597 519 l 519 504 l 519 501 q 661 424 610 486 q 712 267 712 361 z m 562 717 l 562 717 q 384 879 562 879 l 384 879 q 208 717 208 879 l 208 717 q 254 592 208 635 q 385 549 300 549 l 385 549 q 516 588 471 549 q 562 717 562 628 z m 585 278 l 585 278 q 532 412 585 367 q 384 457 479 457 l 384 457 q 239 409 291 457 q 186 275 186 360 l 186 275 q 237 127 186 177 q 388 78 288 78 l 388 78 q 536 126 488 78 q 585 278 585 174 z "},"9":{"ha":772,"x_min":65,"x_max":707,"o":"m 707 497 l 707 497 q 617 119 707 251 q 361 -14 527 -14 l 361 -14 q 181 34 249 -14 q 85 186 114 81 l 85 186 l 201 204 q 363 85 238 85 l 363 85 q 526 182 468 85 q 586 461 583 280 l 586 461 q 493 363 559 400 q 349 326 427 326 l 349 326 q 199 366 263 326 q 100 479 136 406 q 65 648 65 551 l 65 648 q 149 884 65 798 q 383 970 233 970 l 383 970 q 625 852 543 970 q 707 497 707 734 z m 574 615 l 574 615 q 521 801 574 730 q 379 871 468 871 l 379 871 q 240 811 291 871 q 189 648 189 751 l 189 648 q 240 483 189 544 q 378 422 291 422 l 378 422 q 475 447 431 422 q 547 515 519 471 q 574 615 574 559 z "},"\u0000":{"ha":0,"x_min":null,"x_max":null,"o":""},"\r":{"ha":386,"x_min":null,"x_max":null,"o":""}," ":{"ha":386,"x_min":null,"x_max":null,"o":""},"!":{"ha":386,"x_min":125,"x_max":260,"o":"m 127 956 l 260 956 l 243 269 l 143 269 l 127 956 z m 125 136 l 257 136 l 257 0 l 125 0 l 125 136 z "},"\"":{"ha":493,"x_min":59,"x_max":434,"o":"m 309 956 l 434 956 l 419 655 l 323 655 l 309 956 z m 59 956 l 184 956 l 169 655 l 73 655 l 59 956 z "},"#":{"ha":772,"x_min":6,"x_max":766,"o":"m 463 277 l 217 277 l 160 0 l 85 0 l 142 277 l 6 277 l 6 350 l 159 350 l 212 600 l 41 600 l 41 673 l 227 673 l 287 950 l 361 950 l 302 673 l 548 673 l 608 950 l 682 950 l 623 673 l 766 673 l 766 600 l 608 600 l 555 350 l 731 350 l 731 277 l 539 277 l 479 0 l 405 0 l 463 277 z m 288 600 l 234 350 l 479 350 l 532 600 l 288 600 z "},"$":{"ha":772,"x_min":15,"x_max":750,"o":"m 351 -96 l 351 14 q 123 81 207 20 q 15 257 39 142 l 15 257 l 130 282 q 201 161 147 201 q 351 114 255 120 l 351 114 l 351 450 q 280 470 311 460 q 225 488 248 479 q 186 504 201 496 l 186 504 q 88 588 117 540 q 58 709 58 635 l 58 709 q 135 874 58 814 q 351 939 211 933 l 351 939 l 351 1028 l 435 1028 l 435 939 q 578 911 520 935 q 673 841 637 888 q 729 722 710 795 l 729 722 l 611 700 q 556 799 597 764 q 435 842 515 835 l 435 842 l 435 541 q 539 513 496 526 q 608 488 583 500 l 608 488 q 718 401 686 452 q 750 269 750 351 l 750 269 q 668 89 750 157 q 435 14 586 21 l 435 14 l 435 -96 l 351 -96 z m 175 711 l 175 711 q 192 643 175 670 l 192 643 q 242 596 209 615 q 351 558 276 577 l 351 558 l 351 844 q 175 711 175 834 z m 633 267 l 633 267 q 616 340 633 311 q 565 387 598 368 l 565 387 q 435 431 532 406 l 435 431 l 435 113 q 582 159 531 119 q 633 267 633 198 z "},"%":{"ha":1235,"x_min":50,"x_max":1185,"o":"m 267 964 l 267 964 q 479 661 479 964 l 479 661 q 426 435 479 514 q 264 355 372 355 l 264 355 q 103 434 157 355 q 50 661 50 513 l 50 661 q 102 888 50 812 q 267 964 154 964 z m 878 956 l 984 956 l 357 0 l 252 0 l 878 956 z m 380 661 l 380 661 q 354 836 380 781 q 267 890 328 890 l 267 890 q 176 837 203 890 q 149 661 149 783 l 149 661 q 176 488 149 544 q 266 432 203 432 l 266 432 q 352 489 325 432 q 380 661 380 546 z m 1185 294 l 1185 294 q 1131 70 1185 149 q 968 -8 1076 -8 l 968 -8 q 809 68 863 -8 q 755 294 755 144 l 755 294 q 807 525 755 449 q 971 600 859 600 l 971 600 q 1134 523 1082 600 q 1185 294 1185 445 z m 1085 294 l 1085 294 q 1059 470 1085 416 q 971 525 1033 525 l 971 525 q 882 471 909 525 q 854 294 854 418 l 854 294 q 881 122 854 178 q 970 66 908 66 l 970 66 q 1057 123 1029 66 q 1085 294 1085 180 z "},"&":{"ha":926,"x_min":49,"x_max":905,"o":"m 49 252 l 49 252 q 107 418 49 346 q 281 543 165 491 l 281 543 q 243 642 259 585 q 227 747 227 700 l 227 747 q 289 905 227 849 q 465 961 351 961 l 465 961 q 630 909 567 961 q 692 768 692 858 l 692 768 q 671 680 692 721 q 602 601 650 639 l 602 601 q 523 551 568 576 q 415 503 477 527 l 415 503 q 614 223 489 365 l 614 223 q 730 501 690 336 l 730 501 l 828 472 q 684 154 786 304 l 684 154 q 825 87 749 87 l 825 87 q 905 98 874 87 l 905 98 l 905 7 q 809 -8 868 -8 l 809 -8 q 699 13 749 -8 q 607 78 648 35 l 607 78 q 355 -14 502 -14 l 355 -14 q 129 57 209 -14 q 49 252 49 127 z m 589 768 l 589 768 q 555 848 589 817 q 463 879 522 879 l 463 879 q 364 844 398 879 q 330 747 330 809 l 330 747 q 374 582 330 671 l 374 582 q 505 644 463 618 l 505 644 q 568 701 547 671 q 589 768 589 732 z m 539 147 l 539 147 q 418 304 472 227 q 323 457 364 381 l 323 457 q 163 253 163 389 l 163 253 q 215 123 163 171 q 359 75 268 75 l 359 75 q 455 94 407 75 q 539 147 503 113 z "},"'":{"ha":265,"x_min":71,"x_max":195,"o":"m 71 956 l 195 956 l 180 655 l 85 655 l 71 956 z "},"(":{"ha":463,"x_min":86,"x_max":454,"o":"m 454 -288 l 336 -288 q 195 -96 251 -195 q 113 116 140 4 q 86 358 86 229 l 86 358 q 113 603 86 490 q 196 815 140 715 q 336 1006 252 915 l 336 1006 l 454 1006 q 268 707 328 865 q 209 359 209 548 l 209 359 q 235 123 209 235 q 315 -91 260 11 q 454 -288 369 -192 l 454 -288 z "},")":{"ha":463,"x_min":8,"x_max":376,"o":"m 126 -288 l 8 -288 q 148 -91 94 -193 q 228 122 202 10 q 254 359 254 233 l 254 359 q 194 707 254 549 q 8 1006 135 865 l 8 1006 l 126 1006 q 267 814 212 914 q 349 603 322 715 q 376 361 376 491 l 376 361 q 349 116 376 229 q 267 -96 322 3 q 126 -288 212 -195 l 126 -288 z "},"*":{"ha":541,"x_min":22,"x_max":519,"o":"m 328 686 l 453 517 l 372 468 l 271 643 l 165 469 l 84 518 l 212 686 l 22 736 l 53 827 l 234 754 l 226 956 l 318 956 l 309 755 l 488 825 l 519 736 l 328 686 z "},"+":{"ha":811,"x_min":68,"x_max":743,"o":"m 743 412 l 455 412 l 455 122 l 355 122 l 355 412 l 68 412 l 68 511 l 355 511 l 355 802 l 455 802 l 455 511 l 743 511 l 743 412 z "},",":{"ha":386,"x_min":125,"x_max":261,"o":"m 261 149 l 261 35 q 248 -85 261 -37 q 208 -178 235 -134 l 208 -178 l 125 -178 q 173 -87 157 -132 q 189 0 189 -43 l 189 0 l 129 0 l 129 149 l 261 149 z "},"-":{"ha":463,"x_min":62,"x_max":401,"o":"m 62 423 l 401 423 l 401 315 l 62 315 l 62 423 z "},"­":{"ha":463,"x_min":62,"x_max":401,"o":"m 62 423 l 401 423 l 401 315 l 62 315 l 62 423 z "},".":{"ha":386,"x_min":127,"x_max":259,"o":"m 127 149 l 259 149 l 259 0 l 127 0 l 127 149 z "},"/":{"ha":386,"x_min":0,"x_max":386,"o":"m 279 1006 l 386 1006 l 110 -14 l 0 -14 l 279 1006 z "},":":{"ha":386,"x_min":127,"x_max":259,"o":"m 127 734 l 259 734 l 259 593 l 127 593 l 127 734 z m 127 140 l 259 140 l 259 0 l 127 0 l 127 140 z "},";":{"ha":386,"x_min":125,"x_max":261,"o":"m 129 734 l 261 734 l 261 593 l 129 593 l 129 734 z m 261 140 l 261 35 q 248 -85 261 -37 q 208 -178 235 -134 l 208 -178 l 125 -178 q 173 -87 157 -132 q 189 0 189 -43 l 189 0 l 129 0 l 129 140 l 261 140 z "},";":{"ha":386,"x_min":125,"x_max":261,"o":"m 129 734 l 261 734 l 261 593 l 129 593 l 129 734 z m 261 140 l 261 35 q 248 -85 261 -37 q 208 -178 235 -134 l 208 -178 l 125 -178 q 173 -87 157 -132 q 189 0 189 -43 l 189 0 l 129 0 l 129 140 l 261 140 z "},"<":{"ha":811,"x_min":68,"x_max":743,"o":"m 161 457 l 743 208 l 743 104 l 68 387 l 68 526 l 743 810 l 743 705 l 161 457 z "},"=":{"ha":811,"x_min":68,"x_max":743,"o":"m 68 681 l 743 681 l 743 581 l 68 581 l 68 681 z m 68 334 l 743 334 l 743 233 l 68 233 l 68 334 z "},">":{"ha":811,"x_min":68,"x_max":743,"o":"m 743 526 l 743 387 l 68 104 l 68 208 l 650 457 l 68 705 l 68 810 l 743 526 z "},"?":{"ha":772,"x_min":57,"x_max":721,"o":"m 721 700 l 721 700 q 688 570 721 623 q 572 455 655 516 l 572 455 l 518 415 q 421 256 422 346 l 421 256 l 302 256 q 327 361 304 318 q 382 434 349 404 q 452 490 416 464 l 452 490 q 524 545 491 517 q 577 607 557 572 q 597 694 597 642 l 597 694 q 545 817 597 772 q 397 861 492 861 l 397 861 q 247 814 302 861 q 182 684 191 766 l 182 684 l 57 692 q 163 898 75 826 q 396 970 251 970 l 396 970 q 634 898 547 970 q 721 700 721 827 z m 297 136 l 429 136 l 429 0 l 297 0 l 297 136 z "},"@":{"ha":1410,"x_min":109,"x_max":1290,"o":"m 1290 512 l 1290 512 q 1251 284 1290 386 l 1251 284 q 1142 126 1212 182 q 987 71 1073 71 l 987 71 q 883 100 920 71 q 846 190 846 130 l 846 190 q 847 214 847 201 q 848 237 848 226 l 848 237 l 844 237 q 733 112 800 154 q 591 71 667 71 l 591 71 q 426 140 484 71 q 367 332 367 209 l 367 332 q 411 538 367 442 l 411 538 q 533 690 455 634 q 707 747 612 747 l 707 747 q 911 623 855 747 l 911 623 l 916 623 l 942 732 l 1048 732 l 969 389 q 944 217 944 279 l 944 217 q 958 169 944 185 q 999 153 972 153 l 999 153 q 1099 200 1054 153 l 1099 200 q 1172 329 1145 247 q 1198 511 1198 411 l 1198 511 q 1145 726 1198 631 l 1145 726 q 995 870 1093 820 q 765 921 897 921 l 765 921 q 475 848 602 921 l 475 848 q 277 639 349 776 q 205 333 205 503 l 205 333 q 258 102 205 201 l 258 102 q 412 -52 311 2 q 647 -105 513 -105 l 647 -105 q 846 -80 745 -105 q 1056 5 947 -54 l 1056 5 l 1093 -71 q 880 -161 995 -130 q 647 -192 765 -192 l 647 -192 q 361 -127 484 -192 l 361 -127 q 174 57 239 -62 q 109 333 109 177 l 109 333 q 194 678 109 522 l 194 678 q 428 920 279 833 q 764 1006 578 1006 l 764 1006 q 1046 945 927 1006 l 1046 945 q 1227 772 1164 884 q 1290 512 1290 660 z m 879 507 l 879 507 q 834 618 879 576 q 715 661 789 661 l 715 661 q 593 617 646 661 l 593 617 q 509 498 540 574 q 479 333 479 422 l 479 333 q 511 205 479 252 q 610 159 543 159 l 610 159 q 712 189 663 159 q 798 267 760 218 l 798 267 q 842 348 824 302 q 869 436 860 393 q 879 507 879 479 z "},"A":{"ha":926,"x_min":3,"x_max":924,"o":"m 682 279 l 247 279 l 137 0 l 3 0 l 393 956 l 540 956 l 924 0 l 791 0 l 682 279 z m 465 858 l 465 858 q 437 773 453 820 q 408 692 421 727 l 408 692 l 286 380 l 644 380 l 521 696 q 496 763 511 720 q 465 858 480 806 z "},"B":{"ha":926,"x_min":114,"x_max":853,"o":"m 853 269 l 853 269 q 760 71 853 142 q 502 0 667 0 l 502 0 l 114 0 l 114 956 l 461 956 q 713 898 629 956 q 798 724 798 840 l 798 724 q 750 581 798 639 q 616 504 703 524 l 616 504 q 791 428 730 490 q 853 269 853 365 z m 667 708 l 667 708 q 614 819 667 785 q 461 852 562 852 l 461 852 l 243 852 l 243 549 l 461 549 q 616 588 565 549 q 667 708 667 627 z m 722 279 l 722 279 q 485 448 722 448 l 485 448 l 243 448 l 243 104 l 495 104 q 668 148 614 104 q 722 279 722 192 z "},"C":{"ha":1003,"x_min":71,"x_max":950,"o":"m 543 93 l 543 93 q 844 292 743 93 l 844 292 l 950 239 q 784 51 891 115 q 536 -14 677 -14 l 536 -14 q 287 47 391 -14 q 126 219 182 107 q 71 482 71 330 l 71 482 q 126 744 71 635 q 286 911 182 853 q 536 970 391 970 l 536 970 q 791 910 688 970 q 941 733 893 850 l 941 733 l 819 692 q 712 820 785 776 q 537 864 638 864 l 537 864 q 290 762 378 864 q 202 482 202 660 l 202 482 q 244 278 202 366 q 362 141 286 190 q 543 93 438 93 z "},"D":{"ha":1003,"x_min":114,"x_max":937,"o":"m 937 488 l 937 488 q 878 227 937 336 q 714 59 819 118 q 471 0 610 0 l 471 0 l 114 0 l 114 956 l 430 956 q 805 834 673 956 q 937 488 937 712 z m 806 488 l 806 488 q 709 759 806 665 q 427 852 612 852 l 427 852 l 243 852 l 243 104 l 456 104 q 641 151 563 104 q 763 283 720 197 q 806 488 806 370 z "},"E":{"ha":926,"x_min":114,"x_max":867,"o":"m 243 106 l 867 106 l 867 0 l 114 0 l 114 956 l 839 956 l 839 850 l 243 850 l 243 543 l 798 543 l 798 439 l 243 439 l 243 106 z "},"F":{"ha":848,"x_min":114,"x_max":793,"o":"m 777 387 l 243 387 l 243 0 l 114 0 l 114 956 l 793 956 l 793 850 l 243 850 l 243 494 l 777 494 l 777 387 z "},"G":{"ha":1080,"x_min":70,"x_max":977,"o":"m 551 92 l 551 92 q 726 120 645 92 q 857 197 807 149 l 857 197 l 857 370 l 572 370 l 572 478 l 977 478 l 977 149 q 790 29 901 71 q 551 -14 680 -14 l 551 -14 q 294 47 402 -14 q 128 219 186 107 q 70 482 70 330 l 70 482 q 195 842 70 715 q 545 970 319 970 l 545 970 q 803 916 704 970 q 956 745 902 863 l 956 745 l 832 708 q 720 827 791 789 q 542 864 648 864 l 542 864 q 289 764 376 864 q 201 482 201 664 l 201 482 q 294 196 201 301 q 551 92 387 92 z "},"H":{"ha":1003,"x_min":114,"x_max":890,"o":"m 760 443 l 243 443 l 243 0 l 114 0 l 114 956 l 243 956 l 243 551 l 760 551 l 760 956 l 890 956 l 890 0 l 760 0 l 760 443 z "},"I":{"ha":386,"x_min":128,"x_max":258,"o":"m 128 956 l 258 956 l 258 0 l 128 0 l 128 956 z "},"J":{"ha":694,"x_min":22,"x_max":591,"o":"m 310 -14 l 310 -14 q 117 49 189 -14 q 22 237 45 112 l 22 237 l 149 258 q 203 136 161 180 q 311 92 246 92 l 311 92 q 422 140 381 92 q 463 282 463 189 l 463 282 l 463 850 l 279 850 l 279 956 l 591 956 l 591 285 q 516 66 591 146 q 310 -14 441 -14 z "},"K":{"ha":926,"x_min":114,"x_max":911,"o":"m 368 461 l 243 366 l 243 0 l 114 0 l 114 956 l 243 956 l 243 477 l 704 956 l 857 956 l 450 541 l 911 0 l 750 0 l 368 461 z "},"L":{"ha":772,"x_min":114,"x_max":726,"o":"m 243 106 l 726 106 l 726 0 l 114 0 l 114 956 l 243 956 l 243 106 z "},"M":{"ha":1157,"x_min":114,"x_max":1043,"o":"m 229 637 l 229 637 l 229 0 l 114 0 l 114 956 l 284 956 l 538 293 q 565 207 552 253 q 581 141 577 161 l 581 141 q 595 192 585 159 q 614 254 604 224 q 627 293 623 283 l 627 293 l 877 956 l 1043 956 l 1043 0 l 926 0 l 926 637 q 928 741 926 690 q 932 841 930 792 l 932 841 q 901 733 916 781 q 873 651 886 685 l 873 651 l 626 0 l 535 0 l 285 651 l 224 841 q 228 739 226 790 q 229 637 229 688 z "},"N":{"ha":1003,"x_min":114,"x_max":890,"o":"m 229 635 l 229 635 l 229 0 l 114 0 l 114 956 l 264 956 l 781 136 q 773 329 773 270 l 773 329 l 773 956 l 890 956 l 890 0 l 734 0 l 222 814 q 227 724 224 769 q 229 635 229 680 z "},"O":{"ha":1080,"x_min":66,"x_max":1014,"o":"m 1014 482 l 1014 482 q 956 218 1014 329 q 791 46 898 106 q 539 -14 685 -14 l 539 -14 q 287 46 393 -14 q 123 217 180 106 q 66 482 66 328 l 66 482 q 122 744 66 635 q 285 911 179 853 q 541 970 391 970 l 541 970 q 793 912 687 970 q 957 746 899 854 q 1014 482 1014 637 z m 882 482 l 882 482 q 792 762 882 661 q 541 864 703 864 l 541 864 q 287 764 376 864 q 197 482 197 663 l 197 482 q 238 275 197 363 q 355 139 279 187 q 539 92 432 92 l 539 92 q 793 194 705 92 q 882 482 882 296 z "},"P":{"ha":926,"x_min":114,"x_max":853,"o":"m 853 668 l 853 668 q 813 511 853 578 q 700 409 773 445 q 524 372 626 372 l 524 372 l 243 372 l 243 0 l 114 0 l 114 956 l 516 956 q 765 880 677 956 q 853 668 853 805 z m 723 667 l 723 667 q 500 852 723 852 l 500 852 l 243 852 l 243 475 l 506 475 q 669 523 614 475 q 723 667 723 570 z "},"Q":{"ha":1080,"x_min":66,"x_max":1014,"o":"m 1014 482 l 1014 482 q 968 244 1014 348 q 836 76 922 140 q 629 -4 750 12 l 629 -4 q 702 -127 657 -90 q 817 -165 747 -165 l 817 -165 q 895 -157 855 -165 l 895 -157 l 895 -248 q 774 -262 833 -262 l 774 -262 q 605 -204 671 -262 q 497 -11 539 -146 l 497 -11 q 264 58 360 -4 q 117 229 168 121 q 66 482 66 338 l 66 482 q 122 744 66 635 q 285 911 179 853 q 541 970 391 970 l 541 970 q 797 910 691 970 q 958 742 903 851 q 1014 482 1014 633 z m 882 482 l 882 482 q 792 762 882 661 q 541 864 703 864 l 541 864 q 287 764 376 864 q 197 482 197 663 l 197 482 q 238 275 197 363 q 355 139 279 187 q 539 92 432 92 l 539 92 q 793 194 705 92 q 882 482 882 296 z "},"R":{"ha":1003,"x_min":114,"x_max":939,"o":"m 541 397 l 243 397 l 243 0 l 114 0 l 114 956 l 564 956 q 813 883 725 956 q 901 682 901 811 l 901 682 q 839 503 901 576 q 667 412 777 431 l 667 412 l 939 0 l 789 0 l 541 397 z m 770 681 l 770 681 q 714 808 770 764 q 551 852 657 852 l 551 852 l 243 852 l 243 499 l 556 499 q 714 547 659 499 q 770 681 770 595 z "},"S":{"ha":926,"x_min":63,"x_max":863,"o":"m 863 264 l 863 264 q 759 59 863 132 q 468 -14 656 -14 l 468 -14 q 63 229 119 -14 l 63 229 l 189 254 q 281 128 210 168 q 473 87 351 87 l 473 87 q 666 131 598 87 q 734 257 734 174 l 734 257 q 713 333 734 304 q 653 381 692 362 l 653 381 q 561 413 614 400 q 442 441 507 426 l 442 441 q 316 474 367 458 q 233 508 266 490 q 178 547 201 526 l 178 547 q 126 619 144 578 q 108 714 108 661 l 108 714 q 202 903 108 837 q 471 970 296 970 l 471 970 q 720 920 633 970 q 840 750 806 870 l 840 750 l 713 728 q 633 838 692 804 q 469 872 574 872 l 469 872 q 294 834 355 872 q 234 721 234 796 l 234 721 q 257 648 234 677 q 325 600 281 619 l 325 600 q 500 550 366 580 l 500 550 q 609 523 555 537 q 710 488 663 509 l 710 488 q 763 460 738 477 q 808 422 789 444 l 808 422 q 848 355 833 393 q 863 264 863 316 z "},"T":{"ha":848,"x_min":31,"x_max":817,"o":"m 817 850 l 488 850 l 488 0 l 359 0 l 359 850 l 31 850 l 31 956 l 817 956 l 817 850 z "},"U":{"ha":1003,"x_min":107,"x_max":896,"o":"m 496 -14 l 496 -14 q 291 30 378 -14 q 155 154 203 73 q 107 347 107 235 l 107 347 l 107 956 l 237 956 l 237 358 q 303 159 237 227 q 495 92 370 92 l 495 92 q 695 162 624 92 q 767 367 767 232 l 767 367 l 767 956 l 896 956 l 896 359 q 847 160 896 243 q 708 32 798 77 q 496 -14 618 -14 z "},"V":{"ha":926,"x_min":6,"x_max":920,"o":"m 784 956 l 920 956 l 530 0 l 396 0 l 6 956 l 142 956 l 407 283 q 436 199 423 241 q 464 114 450 156 l 464 114 q 492 202 477 156 q 521 283 507 248 l 521 283 l 784 956 z "},"W":{"ha":1311,"x_min":6,"x_max":1306,"o":"m 608 604 l 608 604 l 442 0 l 288 0 l 6 956 l 141 956 l 313 349 q 342 233 328 292 q 369 114 356 174 l 369 114 q 384 180 374 139 q 403 264 393 221 q 421 336 413 307 l 421 336 l 595 956 l 719 956 l 885 361 q 919 226 904 288 q 945 114 934 164 l 945 114 q 966 200 955 154 q 987 285 977 247 q 1001 340 997 323 l 1001 340 l 1171 956 l 1306 956 l 1025 0 l 870 0 l 705 607 q 685 686 696 635 q 657 811 673 737 l 657 811 q 641 733 651 775 q 622 656 631 692 q 608 604 613 621 z "},"X":{"ha":926,"x_min":31,"x_max":897,"o":"m 754 0 l 467 418 l 174 0 l 31 0 l 395 496 l 59 956 l 202 956 l 468 581 l 726 956 l 869 956 l 543 501 l 897 0 l 754 0 z "},"Y":{"ha":926,"x_min":31,"x_max":896,"o":"m 896 956 l 527 396 l 527 0 l 398 0 l 398 396 l 31 956 l 173 956 l 464 500 l 753 956 l 896 956 z "},"Z":{"ha":848,"x_min":44,"x_max":805,"o":"m 191 106 l 805 106 l 805 0 l 44 0 l 44 97 l 626 850 l 94 850 l 94 956 l 773 956 l 773 861 l 191 106 z "},"[":{"ha":386,"x_min":99,"x_max":375,"o":"m 217 -201 l 375 -201 l 375 -288 l 99 -288 l 99 1006 l 375 1006 l 375 919 l 217 919 l 217 -201 z "},"\\":{"ha":386,"x_min":0,"x_max":386,"o":"m 0 1006 l 107 1006 l 386 -14 l 276 -14 l 0 1006 z "},"]":{"ha":386,"x_min":11,"x_max":287,"o":"m 11 1006 l 287 1006 l 287 -288 l 11 -288 l 11 -201 l 169 -201 l 169 919 l 11 919 l 11 1006 z "},"^":{"ha":652,"x_min":7,"x_max":645,"o":"m 117 456 l 7 456 l 256 956 l 394 956 l 645 456 l 534 456 l 324 886 l 117 456 z "},"_":{"ha":772,"x_min":-21,"x_max":788,"o":"m -21 -188 l 788 -188 l 788 -276 l -21 -276 l -21 -188 z "},"`":{"ha":463,"x_min":72,"x_max":359,"o":"m 212 1023 l 359 828 l 359 814 l 296 814 l 72 1003 l 72 1023 l 212 1023 z "},"a":{"ha":772,"x_min":59,"x_max":772,"o":"m 281 -14 l 281 -14 q 115 45 170 -14 q 59 205 59 103 l 59 205 q 134 380 59 319 q 376 445 209 441 l 376 445 l 541 448 l 541 488 q 503 616 541 577 q 383 654 465 654 l 383 654 q 264 627 301 654 q 219 538 227 599 l 219 538 l 92 549 q 386 747 123 747 l 386 747 q 594 684 524 747 q 664 500 664 621 l 664 500 l 664 184 q 678 103 664 130 q 732 75 692 75 l 732 75 q 772 80 751 75 l 772 80 l 772 4 q 726 -4 749 -1 q 678 -7 702 -7 l 678 -7 q 579 29 610 -7 q 545 140 549 64 l 545 140 l 541 140 q 432 21 494 56 q 281 -14 370 -14 z m 541 302 l 541 362 l 407 359 q 277 342 321 359 l 277 342 q 208 292 232 326 q 184 203 184 258 l 184 203 q 217 111 184 143 q 309 78 249 78 l 309 78 q 428 109 376 78 l 428 109 q 510 192 480 139 q 541 302 541 245 l 541 302 z "},"b":{"ha":772,"x_min":90,"x_max":714,"o":"m 714 370 l 714 370 q 647 82 714 178 q 444 -14 579 -14 l 444 -14 q 306 17 361 -14 q 216 114 250 47 l 216 114 l 214 114 q 213 75 214 100 q 210 27 212 49 q 208 0 209 5 l 208 0 l 90 0 q 93 56 92 18 q 94 151 94 94 l 94 151 l 94 1006 l 216 1006 l 216 720 q 215 672 216 698 q 213 616 214 646 l 213 616 l 216 616 q 306 717 250 686 q 444 747 361 747 l 444 747 q 649 654 583 747 q 714 370 714 560 z m 586 366 l 586 366 q 545 587 586 520 q 413 653 505 653 l 413 653 q 263 583 310 653 q 216 359 216 512 l 216 359 q 262 145 216 214 q 412 77 308 77 l 412 77 q 545 145 504 77 q 586 366 586 213 z "},"c":{"ha":694,"x_min":59,"x_max":658,"o":"m 375 -14 l 375 -14 q 140 84 221 -14 q 59 368 59 181 l 59 368 q 140 650 59 553 q 374 747 222 747 l 374 747 q 561 689 486 747 q 654 528 635 631 l 654 528 l 528 519 q 480 616 519 580 q 370 652 441 652 l 370 652 q 230 587 273 652 q 186 370 186 523 l 186 370 q 233 153 186 224 q 372 83 279 83 l 372 83 q 480 118 437 83 q 534 227 524 153 l 534 227 l 658 218 q 611 96 648 148 q 513 15 573 43 q 375 -14 453 -14 z "},"d":{"ha":772,"x_min":58,"x_max":683,"o":"m 683 0 l 566 0 q 563 28 565 7 q 561 74 562 49 q 559 118 559 99 l 559 118 l 557 118 q 467 17 523 47 q 328 -14 411 -14 l 328 -14 q 124 80 189 -14 q 58 363 58 174 l 58 363 q 126 651 58 555 q 328 747 193 747 l 328 747 q 467 717 412 747 q 557 620 523 686 l 557 620 l 558 620 l 557 702 l 557 1006 l 679 1006 l 679 151 q 680 56 679 94 q 683 0 681 18 l 683 0 z m 186 368 l 186 368 q 227 147 186 214 q 359 81 268 81 l 359 81 q 510 153 463 81 q 557 376 557 224 l 557 376 q 510 589 557 522 q 361 657 463 657 l 361 657 q 228 589 269 657 q 186 368 186 521 z "},"e":{"ha":772,"x_min":59,"x_max":711,"o":"m 711 341 l 187 341 q 239 146 187 215 q 392 78 292 78 l 392 78 q 519 110 471 78 q 584 191 567 142 l 584 191 l 691 160 q 392 -14 625 -14 l 392 -14 q 144 83 229 -14 q 59 372 59 180 l 59 372 q 144 650 59 553 q 387 747 229 747 l 387 747 q 630 650 549 747 q 711 357 711 552 l 711 357 l 711 341 z m 189 435 l 585 435 q 526 604 574 551 q 385 657 477 657 l 385 657 q 244 598 296 657 q 189 435 193 538 l 189 435 z "},"f":{"ha":386,"x_min":20,"x_max":388,"o":"m 388 645 l 245 645 l 245 0 l 123 0 l 123 645 l 20 645 l 20 734 l 123 734 l 123 817 q 167 961 123 917 q 302 1005 211 1005 l 302 1005 q 388 997 353 1005 l 388 997 l 388 904 q 334 909 355 909 l 334 909 q 266 886 287 909 q 245 800 245 862 l 245 800 l 245 734 l 388 734 l 388 645 z "},"g":{"ha":772,"x_min":58,"x_max":683,"o":"m 372 -288 l 372 -288 q 180 -241 252 -288 q 89 -107 109 -194 l 89 -107 l 212 -90 q 266 -168 224 -140 q 375 -195 307 -195 l 375 -195 q 512 -142 466 -195 q 557 18 557 -88 l 557 18 l 557 136 l 556 136 q 461 30 522 66 q 320 -5 401 -5 l 320 -5 q 122 84 185 -5 q 58 366 58 174 l 58 366 q 126 653 58 560 q 334 745 195 745 l 334 745 q 469 710 412 745 q 557 608 526 674 l 557 608 l 559 608 q 560 651 559 622 q 564 705 562 680 q 567 734 566 731 l 567 734 l 683 734 q 679 582 679 697 l 679 582 l 679 21 q 602 -211 679 -134 q 372 -288 526 -288 z m 557 367 l 557 367 q 503 577 557 500 q 363 654 448 654 l 363 654 q 227 587 270 654 q 184 367 184 519 l 184 367 q 224 151 184 216 q 361 85 264 85 l 361 85 q 503 160 448 85 q 557 367 557 236 z "},"h":{"ha":772,"x_min":96,"x_max":682,"o":"m 213 608 l 215 608 q 310 714 254 680 q 450 747 365 747 l 450 747 q 626 685 569 747 q 682 489 682 623 l 682 489 l 682 0 l 559 0 l 559 465 q 525 609 559 565 q 408 653 490 653 l 408 653 q 270 593 322 653 q 218 433 218 534 l 218 433 l 218 0 l 96 0 l 96 1006 l 218 1006 l 218 745 q 217 687 218 718 q 215 635 216 657 q 213 608 214 613 l 213 608 z "},"i":{"ha":309,"x_min":93,"x_max":215,"o":"m 93 1006 l 215 1006 l 215 890 l 93 890 l 93 1006 z m 93 734 l 215 734 l 215 0 l 93 0 l 93 734 z "},"j":{"ha":309,"x_min":-34,"x_max":215,"o":"m 93 1006 l 215 1006 l 215 890 l 93 890 l 93 1006 z m 52 -288 l 52 -288 q -34 -282 -1 -288 l -34 -282 l -34 -188 q -13 -191 -23 -189 q 8 -192 -3 -192 l 8 -192 q 74 -168 55 -192 q 93 -73 93 -143 l 93 -73 l 93 734 l 215 734 l 215 -91 q 174 -241 215 -195 q 52 -288 134 -288 z "},"k":{"ha":694,"x_min":94,"x_max":696,"o":"m 305 335 l 216 261 l 216 0 l 94 0 l 94 1006 l 216 1006 l 216 378 l 538 734 l 681 734 l 383 418 l 696 0 l 553 0 l 305 335 z "},"l":{"ha":309,"x_min":94,"x_max":216,"o":"m 94 1006 l 216 1006 l 216 0 l 94 0 l 94 1006 z "},"m":{"ha":1157,"x_min":92,"x_max":1065,"o":"m 218 425 l 218 425 l 218 0 l 96 0 l 96 577 q 95 681 96 642 q 92 734 94 720 l 92 734 l 208 734 q 210 697 209 719 q 212 652 212 675 q 213 608 213 629 l 213 608 l 215 608 q 305 717 254 686 q 429 747 356 747 l 429 747 q 561 714 513 747 q 629 608 610 681 l 629 608 l 631 608 q 723 715 669 682 q 853 747 777 747 l 853 747 q 1015 687 964 747 q 1065 489 1065 627 l 1065 489 l 1065 0 l 945 0 l 945 465 q 916 612 945 572 q 810 653 886 653 l 810 653 q 686 594 730 653 q 642 425 642 534 l 642 425 l 642 0 l 521 0 l 521 465 q 492 612 521 572 q 387 653 463 653 l 387 653 q 263 593 309 653 q 218 425 218 534 z "},"n":{"ha":772,"x_min":92,"x_max":682,"o":"m 218 425 l 218 425 l 218 0 l 96 0 l 96 577 q 95 681 96 642 q 92 734 94 720 l 92 734 l 208 734 q 210 701 209 721 q 212 658 211 682 q 213 608 212 634 l 213 608 l 215 608 q 312 716 257 684 q 450 747 368 747 l 450 747 q 626 686 570 747 q 682 489 682 624 l 682 489 l 682 0 l 559 0 l 559 465 q 526 612 559 570 q 408 653 492 653 l 408 653 q 269 593 320 653 q 218 425 218 532 z "},"o":{"ha":772,"x_min":58,"x_max":714,"o":"m 714 368 l 714 368 q 629 81 714 175 q 383 -14 545 -14 l 383 -14 q 140 84 222 -14 q 58 368 58 182 l 58 368 q 141 652 58 557 q 387 747 223 747 l 387 747 q 635 655 555 747 q 714 368 714 562 z m 586 368 l 586 368 q 541 588 586 519 q 389 657 496 657 l 389 657 q 234 587 282 657 q 186 368 186 517 l 186 368 q 234 150 186 222 q 382 77 281 77 l 382 77 q 539 147 492 77 q 586 368 586 218 z "},"p":{"ha":772,"x_min":90,"x_max":714,"o":"m 714 370 l 714 370 q 647 82 714 178 q 444 -14 579 -14 l 444 -14 q 216 114 275 -14 l 216 114 l 213 114 q 216 -1 216 109 l 216 -1 l 216 -288 l 94 -288 l 94 584 q 93 678 94 640 q 90 734 92 715 l 90 734 l 208 734 q 210 707 208 731 q 213 656 212 684 q 214 616 214 629 l 214 616 l 217 616 q 303 715 250 684 q 444 747 357 747 l 444 747 q 647 656 580 747 q 714 370 714 565 z m 586 368 l 586 368 q 545 587 586 521 q 413 652 503 652 l 413 652 q 264 583 313 652 q 216 358 216 513 l 216 358 q 262 145 216 214 q 412 77 308 77 l 412 77 q 544 143 503 77 q 586 368 586 210 z "},"q":{"ha":772,"x_min":58,"x_max":684,"o":"m 58 363 l 58 363 q 126 651 58 555 q 328 747 193 747 l 328 747 q 467 718 412 747 q 558 620 522 688 l 558 620 q 559 662 558 633 q 563 716 561 691 q 566 743 565 741 l 566 743 l 684 743 q 680 673 681 724 q 679 543 679 623 l 679 543 l 679 -288 l 557 -288 l 557 9 l 559 121 l 558 121 q 468 17 522 48 q 328 -14 414 -14 l 328 -14 q 123 81 189 -14 q 58 363 58 175 z m 557 376 l 557 376 q 510 588 557 519 q 361 657 463 657 l 361 657 q 227 588 268 657 q 186 368 186 519 l 186 368 q 228 147 186 214 q 359 81 269 81 l 359 81 q 510 155 463 81 q 557 376 557 229 z "},"r":{"ha":463,"x_min":92,"x_max":439,"o":"m 218 382 l 218 382 l 218 0 l 96 0 l 96 563 q 95 644 96 602 q 92 734 94 687 l 92 734 l 208 734 q 210 677 209 703 q 212 634 211 652 q 213 603 212 615 q 213 584 213 590 l 213 584 l 216 584 q 260 687 236 650 l 260 687 q 315 734 284 721 q 390 747 345 747 l 390 747 q 439 741 415 747 l 439 741 l 439 629 q 374 635 416 635 l 374 635 q 258 570 298 635 q 218 382 218 505 z "},"s":{"ha":694,"x_min":39,"x_max":644,"o":"m 644 203 l 644 203 q 566 43 644 99 q 347 -14 488 -14 l 347 -14 q 135 32 210 -14 q 39 172 61 77 l 39 172 l 146 193 q 211 107 162 134 q 347 79 260 79 l 347 79 q 483 108 439 79 q 526 193 526 136 l 526 193 q 496 264 526 237 q 399 309 466 291 l 399 309 q 274 343 321 330 q 203 367 228 357 q 163 385 178 376 l 163 385 q 93 448 118 411 q 68 540 68 486 l 68 540 q 139 693 68 640 q 348 745 211 745 l 348 745 q 541 703 469 745 q 631 566 612 660 l 631 566 l 522 552 q 467 627 511 601 q 348 653 422 653 l 348 653 q 226 628 265 653 q 186 552 186 603 l 186 552 q 209 491 186 515 q 294 451 231 467 l 294 451 q 456 407 379 431 q 566 359 532 382 l 566 359 q 624 293 604 331 q 644 203 644 256 z "},"t":{"ha":386,"x_min":21,"x_max":376,"o":"m 376 96 l 376 5 q 252 -11 316 -11 l 252 -11 q 142 31 179 -11 q 106 155 106 73 l 106 155 l 106 645 l 21 645 l 21 734 l 111 734 l 146 898 l 228 898 l 228 734 l 363 734 l 363 645 l 228 645 l 228 182 q 245 107 228 129 q 305 86 262 86 l 305 86 q 376 96 328 86 l 376 96 z "},"u":{"ha":772,"x_min":90,"x_max":680,"o":"m 559 125 l 557 125 q 460 18 515 50 q 323 -14 405 -14 l 323 -14 q 146 46 202 -14 q 90 245 90 106 l 90 245 l 90 734 l 213 734 l 213 269 q 247 120 213 159 q 364 81 281 81 l 364 81 q 503 141 452 81 q 554 309 554 201 l 554 309 l 554 734 l 676 734 l 676 157 q 677 54 676 93 q 680 0 678 14 l 680 0 l 565 0 q 563 32 564 3 q 559 125 561 60 l 559 125 z "},"v":{"ha":694,"x_min":5,"x_max":690,"o":"m 560 734 l 690 734 l 416 0 l 271 0 l 5 734 l 135 734 l 296 256 q 313 202 301 243 q 343 96 324 162 l 343 96 q 360 151 352 122 q 377 207 369 180 q 393 255 386 234 l 393 255 l 560 734 z "},"w":{"ha":1003,"x_min":-2,"x_max":1006,"o":"m 477 519 l 477 519 l 345 0 l 203 0 l -2 734 l 119 734 l 245 226 q 258 171 250 204 q 272 101 265 138 l 272 101 q 287 165 279 133 q 303 228 295 197 l 303 228 l 437 734 l 568 734 l 696 230 q 712 165 704 198 q 727 101 720 133 l 727 101 q 742 169 734 134 q 757 232 750 205 l 757 232 l 887 734 l 1006 734 l 796 0 l 654 0 l 526 519 q 514 576 519 547 q 502 633 508 605 l 502 633 q 492 583 499 618 q 477 519 485 547 z "},"x":{"ha":694,"x_min":16,"x_max":680,"o":"m 543 0 l 346 301 l 147 0 l 16 0 l 277 377 l 28 734 l 163 734 l 346 448 l 528 734 l 664 734 l 415 378 l 680 0 l 543 0 z "},"y":{"ha":694,"x_min":3,"x_max":692,"o":"m 130 -288 l 130 -288 q 45 -281 81 -288 l 45 -281 l 45 -189 q 102 -193 71 -193 l 102 -193 q 208 -151 159 -193 q 294 3 256 -109 l 294 3 l 3 734 l 134 734 l 288 328 q 325 230 305 285 q 355 133 344 175 l 355 133 q 389 229 372 181 q 422 323 406 276 l 422 323 l 563 734 l 692 734 l 410 0 q 366 -102 387 -58 q 325 -174 345 -146 l 325 -174 q 238 -260 286 -232 q 130 -288 190 -288 z "},"z":{"ha":694,"x_min":56,"x_max":625,"o":"m 200 94 l 625 94 l 625 0 l 56 0 l 56 93 l 467 640 l 79 640 l 79 734 l 611 734 l 611 641 l 200 94 z "},"{":{"ha":464,"x_min":23,"x_max":439,"o":"m 439 -288 l 348 -288 q 215 -236 262 -288 q 169 -90 169 -184 l 169 -90 l 169 155 q 133 274 169 235 q 23 316 98 313 l 23 316 l 23 402 q 133 444 97 405 q 169 562 169 483 l 169 562 l 169 808 q 214 955 169 903 q 348 1006 259 1006 l 348 1006 l 439 1006 l 439 919 l 397 919 q 309 883 335 919 q 283 773 283 846 l 283 773 l 283 532 q 247 421 283 468 q 151 361 211 375 l 151 361 l 151 359 q 247 299 212 345 q 283 187 283 253 l 283 187 l 283 -55 q 309 -164 283 -127 q 397 -201 335 -201 l 397 -201 l 439 -201 l 439 -288 z "},"|":{"ha":361,"x_min":124,"x_max":237,"o":"m 124 1006 l 237 1006 l 237 -294 l 124 -294 l 124 1006 z "},"}":{"ha":464,"x_min":23,"x_max":439,"o":"m 23 -288 l 23 -201 l 64 -201 q 152 -164 125 -201 q 179 -55 179 -127 l 179 -55 l 179 187 q 214 300 179 254 q 310 359 250 346 l 310 359 l 310 361 q 215 420 252 374 q 179 532 179 466 l 179 532 l 179 773 q 152 883 179 846 q 64 919 125 919 l 64 919 l 23 919 l 23 1006 l 113 1006 q 247 955 201 1006 q 292 808 292 903 l 292 808 l 292 562 q 328 444 292 484 q 439 402 363 405 l 439 402 l 439 316 q 327 274 363 313 q 292 155 292 235 l 292 155 l 292 -90 q 245 -236 292 -183 q 113 -288 199 -288 l 113 -288 l 23 -288 z "},"~":{"ha":811,"x_min":62,"x_max":749,"o":"m 572 375 l 572 375 q 476 390 526 375 q 378 422 427 405 l 378 422 q 231 453 290 453 l 231 453 q 146 439 185 453 q 62 393 106 425 l 62 393 l 62 490 q 241 547 138 547 l 241 547 q 319 538 277 547 l 319 538 q 374 524 341 534 q 450 498 406 514 l 450 498 q 512 479 471 490 q 583 468 553 468 l 583 468 q 749 530 671 468 l 749 530 l 749 429 q 670 388 709 401 q 572 375 630 375 z "},"Ä":{"ha":926,"x_min":3,"x_max":924,"o":"m 682 279 l 247 279 l 137 0 l 3 0 l 393 956 l 540 956 l 924 0 l 791 0 l 682 279 z m 465 858 l 465 858 q 437 773 453 820 q 408 692 421 727 l 408 692 l 286 380 l 644 380 l 521 696 q 496 763 511 720 q 465 858 480 806 z m 545 1162 l 655 1162 l 655 1038 l 545 1038 l 545 1162 z m 277 1162 l 389 1162 l 389 1038 l 277 1038 l 277 1162 z "},"Å":{"ha":926,"x_min":3,"x_max":924,"o":"m 682 279 l 247 279 l 137 0 l 3 0 l 393 956 l 540 956 l 924 0 l 791 0 l 682 279 z m 465 858 l 465 858 q 437 773 453 820 q 408 692 421 727 l 408 692 l 286 380 l 644 380 l 521 696 q 496 763 511 720 q 465 858 480 806 z m 629 1048 l 629 1048 q 607 966 629 1004 q 548 907 585 929 q 465 884 511 884 l 465 884 q 383 907 420 884 q 323 966 346 929 q 301 1048 301 1004 l 301 1048 q 323 1132 301 1095 q 383 1190 346 1168 q 465 1212 420 1212 l 465 1212 q 547 1190 510 1212 q 607 1131 585 1168 q 629 1048 629 1094 z m 556 1048 l 556 1048 q 530 1113 556 1086 q 465 1139 503 1139 l 465 1139 q 400 1113 427 1139 q 374 1048 374 1086 l 374 1048 q 399 983 374 1011 q 465 956 425 956 l 465 956 q 530 983 505 956 q 556 1048 556 1010 z "},"Ç":{"ha":1003,"x_min":71,"x_max":950,"o":"m 543 93 l 543 93 q 844 292 743 93 l 844 292 l 950 239 q 784 51 891 115 q 536 -14 677 -14 l 536 -14 q 287 47 391 -14 q 126 219 182 107 q 71 482 71 330 l 71 482 q 126 744 71 635 q 286 911 182 853 q 536 970 391 970 l 536 970 q 791 910 688 970 q 941 733 893 850 l 941 733 l 819 692 q 712 820 785 776 q 537 864 638 864 l 537 864 q 290 762 378 864 q 202 482 202 660 l 202 482 q 244 278 202 366 q 362 141 286 190 q 543 93 438 93 z m 673 -172 l 673 -172 q 627 -264 673 -233 q 488 -294 581 -294 l 488 -294 q 427 -292 446 -294 l 427 -292 l 427 -225 q 485 -229 460 -229 l 485 -229 q 585 -174 585 -229 l 585 -174 q 562 -135 585 -149 q 494 -122 540 -122 l 494 -122 q 470 -122 479 -122 q 456 -123 460 -123 l 456 -123 l 500 0 l 572 0 l 546 -68 q 642 -97 610 -70 q 673 -172 673 -125 z "},"É":{"ha":926,"x_min":114,"x_max":867,"o":"m 243 106 l 867 106 l 867 0 l 114 0 l 114 956 l 839 956 l 839 850 l 243 850 l 243 543 l 798 543 l 798 439 l 243 439 l 243 106 z m 661 1204 l 661 1185 l 451 1038 l 374 1038 l 374 1051 l 521 1204 l 661 1204 z "},"Ñ":{"ha":1003,"x_min":114,"x_max":890,"o":"m 229 635 l 229 635 l 229 0 l 114 0 l 114 956 l 264 956 l 781 136 q 773 329 773 270 l 773 329 l 773 956 l 890 956 l 890 0 l 734 0 l 222 814 q 227 724 224 769 q 229 635 229 680 z m 616 1038 l 616 1038 q 564 1049 591 1038 q 512 1075 538 1061 l 512 1075 q 458 1104 484 1090 q 409 1118 432 1118 l 409 1118 q 353 1097 372 1118 q 329 1038 335 1076 l 329 1038 l 267 1038 q 314 1181 278 1143 q 405 1219 351 1219 l 405 1219 q 463 1206 434 1219 q 520 1176 492 1192 l 520 1176 q 569 1150 545 1162 q 612 1139 592 1139 l 612 1139 q 666 1159 646 1139 q 691 1219 686 1179 l 691 1219 l 753 1219 q 708 1078 742 1119 q 616 1038 674 1038 z "},"Ö":{"ha":1080,"x_min":66,"x_max":1014,"o":"m 1014 482 l 1014 482 q 956 218 1014 329 q 791 46 898 106 q 539 -14 685 -14 l 539 -14 q 287 46 393 -14 q 123 217 180 106 q 66 482 66 328 l 66 482 q 122 744 66 635 q 285 911 179 853 q 541 970 391 970 l 541 970 q 793 912 687 970 q 957 746 899 854 q 1014 482 1014 637 z m 882 482 l 882 482 q 792 762 882 661 q 541 864 703 864 l 541 864 q 287 764 376 864 q 197 482 197 663 l 197 482 q 238 275 197 363 q 355 139 279 187 q 539 92 432 92 l 539 92 q 793 194 705 92 q 882 482 882 296 z m 617 1162 l 728 1162 l 728 1038 l 617 1038 l 617 1162 z m 350 1162 l 462 1162 l 462 1038 l 350 1038 l 350 1162 z "},"Ü":{"ha":1003,"x_min":107,"x_max":896,"o":"m 496 -14 l 496 -14 q 291 30 378 -14 q 155 154 203 73 q 107 347 107 235 l 107 347 l 107 956 l 237 956 l 237 358 q 303 159 237 227 q 495 92 370 92 l 495 92 q 695 162 624 92 q 767 367 767 232 l 767 367 l 767 956 l 896 956 l 896 359 q 847 160 896 243 q 708 32 798 77 q 496 -14 618 -14 z m 578 1162 l 689 1162 l 689 1038 l 578 1038 l 578 1162 z m 311 1162 l 423 1162 l 423 1038 l 311 1038 l 311 1162 z "},"á":{"ha":772,"x_min":59,"x_max":772,"o":"m 281 -14 l 281 -14 q 115 45 170 -14 q 59 205 59 103 l 59 205 q 134 380 59 319 q 376 445 209 441 l 376 445 l 541 448 l 541 488 q 503 616 541 577 q 383 654 465 654 l 383 654 q 264 627 301 654 q 219 538 227 599 l 219 538 l 92 549 q 386 747 123 747 l 386 747 q 594 684 524 747 q 664 500 664 621 l 664 500 l 664 184 q 678 103 664 130 q 732 75 692 75 l 732 75 q 772 80 751 75 l 772 80 l 772 4 q 726 -4 749 -1 q 678 -7 702 -7 l 678 -7 q 579 29 610 -7 q 545 140 549 64 l 545 140 l 541 140 q 432 21 494 56 q 281 -14 370 -14 z m 541 302 l 541 362 l 407 359 q 277 342 321 359 l 277 342 q 208 292 232 326 q 184 203 184 258 l 184 203 q 217 111 184 143 q 309 78 249 78 l 309 78 q 428 109 376 78 l 428 109 q 510 192 480 139 q 541 302 541 245 l 541 302 z m 567 1023 l 567 1003 l 343 814 l 279 814 l 279 828 l 427 1023 l 567 1023 z "},"à":{"ha":772,"x_min":59,"x_max":772,"o":"m 281 -14 l 281 -14 q 115 45 170 -14 q 59 205 59 103 l 59 205 q 134 380 59 319 q 376 445 209 441 l 376 445 l 541 448 l 541 488 q 503 616 541 577 q 383 654 465 654 l 383 654 q 264 627 301 654 q 219 538 227 599 l 219 538 l 92 549 q 386 747 123 747 l 386 747 q 594 684 524 747 q 664 500 664 621 l 664 500 l 664 184 q 678 103 664 130 q 732 75 692 75 l 732 75 q 772 80 751 75 l 772 80 l 772 4 q 726 -4 749 -1 q 678 -7 702 -7 l 678 -7 q 579 29 610 -7 q 545 140 549 64 l 545 140 l 541 140 q 432 21 494 56 q 281 -14 370 -14 z m 541 302 l 541 362 l 407 359 q 277 342 321 359 l 277 342 q 208 292 232 326 q 184 203 184 258 l 184 203 q 217 111 184 143 q 309 78 249 78 l 309 78 q 428 109 376 78 l 428 109 q 510 192 480 139 q 541 302 541 245 l 541 302 z m 340 1023 l 487 828 l 487 814 l 423 814 l 199 1003 l 199 1023 l 340 1023 z "},"â":{"ha":772,"x_min":59,"x_max":772,"o":"m 281 -14 l 281 -14 q 115 45 170 -14 q 59 205 59 103 l 59 205 q 134 380 59 319 q 376 445 209 441 l 376 445 l 541 448 l 541 488 q 503 616 541 577 q 383 654 465 654 l 383 654 q 264 627 301 654 q 219 538 227 599 l 219 538 l 92 549 q 386 747 123 747 l 386 747 q 594 684 524 747 q 664 500 664 621 l 664 500 l 664 184 q 678 103 664 130 q 732 75 692 75 l 732 75 q 772 80 751 75 l 772 80 l 772 4 q 726 -4 749 -1 q 678 -7 702 -7 l 678 -7 q 579 29 610 -7 q 545 140 549 64 l 545 140 l 541 140 q 432 21 494 56 q 281 -14 370 -14 z m 541 302 l 541 362 l 407 359 q 277 342 321 359 l 277 342 q 208 292 232 326 q 184 203 184 258 l 184 203 q 217 111 184 143 q 309 78 249 78 l 309 78 q 428 109 376 78 l 428 109 q 510 192 480 139 q 541 302 541 245 l 541 302 z m 219 814 l 149 814 l 149 828 l 307 1011 l 446 1011 l 597 828 l 597 814 l 526 814 l 378 929 l 376 929 l 219 814 z "},"ä":{"ha":772,"x_min":59,"x_max":772,"o":"m 281 -14 l 281 -14 q 115 45 170 -14 q 59 205 59 103 l 59 205 q 134 380 59 319 q 376 445 209 441 l 376 445 l 541 448 l 541 488 q 503 616 541 577 q 383 654 465 654 l 383 654 q 264 627 301 654 q 219 538 227 599 l 219 538 l 92 549 q 386 747 123 747 l 386 747 q 594 684 524 747 q 664 500 664 621 l 664 500 l 664 184 q 678 103 664 130 q 732 75 692 75 l 732 75 q 772 80 751 75 l 772 80 l 772 4 q 726 -4 749 -1 q 678 -7 702 -7 l 678 -7 q 579 29 610 -7 q 545 140 549 64 l 545 140 l 541 140 q 432 21 494 56 q 281 -14 370 -14 z m 541 302 l 541 362 l 407 359 q 277 342 321 359 l 277 342 q 208 292 232 326 q 184 203 184 258 l 184 203 q 217 111 184 143 q 309 78 249 78 l 309 78 q 428 109 376 78 l 428 109 q 510 192 480 139 q 541 302 541 245 l 541 302 z m 457 951 l 568 951 l 568 827 l 457 827 l 457 951 z m 190 951 l 302 951 l 302 827 l 190 827 l 190 951 z "},"ã":{"ha":772,"x_min":59,"x_max":772,"o":"m 281 -14 l 281 -14 q 115 45 170 -14 q 59 205 59 103 l 59 205 q 134 380 59 319 q 376 445 209 441 l 376 445 l 541 448 l 541 488 q 503 616 541 577 q 383 654 465 654 l 383 654 q 264 627 301 654 q 219 538 227 599 l 219 538 l 92 549 q 386 747 123 747 l 386 747 q 594 684 524 747 q 664 500 664 621 l 664 500 l 664 184 q 678 103 664 130 q 732 75 692 75 l 732 75 q 772 80 751 75 l 772 80 l 772 4 q 726 -4 749 -1 q 678 -7 702 -7 l 678 -7 q 579 29 610 -7 q 545 140 549 64 l 545 140 l 541 140 q 432 21 494 56 q 281 -14 370 -14 z m 541 302 l 541 362 l 407 359 q 277 342 321 359 l 277 342 q 208 292 232 326 q 184 203 184 258 l 184 203 q 217 111 184 143 q 309 78 249 78 l 309 78 q 428 109 376 78 l 428 109 q 510 192 480 139 q 541 302 541 245 l 541 302 z m 500 814 l 500 814 q 445 827 473 814 q 391 854 418 840 l 391 854 q 339 883 364 870 q 292 895 314 895 l 292 895 q 237 874 255 895 q 212 814 218 853 l 212 814 l 151 814 q 197 957 162 918 q 288 996 233 996 l 288 996 q 348 982 318 996 q 405 952 377 968 l 405 952 q 453 927 430 938 q 495 916 475 916 l 495 916 q 549 936 529 916 q 574 996 569 956 l 574 996 l 637 996 q 591 855 625 896 q 500 814 557 814 z "},"å":{"ha":772,"x_min":59,"x_max":772,"o":"m 281 -14 l 281 -14 q 115 45 170 -14 q 59 205 59 103 l 59 205 q 134 380 59 319 q 376 445 209 441 l 376 445 l 541 448 l 541 488 q 503 616 541 577 q 383 654 465 654 l 383 654 q 264 627 301 654 q 219 538 227 599 l 219 538 l 92 549 q 386 747 123 747 l 386 747 q 594 684 524 747 q 664 500 664 621 l 664 500 l 664 184 q 678 103 664 130 q 732 75 692 75 l 732 75 q 772 80 751 75 l 772 80 l 772 4 q 726 -4 749 -1 q 678 -7 702 -7 l 678 -7 q 579 29 610 -7 q 545 140 549 64 l 545 140 l 541 140 q 432 21 494 56 q 281 -14 370 -14 z m 541 302 l 541 362 l 407 359 q 277 342 321 359 l 277 342 q 208 292 232 326 q 184 203 184 258 l 184 203 q 217 111 184 143 q 309 78 249 78 l 309 78 q 428 109 376 78 l 428 109 q 510 192 480 139 q 541 302 541 245 l 541 302 z m 542 956 l 542 956 q 519 874 542 911 q 460 814 497 837 q 378 792 423 792 l 378 792 q 296 814 333 792 q 236 874 258 837 q 214 956 214 911 l 214 956 q 236 1039 214 1002 q 296 1098 258 1076 q 378 1120 333 1120 l 378 1120 q 460 1098 422 1120 q 519 1039 497 1076 q 542 956 542 1002 z m 469 956 l 469 956 q 442 1021 469 994 q 378 1047 416 1047 l 378 1047 q 313 1021 339 1047 q 286 956 286 994 l 286 956 q 312 891 286 919 q 378 863 338 863 l 378 863 q 443 891 417 863 q 469 956 469 918 z "},"ç":{"ha":694,"x_min":59,"x_max":658,"o":"m 375 -14 l 375 -14 q 140 84 221 -14 q 59 368 59 181 l 59 368 q 140 650 59 553 q 374 747 222 747 l 374 747 q 561 689 486 747 q 654 528 635 631 l 654 528 l 528 519 q 480 616 519 580 q 370 652 441 652 l 370 652 q 230 587 273 652 q 186 370 186 523 l 186 370 q 233 153 186 224 q 372 83 279 83 l 372 83 q 480 118 437 83 q 534 227 524 153 l 534 227 l 658 218 q 611 96 648 148 q 513 15 573 43 q 375 -14 453 -14 z m 509 -172 l 509 -172 q 463 -264 509 -233 q 323 -294 416 -294 l 323 -294 q 262 -292 282 -294 l 262 -292 l 262 -225 q 321 -229 296 -229 l 321 -229 q 420 -174 420 -229 l 420 -174 q 398 -135 420 -149 q 330 -122 376 -122 l 330 -122 q 306 -122 315 -122 q 292 -123 296 -123 l 292 -123 l 336 0 l 408 0 l 382 -68 q 477 -97 446 -70 q 509 -172 509 -125 z "},"é":{"ha":772,"x_min":59,"x_max":711,"o":"m 711 341 l 187 341 q 239 146 187 215 q 392 78 292 78 l 392 78 q 519 110 471 78 q 584 191 567 142 l 584 191 l 691 160 q 392 -14 625 -14 l 392 -14 q 144 83 229 -14 q 59 372 59 180 l 59 372 q 144 650 59 553 q 387 747 229 747 l 387 747 q 630 650 549 747 q 711 357 711 552 l 711 357 l 711 341 z m 189 435 l 585 435 q 526 604 574 551 q 385 657 477 657 l 385 657 q 244 598 296 657 q 189 435 193 538 l 189 435 z m 586 1023 l 586 1003 l 362 814 l 298 814 l 298 828 l 446 1023 l 586 1023 z "},"è":{"ha":772,"x_min":59,"x_max":711,"o":"m 711 341 l 187 341 q 239 146 187 215 q 392 78 292 78 l 392 78 q 519 110 471 78 q 584 191 567 142 l 584 191 l 691 160 q 392 -14 625 -14 l 392 -14 q 144 83 229 -14 q 59 372 59 180 l 59 372 q 144 650 59 553 q 387 747 229 747 l 387 747 q 630 650 549 747 q 711 357 711 552 l 711 357 l 711 341 z m 189 435 l 585 435 q 526 604 574 551 q 385 657 477 657 l 385 657 q 244 598 296 657 q 189 435 193 538 l 189 435 z m 362 1023 l 509 828 l 509 814 l 446 814 l 222 1003 l 222 1023 l 362 1023 z "},"ê":{"ha":772,"x_min":59,"x_max":711,"o":"m 711 341 l 187 341 q 239 146 187 215 q 392 78 292 78 l 392 78 q 519 110 471 78 q 584 191 567 142 l 584 191 l 691 160 q 392 -14 625 -14 l 392 -14 q 144 83 229 -14 q 59 372 59 180 l 59 372 q 144 650 59 553 q 387 747 229 747 l 387 747 q 630 650 549 747 q 711 357 711 552 l 711 357 l 711 341 z m 189 435 l 585 435 q 526 604 574 551 q 385 657 477 657 l 385 657 q 244 598 296 657 q 189 435 193 538 l 189 435 z m 237 814 l 167 814 l 167 828 l 326 1011 l 464 1011 l 616 828 l 616 814 l 545 814 l 396 929 l 395 929 l 237 814 z "},"ë":{"ha":772,"x_min":59,"x_max":711,"o":"m 711 341 l 187 341 q 239 146 187 215 q 392 78 292 78 l 392 78 q 519 110 471 78 q 584 191 567 142 l 584 191 l 691 160 q 392 -14 625 -14 l 392 -14 q 144 83 229 -14 q 59 372 59 180 l 59 372 q 144 650 59 553 q 387 747 229 747 l 387 747 q 630 650 549 747 q 711 357 711 552 l 711 357 l 711 341 z m 189 435 l 585 435 q 526 604 574 551 q 385 657 477 657 l 385 657 q 244 598 296 657 q 189 435 193 538 l 189 435 z m 466 951 l 576 951 l 576 827 l 466 827 l 466 951 z m 199 951 l 311 951 l 311 827 l 199 827 l 199 951 z "},"í":{"ha":386,"x_min":92,"x_max":379,"o":"m 132 734 l 254 734 l 254 0 l 132 0 l 132 734 z m 379 1023 l 379 1003 l 155 814 l 92 814 l 92 828 l 239 1023 l 379 1023 z "},"ì":{"ha":386,"x_min":7,"x_max":294,"o":"m 132 734 l 254 734 l 254 0 l 132 0 l 132 734 z m 147 1023 l 294 828 l 294 814 l 231 814 l 7 1003 l 7 1023 l 147 1023 z "},"î":{"ha":386,"x_min":-30,"x_max":419,"o":"m 132 734 l 254 734 l 254 0 l 132 0 l 132 734 z m 41 814 l -30 814 l -30 828 l 129 1011 l 267 1011 l 419 828 l 419 814 l 348 814 l 199 929 l 198 929 l 41 814 z "},"ï":{"ha":386,"x_min":5,"x_max":383,"o":"m 132 734 l 254 734 l 254 0 l 132 0 l 132 734 z m 273 951 l 383 951 l 383 827 l 273 827 l 273 951 z m 5 951 l 117 951 l 117 827 l 5 827 l 5 951 z "},"ñ":{"ha":772,"x_min":95,"x_max":685,"o":"m 221 425 l 221 425 l 221 0 l 99 0 l 99 577 q 98 681 99 642 q 95 734 97 720 l 95 734 l 210 734 q 213 701 212 721 q 214 658 214 682 q 216 608 215 634 l 216 608 l 218 608 q 315 716 260 684 q 452 747 370 747 l 452 747 q 629 686 573 747 q 685 489 685 624 l 685 489 l 685 0 l 562 0 l 562 465 q 528 612 562 570 q 411 653 494 653 l 411 653 q 272 593 323 653 q 221 425 221 532 z m 500 814 l 500 814 q 445 827 473 814 q 391 854 418 840 l 391 854 q 339 883 364 870 q 292 895 314 895 l 292 895 q 237 874 255 895 q 212 814 218 853 l 212 814 l 151 814 q 197 957 162 918 q 288 996 233 996 l 288 996 q 348 982 318 996 q 405 952 377 968 l 405 952 q 453 927 430 938 q 495 916 475 916 l 495 916 q 549 936 529 916 q 574 996 569 956 l 574 996 l 637 996 q 591 855 625 896 q 500 814 557 814 z "},"ó":{"ha":772,"x_min":58,"x_max":714,"o":"m 714 368 l 714 368 q 629 81 714 175 q 383 -14 545 -14 l 383 -14 q 140 84 222 -14 q 58 368 58 182 l 58 368 q 141 652 58 557 q 387 747 223 747 l 387 747 q 635 655 555 747 q 714 368 714 562 z m 586 368 l 586 368 q 541 588 586 519 q 389 657 496 657 l 389 657 q 234 587 282 657 q 186 368 186 517 l 186 368 q 234 150 186 222 q 382 77 281 77 l 382 77 q 539 147 492 77 q 586 368 586 218 z m 580 1023 l 580 1003 l 356 814 l 292 814 l 292 828 l 439 1023 l 580 1023 z "},"ò":{"ha":772,"x_min":58,"x_max":714,"o":"m 714 368 l 714 368 q 629 81 714 175 q 383 -14 545 -14 l 383 -14 q 140 84 222 -14 q 58 368 58 182 l 58 368 q 141 652 58 557 q 387 747 223 747 l 387 747 q 635 655 555 747 q 714 368 714 562 z m 586 368 l 586 368 q 541 588 586 519 q 389 657 496 657 l 389 657 q 234 587 282 657 q 186 368 186 517 l 186 368 q 234 150 186 222 q 382 77 281 77 l 382 77 q 539 147 492 77 q 586 368 586 218 z m 363 1023 l 511 828 l 511 814 l 447 814 l 223 1003 l 223 1023 l 363 1023 z "},"ô":{"ha":772,"x_min":58,"x_max":714,"o":"m 714 368 l 714 368 q 629 81 714 175 q 383 -14 545 -14 l 383 -14 q 140 84 222 -14 q 58 368 58 182 l 58 368 q 141 652 58 557 q 387 747 223 747 l 387 747 q 635 655 555 747 q 714 368 714 562 z m 586 368 l 586 368 q 541 588 586 519 q 389 657 496 657 l 389 657 q 234 587 282 657 q 186 368 186 517 l 186 368 q 234 150 186 222 q 382 77 281 77 l 382 77 q 539 147 492 77 q 586 368 586 218 z m 234 814 l 163 814 l 163 828 l 322 1011 l 460 1011 l 612 828 l 612 814 l 541 814 l 393 929 l 391 929 l 234 814 z "},"ö":{"ha":772,"x_min":58,"x_max":714,"o":"m 714 368 l 714 368 q 629 81 714 175 q 383 -14 545 -14 l 383 -14 q 140 84 222 -14 q 58 368 58 182 l 58 368 q 141 652 58 557 q 387 747 223 747 l 387 747 q 635 655 555 747 q 714 368 714 562 z m 586 368 l 586 368 q 541 588 586 519 q 389 657 496 657 l 389 657 q 234 587 282 657 q 186 368 186 517 l 186 368 q 234 150 186 222 q 382 77 281 77 l 382 77 q 539 147 492 77 q 586 368 586 218 z m 467 951 l 578 951 l 578 827 l 467 827 l 467 951 z m 200 951 l 312 951 l 312 827 l 200 827 l 200 951 z "},"õ":{"ha":772,"x_min":58,"x_max":714,"o":"m 714 368 l 714 368 q 629 81 714 175 q 383 -14 545 -14 l 383 -14 q 140 84 222 -14 q 58 368 58 182 l 58 368 q 141 652 58 557 q 387 747 223 747 l 387 747 q 635 655 555 747 q 714 368 714 562 z m 586 368 l 586 368 q 541 588 586 519 q 389 657 496 657 l 389 657 q 234 587 282 657 q 186 368 186 517 l 186 368 q 234 150 186 222 q 382 77 281 77 l 382 77 q 539 147 492 77 q 586 368 586 218 z m 501 814 l 501 814 q 447 827 474 814 q 393 854 419 840 l 393 854 q 340 883 366 870 q 294 895 315 895 l 294 895 q 238 874 256 895 q 214 814 220 853 l 214 814 l 152 814 q 199 957 163 918 q 290 996 234 996 l 290 996 q 349 982 319 996 q 406 952 378 968 l 406 952 q 454 927 431 938 q 496 916 477 916 l 496 916 q 550 936 530 916 q 576 996 570 956 l 576 996 l 638 996 q 593 855 627 896 q 501 814 559 814 z "},"ú":{"ha":772,"x_min":94,"x_max":684,"o":"m 564 125 l 562 125 q 464 18 519 50 q 327 -14 409 -14 l 327 -14 q 150 46 206 -14 q 94 245 94 106 l 94 245 l 94 734 l 217 734 l 217 269 q 251 120 217 159 q 368 81 286 81 l 368 81 q 507 141 456 81 q 558 309 558 201 l 558 309 l 558 734 l 680 734 l 680 157 q 681 54 680 93 q 684 0 682 14 l 684 0 l 569 0 q 567 32 568 3 q 564 125 565 60 l 564 125 z m 569 1023 l 569 1003 l 345 814 l 281 814 l 281 828 l 429 1023 l 569 1023 z "},"ù":{"ha":772,"x_min":94,"x_max":684,"o":"m 564 125 l 562 125 q 464 18 519 50 q 327 -14 409 -14 l 327 -14 q 150 46 206 -14 q 94 245 94 106 l 94 245 l 94 734 l 217 734 l 217 269 q 251 120 217 159 q 368 81 286 81 l 368 81 q 507 141 456 81 q 558 309 558 201 l 558 309 l 558 734 l 680 734 l 680 157 q 681 54 680 93 q 684 0 682 14 l 684 0 l 569 0 q 567 32 568 3 q 564 125 565 60 l 564 125 z m 372 1023 l 519 828 l 519 814 l 456 814 l 232 1003 l 232 1023 l 372 1023 z "},"û":{"ha":772,"x_min":94,"x_max":684,"o":"m 564 125 l 562 125 q 464 18 519 50 q 327 -14 409 -14 l 327 -14 q 150 46 206 -14 q 94 245 94 106 l 94 245 l 94 734 l 217 734 l 217 269 q 251 120 217 159 q 368 81 286 81 l 368 81 q 507 141 456 81 q 558 309 558 201 l 558 309 l 558 734 l 680 734 l 680 157 q 681 54 680 93 q 684 0 682 14 l 684 0 l 569 0 q 567 32 568 3 q 564 125 565 60 l 564 125 z m 233 814 l 163 814 l 163 828 l 321 1011 l 460 1011 l 612 828 l 612 814 l 541 814 l 392 929 l 391 929 l 233 814 z "},"ü":{"ha":772,"x_min":94,"x_max":684,"o":"m 564 125 l 562 125 q 464 18 519 50 q 327 -14 409 -14 l 327 -14 q 150 46 206 -14 q 94 245 94 106 l 94 245 l 94 734 l 217 734 l 217 269 q 251 120 217 159 q 368 81 286 81 l 368 81 q 507 141 456 81 q 558 309 558 201 l 558 309 l 558 734 l 680 734 l 680 157 q 681 54 680 93 q 684 0 682 14 l 684 0 l 569 0 q 567 32 568 3 q 564 125 565 60 l 564 125 z m 458 951 l 569 951 l 569 827 l 458 827 l 458 951 z m 191 951 l 303 951 l 303 827 l 191 827 l 191 951 z "},"†":{"ha":772,"x_min":94,"x_max":680,"o":"m 680 660 l 440 678 l 425 -94 l 347 -94 l 332 678 l 94 660 l 94 771 l 332 751 l 313 1006 l 459 1006 l 440 751 l 680 771 l 680 660 z "},"°":{"ha":555,"x_min":83,"x_max":472,"o":"m 472 777 l 472 777 q 446 679 472 723 q 375 609 419 635 q 277 583 331 583 l 277 583 q 180 610 224 583 q 109 680 136 636 q 83 777 83 724 l 83 777 q 109 873 83 829 q 179 944 135 918 q 277 970 223 970 l 277 970 q 376 944 332 970 q 446 874 420 918 q 472 777 472 831 z m 398 777 l 398 777 q 363 863 398 828 q 277 899 328 899 l 277 899 q 192 863 227 899 q 157 777 157 827 l 157 777 q 192 690 157 726 q 277 654 228 654 l 277 654 q 363 690 328 654 q 398 777 398 726 z "},"¢":{"ha":772,"x_min":92,"x_max":690,"o":"m 404 188 l 404 188 q 513 223 469 188 q 567 332 557 258 l 567 332 l 690 323 q 613 164 677 226 q 449 93 549 102 l 449 93 l 449 -21 l 365 -21 l 365 93 q 161 202 230 105 q 92 473 92 298 l 92 473 q 161 742 92 644 q 365 850 230 839 l 365 850 l 365 956 l 449 956 l 449 850 q 607 784 546 840 q 686 633 668 728 l 686 633 l 561 624 q 513 721 551 685 q 403 757 474 757 l 403 757 q 262 692 306 757 q 219 475 219 628 l 219 475 q 265 258 219 329 q 404 188 311 188 z "},"£":{"ha":772,"x_min":39,"x_max":749,"o":"m 638 223 l 749 211 q 677 55 737 109 q 520 0 618 0 l 520 0 l 47 0 l 47 104 q 136 190 107 136 q 165 326 165 244 l 165 326 l 165 424 l 39 424 l 39 511 l 165 511 l 165 701 q 235 902 165 833 q 438 970 305 970 l 438 970 q 606 929 538 970 q 696 814 673 888 l 696 814 l 578 775 q 527 844 564 819 q 441 869 489 869 l 441 869 q 326 830 363 869 q 288 707 288 791 l 288 707 l 288 511 l 564 511 l 564 424 l 288 424 l 288 338 q 256 195 288 258 q 173 104 225 132 l 173 104 l 500 104 q 594 134 559 104 q 638 223 629 163 l 638 223 z "},"§":{"ha":772,"x_min":78,"x_max":694,"o":"m 399 1006 l 399 1006 q 588 961 516 1006 q 679 830 661 916 l 679 830 l 570 817 q 518 893 561 867 q 399 918 475 918 l 399 918 q 270 891 314 918 q 227 817 227 865 l 227 817 q 247 760 227 784 q 305 719 268 736 l 305 719 q 431 680 344 701 l 431 680 q 583 629 528 657 l 583 629 q 665 560 636 600 q 694 465 694 520 l 694 465 q 654 347 694 398 q 546 280 614 296 l 546 280 q 656 204 622 248 q 690 98 690 160 l 690 98 q 612 -59 690 -2 q 391 -117 534 -117 l 391 -117 q 175 -72 250 -117 q 78 68 101 -26 l 78 68 l 187 89 q 247 0 201 28 q 391 -28 293 -28 l 391 -28 q 533 2 484 -28 q 582 87 582 32 l 582 87 q 560 152 582 126 q 496 198 538 178 l 496 198 q 351 243 454 218 l 351 243 q 162 326 220 273 q 104 455 104 379 l 104 455 q 145 566 104 515 q 258 636 187 616 l 258 636 q 156 703 193 658 q 118 807 118 749 l 118 807 q 190 954 118 901 q 399 1006 261 1006 z m 587 450 l 587 450 q 541 534 587 498 l 541 534 q 374 597 493 570 l 374 597 q 256 557 300 593 q 212 464 212 521 l 212 464 q 233 406 212 431 q 290 363 253 381 l 290 363 q 415 322 328 345 l 415 322 q 542 358 496 323 q 587 450 587 392 z "},"•":{"ha":486,"x_min":55,"x_max":431,"o":"m 431 463 l 431 463 q 406 368 431 412 q 337 298 380 325 q 241 272 294 272 l 241 272 q 148 298 190 272 q 80 368 105 324 q 55 463 55 411 l 55 463 q 80 557 55 515 q 148 624 106 599 q 241 648 191 648 l 241 648 q 337 623 294 648 q 406 556 380 598 q 431 463 431 514 z "},"¶":{"ha":746,"x_min":54,"x_max":687,"o":"m 524 886 l 376 886 l 376 -179 l 300 -179 l 300 471 q 120 533 186 471 q 54 711 54 596 l 54 711 q 121 891 54 826 q 305 956 188 956 l 305 956 l 687 956 l 687 886 l 600 886 l 600 -179 l 524 -179 l 524 886 z "},"ß":{"ha":848,"x_min":96,"x_max":791,"o":"m 791 200 l 791 200 q 728 42 791 98 q 549 -14 664 -14 l 549 -14 q 357 20 432 -14 l 357 20 l 355 131 q 445 98 391 111 q 546 84 499 84 l 546 84 q 642 113 608 84 q 675 196 675 142 l 675 196 q 646 274 675 239 q 551 348 617 309 l 551 348 q 458 429 489 385 q 427 532 427 474 l 427 532 q 447 608 427 574 q 503 672 466 642 l 503 672 q 560 733 542 705 q 578 795 578 762 l 578 795 q 532 879 578 848 q 413 911 487 911 l 413 911 q 266 857 313 911 q 218 692 218 802 l 218 692 l 218 0 l 96 0 l 96 696 q 176 928 96 850 q 413 1006 256 1006 l 413 1006 q 618 952 542 1006 q 694 805 694 897 l 694 805 q 675 715 694 757 q 618 638 656 673 l 618 638 q 565 588 581 605 q 545 560 549 570 q 541 536 541 549 l 541 536 q 559 492 541 513 q 606 452 577 471 q 667 410 634 432 l 667 410 q 791 200 791 326 z "},"®":{"ha":1023,"x_min":21,"x_max":1002,"o":"m 1002 479 l 1002 479 q 937 235 1002 349 l 937 235 q 756 55 871 120 q 511 -11 642 -11 l 511 -11 q 263 58 378 -11 l 263 58 q 85 239 149 126 q 21 479 21 351 l 21 479 q 87 724 21 611 l 87 724 q 267 904 153 838 q 511 970 380 970 l 511 970 q 758 904 643 970 l 758 904 q 937 725 871 838 q 1002 479 1002 611 z m 939 479 l 939 479 q 882 692 939 594 l 882 692 q 726 848 825 790 q 511 905 627 905 l 511 905 q 298 848 397 905 l 298 848 q 142 692 199 791 q 85 479 85 593 l 85 479 q 143 266 85 364 l 143 266 q 298 110 200 167 q 511 53 397 53 l 511 53 q 726 110 626 53 l 726 110 q 882 266 825 167 q 939 479 939 365 z m 513 424 l 404 424 l 404 196 l 317 196 l 317 760 l 526 760 q 673 717 622 760 q 724 599 724 674 l 724 599 q 689 488 724 530 q 596 433 654 446 l 596 433 l 746 196 l 648 196 l 513 424 z m 638 597 l 638 597 q 606 669 638 644 q 519 693 574 693 l 519 693 l 404 693 l 404 489 l 527 489 q 610 518 581 489 q 638 597 638 547 z "},"©":{"ha":1023,"x_min":21,"x_max":1002,"o":"m 1002 479 l 1002 479 q 937 235 1002 349 l 937 235 q 756 55 871 120 q 511 -11 642 -11 l 511 -11 q 263 58 378 -11 l 263 58 q 85 239 149 126 q 21 479 21 351 l 21 479 q 87 724 21 611 l 87 724 q 267 904 153 838 q 511 970 380 970 l 511 970 q 758 904 643 970 l 758 904 q 937 725 871 838 q 1002 479 1002 611 z m 939 479 l 939 479 q 882 692 939 594 l 882 692 q 726 848 825 790 q 511 905 627 905 l 511 905 q 298 848 397 905 l 298 848 q 142 692 199 791 q 85 479 85 593 l 85 479 q 143 266 85 364 l 143 266 q 298 110 200 167 q 511 53 397 53 l 511 53 q 726 110 626 53 l 726 110 q 882 266 825 167 q 939 479 939 365 z m 338 481 l 338 481 q 386 318 338 376 q 519 260 434 260 l 519 260 q 677 366 626 260 l 677 366 l 755 342 q 655 224 713 260 q 519 189 598 189 l 519 189 q 321 266 391 189 q 250 481 250 342 l 250 481 q 318 693 250 618 q 514 768 386 768 l 514 768 q 745 627 680 768 l 745 627 l 667 604 q 606 674 646 651 q 515 697 567 697 l 515 697 q 384 643 429 697 q 338 481 338 588 z "},"™":{"ha":1389,"x_min":127,"x_max":1232,"o":"m 1232 430 l 1147 430 l 1147 736 q 1147 795 1147 765 q 1148 853 1147 825 l 1148 853 q 1126 794 1137 823 q 1103 738 1115 766 l 1103 738 l 977 430 l 904 430 l 786 731 q 762 793 772 766 q 740 854 752 819 l 740 854 q 740 790 740 822 q 740 725 740 758 l 740 725 l 740 430 l 653 430 l 653 956 l 782 956 l 899 663 q 921 604 910 633 q 943 545 932 575 l 943 545 q 966 604 956 578 q 989 663 976 630 l 989 663 l 1107 956 l 1232 956 l 1232 430 z m 568 880 l 391 880 l 391 430 l 300 430 l 300 880 l 127 880 l 127 956 l 568 956 l 568 880 z "},"´":{"ha":463,"x_min":49,"x_max":336,"o":"m 336 1023 l 336 1003 l 113 814 l 49 814 l 49 828 l 196 1023 l 336 1023 z "},"¨":{"ha":463,"x_min":31,"x_max":408,"o":"m 298 951 l 408 951 l 408 827 l 298 827 l 298 951 z m 31 951 l 142 951 l 142 827 l 31 827 l 31 951 z "},"≠":{"ha":762,"x_min":44,"x_max":719,"o":"m 719 233 l 304 233 l 201 37 l 102 37 l 205 233 l 44 233 l 44 334 l 255 334 l 384 581 l 44 581 l 44 681 l 433 681 l 537 879 l 634 879 l 531 681 l 719 681 l 719 581 l 481 581 l 352 334 l 719 334 l 719 233 z "},"Æ":{"ha":1389,"x_min":16,"x_max":1329,"o":"m 657 279 l 286 279 l 151 0 l 16 0 l 481 956 l 1301 956 l 1301 850 l 787 850 l 787 543 l 1261 543 l 1261 439 l 787 439 l 787 106 l 1329 106 l 1329 0 l 657 0 l 657 279 z m 555 856 l 333 380 l 657 380 l 657 856 l 555 856 z "},"Ø":{"ha":1080,"x_min":48,"x_max":1034,"o":"m 1014 482 l 1014 482 q 956 221 1014 333 q 791 48 898 110 q 539 -14 685 -14 l 539 -14 q 258 62 372 -14 l 258 62 l 177 -36 l 48 -36 l 184 127 q 66 482 66 258 l 66 482 q 122 744 66 635 q 285 911 179 853 q 541 970 391 970 l 541 970 q 821 895 708 970 l 821 895 l 903 994 l 1034 994 l 897 830 q 985 679 956 766 q 1014 482 1014 591 z m 197 482 l 197 482 q 266 226 197 327 l 266 226 l 745 804 q 541 864 661 864 l 541 864 q 287 764 376 864 q 197 482 197 663 z m 882 482 l 882 482 q 815 732 882 633 l 815 732 l 334 153 q 539 92 416 92 l 539 92 q 793 194 705 92 q 882 482 882 296 z "},"∞":{"ha":990,"x_min":59,"x_max":931,"o":"m 931 400 l 931 400 q 903 266 931 326 q 828 172 876 206 q 720 138 781 138 l 720 138 q 493 329 583 138 l 493 329 q 389 190 447 239 q 271 142 331 142 l 271 142 q 118 213 177 142 q 59 404 59 285 l 59 404 q 86 541 59 481 q 162 633 114 600 q 271 667 210 667 l 271 667 q 395 619 340 667 q 494 475 451 571 l 494 475 q 597 613 538 563 q 722 663 656 663 l 722 663 q 874 590 817 663 q 931 400 931 517 z m 450 404 l 450 404 q 375 534 416 491 q 282 578 335 578 l 282 578 q 190 528 225 578 q 154 403 154 478 l 154 403 q 189 279 154 327 q 283 231 224 231 l 283 231 q 372 273 331 231 q 450 404 412 316 z m 705 574 l 705 574 q 539 400 614 574 l 539 400 q 614 270 574 313 q 707 227 654 227 l 707 227 q 800 276 763 227 q 837 401 837 325 l 837 401 q 800 524 837 474 q 705 574 763 574 z "},"±":{"ha":762,"x_min":44,"x_max":719,"o":"m 719 461 l 431 461 l 431 193 l 332 193 l 332 461 l 44 461 l 44 559 l 332 559 l 332 827 l 431 827 l 431 559 l 719 559 l 719 461 z m 44 98 l 719 98 l 719 0 l 44 0 l 44 98 z "},"≤":{"ha":762,"x_min":43,"x_max":719,"o":"m 137 497 l 719 264 l 719 160 l 44 428 l 44 567 l 719 835 l 719 730 l 137 497 z m 43 98 l 718 98 l 718 0 l 43 0 l 43 98 z "},"≥":{"ha":762,"x_min":44,"x_max":719,"o":"m 719 567 l 719 428 l 44 160 l 44 264 l 626 497 l 44 730 l 44 835 l 719 567 z m 44 98 l 719 98 l 719 0 l 44 0 l 44 98 z "},"¥":{"ha":772,"x_min":-1,"x_max":774,"o":"m 706 205 l 446 205 l 446 0 l 326 0 l 326 205 l 67 205 l 67 292 l 326 292 l 327 396 l 67 396 l 67 481 l 284 481 l -1 956 l 134 956 l 385 517 l 640 956 l 774 956 l 488 481 l 706 481 l 706 396 l 446 396 l 446 292 l 706 292 l 706 205 z "},"µ":{"ha":800,"x_min":95,"x_max":768,"o":"m 217 -288 l 95 -288 l 95 734 l 218 734 l 218 269 q 254 128 218 175 q 371 81 290 81 l 371 81 q 507 140 458 81 q 557 309 557 199 l 557 309 l 557 734 l 679 734 l 679 180 q 691 105 679 129 q 732 82 703 82 l 732 82 q 768 87 748 82 l 768 87 l 768 0 q 727 -10 747 -7 q 692 -14 708 -14 l 692 -14 q 598 18 630 -14 q 562 118 566 50 l 562 118 l 560 118 q 474 19 524 52 q 357 -14 423 -14 l 357 -14 q 275 0 312 -14 q 217 40 238 14 l 217 40 l 217 -288 z "},"∂":{"ha":686,"x_min":38,"x_max":647,"o":"m 647 636 l 647 636 q 636 483 647 565 q 604 321 625 400 q 549 178 582 241 l 549 178 q 264 -18 447 -18 l 264 -18 q 96 51 155 -18 q 38 241 38 119 l 38 241 q 81 462 38 355 l 81 462 q 194 625 124 570 q 349 681 264 681 l 349 681 q 451 647 406 681 q 518 557 496 614 l 518 557 l 521 557 q 523 596 522 576 q 524 636 524 616 l 524 636 q 479 840 524 769 q 348 911 435 911 l 348 911 q 270 897 312 911 q 197 860 229 884 l 197 860 l 222 960 q 374 1002 298 1002 l 374 1002 q 577 907 507 1002 q 647 636 647 812 z m 504 461 l 504 461 q 455 560 492 521 q 372 599 418 599 l 372 599 q 271 554 317 599 l 271 554 q 218 474 241 524 q 180 363 194 423 q 167 243 167 302 l 167 243 q 197 119 167 165 q 283 74 228 74 l 283 74 q 382 125 336 74 q 459 263 427 176 q 504 461 492 351 z "},"∑":{"ha":990,"x_min":104,"x_max":901,"o":"m 270 -191 l 901 -191 l 901 -294 l 104 -294 l 104 -220 l 535 333 l 115 884 l 115 956 l 854 956 l 854 852 l 281 852 l 677 334 l 270 -191 z "},"∏":{"ha":1143,"x_min":159,"x_max":985,"o":"m 860 846 l 289 846 l 289 -294 l 159 -294 l 159 956 l 985 956 l 985 -294 l 860 -294 l 860 846 z "},"∫":{"ha":380,"x_min":-66,"x_max":448,"o":"m 24 -294 l 24 -294 q -25 -291 -3 -294 q -66 -281 -47 -288 l -66 -281 l -66 -182 q 13 -198 -26 -198 l 13 -198 q 130 -40 130 -198 l 130 -40 l 128 782 q 187 960 128 899 q 359 1022 246 1022 l 359 1022 q 448 1010 418 1022 l 448 1010 l 448 909 q 370 928 414 928 l 370 928 q 283 887 313 928 q 253 770 253 847 l 253 770 l 253 -54 q 194 -232 253 -170 q 24 -294 135 -294 z "},"ª":{"ha":514,"x_min":18,"x_max":519,"o":"m 176 441 l 176 441 q 60 481 103 441 q 18 590 18 520 l 18 590 q 229 754 18 751 l 229 754 l 350 757 l 350 798 q 326 878 350 852 q 248 903 302 903 l 248 903 q 175 883 202 903 q 141 811 147 863 l 141 811 l 40 818 q 105 930 51 890 q 246 971 159 971 l 246 971 q 396 929 345 971 q 447 802 447 886 l 447 802 l 447 593 q 456 536 447 553 q 490 519 466 519 l 490 519 q 504 521 496 519 q 519 525 511 522 l 519 525 l 519 454 q 463 446 486 446 l 463 446 q 386 471 413 446 q 355 541 358 497 l 355 541 l 353 541 q 176 441 303 441 z m 203 517 l 203 517 q 307 557 264 517 q 350 650 350 597 l 350 650 l 350 694 l 256 692 q 148 665 176 688 q 119 599 119 643 l 119 599 q 203 517 119 517 z "},"º":{"ha":507,"x_min":18,"x_max":490,"o":"m 490 707 l 490 707 q 431 510 490 579 q 252 441 371 441 l 252 441 q 78 510 138 441 q 18 707 18 578 l 18 707 q 79 903 18 835 q 255 971 139 971 l 255 971 q 431 905 372 971 q 490 707 490 839 z m 389 707 l 389 707 q 358 856 389 811 q 257 900 328 900 l 257 900 q 153 854 184 900 q 121 707 121 808 l 121 707 q 152 561 121 608 q 252 513 183 513 l 252 513 q 358 559 327 513 q 389 707 389 606 z "},"Ω":{"ha":1067,"x_min":73,"x_max":993,"o":"m 533 970 l 533 970 q 769 919 670 970 q 921 772 867 867 q 974 543 974 676 l 974 543 q 901 292 974 407 q 686 98 828 176 l 686 98 q 757 104 722 102 q 827 106 792 106 l 827 106 l 993 106 l 993 0 l 593 0 l 593 152 q 778 313 715 216 q 842 534 842 410 l 842 534 q 761 778 842 692 q 534 864 680 864 l 534 864 q 305 778 386 864 q 224 534 224 692 l 224 534 q 288 314 224 410 q 473 152 351 217 l 473 152 l 473 0 l 73 0 l 73 106 l 239 106 q 309 103 274 106 q 380 98 345 100 l 380 98 q 165 291 239 175 q 92 543 92 406 l 92 543 q 145 772 92 676 q 297 919 199 867 q 533 970 396 970 z "},"æ":{"ha":1235,"x_min":45,"x_max":1173,"o":"m 1046 191 l 1154 160 q 854 -14 1088 -14 l 854 -14 q 568 161 637 -14 l 568 161 q 443 26 514 66 q 273 -14 372 -14 l 273 -14 q 102 45 159 -14 q 45 205 45 103 l 45 205 q 370 445 45 440 l 370 445 l 533 448 l 533 488 q 495 617 533 579 q 376 654 458 654 l 376 654 q 252 627 290 654 q 205 538 214 600 l 205 538 l 77 549 q 168 698 93 648 q 378 747 243 747 l 378 747 q 615 653 548 747 l 615 653 q 850 747 695 747 l 850 747 q 1093 650 1012 747 q 1173 357 1173 552 l 1173 357 l 1173 341 l 656 341 q 708 144 656 210 q 854 78 760 78 l 854 78 q 982 110 934 78 q 1046 191 1029 142 l 1046 191 z m 658 435 l 1047 435 q 988 604 1037 551 q 848 657 939 657 l 848 657 q 712 599 762 657 q 658 435 662 541 l 658 435 z m 170 203 l 170 203 q 204 111 170 144 q 301 78 238 78 l 301 78 q 422 109 371 78 l 422 109 q 504 191 475 138 q 533 302 533 243 l 533 302 l 533 362 l 401 359 q 263 340 312 357 l 263 340 q 193 287 216 321 q 170 203 170 253 z "},"ø":{"ha":848,"x_min":30,"x_max":817,"o":"m 754 368 l 754 368 q 669 81 754 175 q 423 -14 585 -14 l 423 -14 q 211 53 292 -14 l 211 53 l 143 -26 l 30 -26 l 155 119 q 98 368 98 214 l 98 368 q 181 652 98 557 q 427 747 263 747 l 427 747 q 642 686 564 747 l 642 686 l 703 757 l 817 757 l 699 621 q 754 368 754 530 z m 227 368 l 227 368 q 243 222 227 280 l 243 222 l 570 602 q 429 657 524 657 l 429 657 q 274 587 322 657 q 227 368 227 517 z m 626 368 l 626 368 q 610 517 626 454 l 610 517 l 283 136 q 422 77 328 77 l 422 77 q 579 147 532 77 q 626 368 626 218 z "},"¿":{"ha":848,"x_min":89,"x_max":753,"o":"m 380 734 l 513 734 l 513 597 l 380 597 l 380 734 z m 89 34 l 89 34 q 123 165 89 111 q 237 279 157 220 l 237 279 l 292 319 q 389 478 388 388 l 389 478 l 507 478 q 484 373 506 416 q 428 301 461 331 q 357 245 394 271 l 357 245 q 286 190 319 217 q 233 127 253 163 q 212 39 212 92 l 212 39 q 265 -83 212 -38 q 412 -127 317 -127 l 412 -127 q 563 -80 507 -127 q 628 50 618 -33 l 628 50 l 753 42 q 647 -164 735 -92 q 414 -236 559 -236 l 414 -236 q 176 -164 262 -236 q 89 34 89 -93 z "},"¡":{"ha":463,"x_min":164,"x_max":298,"o":"m 167 734 l 298 734 l 298 597 l 167 597 l 167 734 z m 297 -222 l 164 -222 l 180 465 l 281 465 l 297 -222 z "},"¬":{"ha":811,"x_min":68,"x_max":743,"o":"m 68 511 l 743 511 l 743 122 l 644 122 l 644 412 l 68 412 l 68 511 z "},"√":{"ha":762,"x_min":35,"x_max":761,"o":"m 673 1099 l 761 1099 l 422 -9 l 350 -9 l 158 528 l 35 528 l 35 607 l 218 607 l 382 139 l 673 1099 z "},"ƒ":{"ha":772,"x_min":193,"x_max":579,"o":"m 579 972 l 579 890 q 547 897 568 893 q 503 900 526 900 l 503 900 q 440 874 460 900 q 420 786 420 848 l 420 786 l 420 693 l 563 693 l 563 604 l 418 604 l 418 -309 l 296 -309 l 296 604 l 193 604 l 193 693 l 297 693 l 297 783 q 341 939 297 891 q 475 986 385 986 l 475 986 q 528 983 500 986 q 579 972 555 979 l 579 972 z "},"≈":{"ha":762,"x_min":38,"x_max":724,"o":"m 548 514 l 548 514 q 452 529 501 514 q 353 561 403 543 l 353 561 q 206 591 263 591 l 206 591 q 125 579 163 591 q 38 532 86 566 l 38 532 l 38 629 q 216 686 115 686 l 216 686 q 266 683 240 686 q 318 672 291 679 q 376 654 346 665 l 376 654 q 489 616 450 627 q 559 606 528 606 l 559 606 q 724 669 648 606 l 724 669 l 724 568 q 645 527 685 540 q 548 514 606 514 z m 548 228 l 548 228 q 452 243 501 228 q 353 275 403 258 l 353 275 q 206 307 262 307 l 206 307 q 121 293 161 307 q 38 248 82 279 l 38 248 l 38 343 q 216 400 113 400 l 216 400 q 294 390 252 400 q 410 357 336 380 l 410 357 q 451 344 424 353 q 509 328 479 335 q 559 321 538 321 l 559 321 q 724 383 646 321 l 724 383 l 724 283 q 641 240 680 252 q 548 228 603 228 z "},"∆":{"ha":850,"x_min":3,"x_max":847,"o":"m 847 0 l 3 0 l 3 96 l 354 956 l 501 956 l 847 96 l 847 0 z m 426 858 l 426 858 q 398 765 411 804 q 370 689 385 725 l 370 689 l 140 106 l 711 106 l 482 690 q 456 761 469 724 q 435 825 444 798 q 426 858 427 852 z "},"«":{"ha":772,"x_min":56,"x_max":716,"o":"m 486 364 l 716 115 l 716 96 l 601 96 l 372 343 l 372 386 l 601 637 l 715 637 l 715 616 l 486 364 z m 170 364 l 399 115 l 399 96 l 284 96 l 56 343 l 56 386 l 284 637 l 397 637 l 397 616 l 170 364 z "},"»":{"ha":772,"x_min":56,"x_max":716,"o":"m 716 343 l 487 96 l 373 96 l 373 115 l 602 364 l 374 616 l 374 637 l 487 637 l 716 386 l 716 343 z m 399 343 l 172 96 l 56 96 l 56 115 l 286 364 l 58 616 l 58 637 l 172 637 l 399 386 l 399 343 z "},"…":{"ha":1389,"x_min":189,"x_max":1200,"o":"m 1069 149 l 1200 149 l 1200 0 l 1069 0 l 1069 149 z m 630 149 l 760 149 l 760 0 l 630 0 l 630 149 z m 189 149 l 321 149 l 321 0 l 189 0 l 189 149 z "},"À":{"ha":926,"x_min":3,"x_max":924,"o":"m 682 279 l 247 279 l 137 0 l 3 0 l 393 956 l 540 956 l 924 0 l 791 0 l 682 279 z m 465 858 l 465 858 q 437 773 453 820 q 408 692 421 727 l 408 692 l 286 380 l 644 380 l 521 696 q 496 763 511 720 q 465 858 480 806 z m 439 1204 l 586 1051 l 586 1038 l 509 1038 l 298 1185 l 298 1204 l 439 1204 z "},"Ã":{"ha":926,"x_min":3,"x_max":924,"o":"m 682 279 l 247 279 l 137 0 l 3 0 l 393 956 l 540 956 l 924 0 l 791 0 l 682 279 z m 465 858 l 465 858 q 437 773 453 820 q 408 692 421 727 l 408 692 l 286 380 l 644 380 l 521 696 q 496 763 511 720 q 465 858 480 806 z m 571 1038 l 571 1038 q 519 1049 545 1038 q 467 1075 492 1061 l 467 1075 q 413 1104 439 1090 q 363 1118 387 1118 l 363 1118 q 308 1097 326 1118 q 283 1038 290 1076 l 283 1038 l 222 1038 q 269 1181 233 1143 q 359 1219 305 1219 l 359 1219 q 418 1206 389 1219 q 475 1176 447 1192 l 475 1176 q 523 1150 500 1162 q 566 1139 547 1139 l 566 1139 q 620 1159 600 1139 q 646 1219 640 1179 l 646 1219 l 708 1219 q 663 1078 696 1119 q 571 1038 629 1038 z "},"Õ":{"ha":1080,"x_min":66,"x_max":1014,"o":"m 1014 482 l 1014 482 q 956 218 1014 329 q 791 46 898 106 q 539 -14 685 -14 l 539 -14 q 287 46 393 -14 q 123 217 180 106 q 66 482 66 328 l 66 482 q 122 744 66 635 q 285 911 179 853 q 541 970 391 970 l 541 970 q 793 912 687 970 q 957 746 899 854 q 1014 482 1014 637 z m 882 482 l 882 482 q 792 762 882 661 q 541 864 703 864 l 541 864 q 287 764 376 864 q 197 482 197 663 l 197 482 q 238 275 197 363 q 355 139 279 187 q 539 92 432 92 l 539 92 q 793 194 705 92 q 882 482 882 296 z m 638 1038 l 638 1038 q 586 1049 612 1038 q 534 1075 559 1061 l 534 1075 q 480 1104 506 1090 q 431 1118 454 1118 l 431 1118 q 375 1097 393 1118 q 351 1038 357 1076 l 351 1038 l 289 1038 q 336 1181 300 1143 q 427 1219 372 1219 l 427 1219 q 485 1206 456 1219 q 542 1176 514 1192 l 542 1176 q 590 1150 567 1162 q 633 1139 614 1139 l 633 1139 q 687 1159 667 1139 q 713 1219 707 1179 l 713 1219 l 775 1219 q 730 1078 764 1119 q 638 1038 696 1038 z "},"Œ":{"ha":1389,"x_min":66,"x_max":1328,"o":"m 1328 0 l 677 0 q 619 -5 654 -3 q 535 -7 583 -7 l 535 -7 q 284 52 389 -7 q 122 221 178 111 q 66 482 66 331 l 66 482 q 122 740 66 633 q 284 905 178 848 q 536 963 389 963 l 536 963 q 609 961 572 963 q 680 956 645 959 l 680 956 l 1300 956 l 1300 850 l 755 850 l 755 543 l 1259 543 l 1259 439 l 755 439 l 755 106 l 1328 106 l 1328 0 z m 626 101 l 626 854 q 571 857 595 857 q 536 857 547 857 l 536 857 q 284 760 370 857 q 197 482 197 663 l 197 482 q 287 199 197 300 q 535 98 376 98 l 535 98 q 586 99 563 98 q 626 101 608 100 l 626 101 z "},"œ":{"ha":1311,"x_min":58,"x_max":1249,"o":"m 1249 341 l 726 341 q 778 146 726 215 q 930 78 830 78 l 930 78 q 1058 110 1010 78 q 1122 191 1105 142 l 1122 191 l 1230 160 q 930 -14 1164 -14 l 930 -14 q 662 111 745 -14 l 662 111 q 390 -14 578 -14 l 390 -14 q 143 84 229 -14 q 58 368 58 182 l 58 368 q 144 652 58 557 q 394 747 230 747 l 394 747 q 664 627 585 747 l 664 627 q 926 747 749 747 l 926 747 q 1168 650 1088 747 q 1249 357 1249 552 l 1249 357 l 1249 341 z m 597 368 l 597 368 q 551 587 597 516 q 396 657 504 657 l 396 657 q 236 585 286 657 q 186 368 186 513 l 186 368 q 237 150 186 222 q 389 77 288 77 l 389 77 q 549 147 500 77 q 597 368 597 218 z m 924 657 l 924 657 q 783 598 835 657 q 727 435 731 538 l 727 435 l 1123 435 q 1064 604 1113 551 q 924 657 1015 657 z "},"–":{"ha":772,"x_min":0,"x_max":772,"o":"m 0 399 l 772 399 l 772 306 l 0 306 l 0 399 z "},"—":{"ha":1389,"x_min":0,"x_max":1389,"o":"m 0 399 l 1389 399 l 1389 306 l 0 306 l 0 399 z "},"“":{"ha":463,"x_min":51,"x_max":412,"o":"m 348 778 l 408 778 l 408 646 l 276 646 l 276 745 q 288 860 276 809 q 329 956 300 910 l 329 956 l 412 956 q 364 865 380 909 q 348 778 348 821 l 348 778 z m 123 778 l 183 778 l 183 646 l 51 646 l 51 745 q 63 860 51 810 q 105 956 76 910 l 105 956 l 187 956 q 139 865 155 909 q 123 778 123 820 l 123 778 z "},"”":{"ha":463,"x_min":51,"x_max":412,"o":"m 412 956 l 412 857 q 400 745 412 794 q 358 646 389 695 l 358 646 l 276 646 q 340 823 340 738 l 340 823 l 280 823 l 280 956 l 412 956 z m 187 956 l 187 857 q 174 738 187 786 q 134 646 161 689 l 134 646 l 51 646 q 115 823 115 738 l 115 823 l 55 823 l 55 956 l 187 956 z "},"‘":{"ha":309,"x_min":86,"x_max":222,"o":"m 158 778 l 218 778 l 218 646 l 86 646 l 86 745 q 99 860 86 810 q 140 956 111 910 l 140 956 l 222 956 q 174 865 191 909 q 158 778 158 820 l 158 778 z "},"’":{"ha":309,"x_min":86,"x_max":222,"o":"m 222 956 l 222 857 q 210 738 222 786 q 170 646 197 689 l 170 646 l 86 646 q 150 822 150 738 l 150 822 l 90 822 l 90 956 l 222 956 z "},"÷":{"ha":762,"x_min":44,"x_max":719,"o":"m 324 774 l 438 774 l 438 650 l 324 650 l 324 774 z m 44 511 l 719 511 l 719 412 l 44 412 l 44 511 z m 324 275 l 438 275 l 438 151 l 324 151 l 324 275 z "},"◊":{"ha":686,"x_min":5,"x_max":682,"o":"m 371 977 l 682 489 l 371 0 l 315 0 l 5 488 l 315 977 l 371 977 z m 345 872 l 104 489 l 345 100 l 583 489 l 345 872 z "},"ÿ":{"ha":694,"x_min":3,"x_max":692,"o":"m 130 -288 l 130 -288 q 45 -281 81 -288 l 45 -281 l 45 -189 q 102 -193 71 -193 l 102 -193 q 208 -151 159 -193 q 294 3 256 -109 l 294 3 l 3 734 l 134 734 l 288 328 q 325 230 305 285 q 355 133 344 175 l 355 133 q 389 229 372 181 q 422 323 406 276 l 422 323 l 563 734 l 692 734 l 410 0 q 366 -102 387 -58 q 325 -174 345 -146 l 325 -174 q 238 -260 286 -232 q 130 -288 190 -288 z m 425 951 l 535 951 l 535 827 l 425 827 l 425 951 z m 157 951 l 269 951 l 269 827 l 157 827 l 157 951 z "},"Ÿ":{"ha":926,"x_min":31,"x_max":896,"o":"m 896 956 l 527 396 l 527 0 l 398 0 l 398 396 l 31 956 l 173 956 l 464 500 l 753 956 l 896 956 z m 542 1162 l 652 1162 l 652 1038 l 542 1038 l 542 1162 z m 275 1162 l 387 1162 l 387 1038 l 275 1038 l 275 1162 z "},"⁄":{"ha":232,"x_min":-282,"x_max":414,"o":"m 315 956 l 414 956 l -182 0 l -282 0 l 315 956 z "},"∕":{"ha":232,"x_min":-282,"x_max":414,"o":"m 315 956 l 414 956 l -182 0 l -282 0 l 315 956 z "},"€":{"ha":772,"x_min":11,"x_max":753,"o":"m 469 85 l 469 85 q 577 119 536 85 q 627 215 618 153 l 627 215 l 753 205 q 658 43 732 100 q 466 -14 584 -14 l 466 -14 q 127 340 168 -14 l 127 340 l 11 340 l 38 428 l 119 428 q 118 455 119 441 q 117 481 117 468 l 117 481 q 118 510 117 496 q 119 539 119 524 l 119 539 l 11 539 l 38 625 l 125 625 q 464 970 169 970 l 464 970 q 657 912 583 970 q 751 751 731 855 l 751 751 l 625 741 q 575 837 616 803 q 462 871 534 871 l 462 871 q 314 812 366 871 q 249 625 263 753 l 249 625 l 551 625 l 524 539 l 244 539 q 243 516 243 531 q 242 481 242 502 l 242 481 q 243 454 242 467 q 245 428 243 441 l 245 428 l 551 428 l 524 340 l 250 340 q 320 147 265 208 q 469 85 375 85 z "},"‹":{"ha":463,"x_min":60,"x_max":402,"o":"m 174 364 l 402 115 l 402 96 l 288 96 l 60 343 l 60 386 l 288 637 l 401 637 l 401 616 l 174 364 z "},"›":{"ha":463,"x_min":60,"x_max":403,"o":"m 174 96 l 60 96 l 60 115 l 290 364 l 62 616 l 62 637 l 174 637 l 403 386 l 403 343 l 174 96 z "},"":{"ha":694,"x_min":20,"x_max":601,"o":"m 479 1006 l 601 1006 l 601 890 l 479 890 l 479 1006 z m 388 645 l 245 645 l 245 0 l 123 0 l 123 645 l 20 645 l 20 734 l 123 734 l 123 817 q 167 961 123 917 q 302 1005 211 1005 l 302 1005 q 388 997 353 1005 l 388 997 l 388 904 q 334 909 355 909 l 334 909 q 266 886 287 909 q 245 800 245 862 l 245 800 l 245 734 l 388 734 l 388 645 z m 479 734 l 601 734 l 601 0 l 479 0 l 479 734 z "},"ﬁ":{"ha":694,"x_min":20,"x_max":601,"o":"m 479 1006 l 601 1006 l 601 890 l 479 890 l 479 1006 z m 388 645 l 245 645 l 245 0 l 123 0 l 123 645 l 20 645 l 20 734 l 123 734 l 123 817 q 167 961 123 917 q 302 1005 211 1005 l 302 1005 q 388 997 353 1005 l 388 997 l 388 904 q 334 909 355 909 l 334 909 q 266 886 287 909 q 245 800 245 862 l 245 800 l 245 734 l 388 734 l 388 645 z m 479 734 l 601 734 l 601 0 l 479 0 l 479 734 z "},"":{"ha":694,"x_min":20,"x_max":602,"o":"m 479 1006 l 602 1006 l 602 0 l 479 0 l 479 1006 z m 388 645 l 245 645 l 245 0 l 123 0 l 123 645 l 20 645 l 20 734 l 123 734 l 123 817 q 167 961 123 917 q 302 1005 211 1005 l 302 1005 q 388 997 353 1005 l 388 997 l 388 904 q 334 909 355 909 l 334 909 q 266 886 287 909 q 245 800 245 862 l 245 800 l 245 734 l 388 734 l 388 645 z "},"ﬂ":{"ha":694,"x_min":20,"x_max":602,"o":"m 479 1006 l 602 1006 l 602 0 l 479 0 l 479 1006 z m 388 645 l 245 645 l 245 0 l 123 0 l 123 645 l 20 645 l 20 734 l 123 734 l 123 817 q 167 961 123 917 q 302 1005 211 1005 l 302 1005 q 388 997 353 1005 l 388 997 l 388 904 q 334 909 355 909 l 334 909 q 266 886 287 909 q 245 800 245 862 l 245 800 l 245 734 l 388 734 l 388 645 z "},"‡":{"ha":772,"x_min":92,"x_max":679,"o":"m 678 140 l 434 159 l 445 -96 l 326 -96 l 337 159 l 92 140 l 92 251 l 337 233 l 355 454 l 337 678 l 93 660 l 93 771 l 337 751 l 326 1006 l 445 1006 l 434 751 l 679 771 l 679 660 l 434 678 l 416 454 l 434 233 l 678 251 l 678 140 z "},"∙":{"ha":386,"x_min":127,"x_max":259,"o":"m 127 452 l 259 452 l 259 302 l 127 302 l 127 452 z "},"‚":{"ha":309,"x_min":86,"x_max":222,"o":"m 222 132 l 222 35 q 210 -85 222 -37 q 170 -178 197 -134 l 170 -178 l 86 -178 q 134 -87 118 -132 q 150 0 150 -43 l 150 0 l 90 0 l 90 132 l 222 132 z "},"„":{"ha":463,"x_min":51,"x_max":412,"o":"m 412 132 l 412 35 q 400 -80 412 -30 q 358 -178 388 -130 l 358 -178 l 276 -178 q 324 -87 308 -132 q 340 0 340 -43 l 340 0 l 280 0 l 280 132 l 412 132 z m 187 132 l 187 35 q 174 -85 187 -37 q 134 -178 161 -134 l 134 -178 l 51 -178 q 99 -87 83 -132 q 115 0 115 -43 l 115 0 l 55 0 l 55 132 l 187 132 z "},"‰":{"ha":1389,"x_min":37,"x_max":1351,"o":"m 241 964 l 241 964 q 392 902 343 964 q 440 719 440 840 l 440 719 q 389 534 440 597 q 239 471 337 471 l 239 471 q 88 534 138 471 q 37 719 37 598 l 37 719 q 86 903 37 842 q 241 964 136 964 z m 726 956 l 833 956 l 206 0 l 101 0 l 726 956 z m 340 719 l 340 719 q 318 850 340 809 q 241 890 295 890 l 241 890 q 161 850 184 890 q 137 719 137 810 l 137 719 q 162 588 137 629 q 240 547 186 547 l 240 547 q 316 589 291 547 q 340 719 340 631 z m 708 486 l 708 486 q 858 424 810 486 q 907 241 907 361 l 907 241 q 855 56 907 119 q 705 -7 804 -7 l 705 -7 q 554 56 605 -7 q 504 241 504 120 l 504 241 q 553 425 504 363 q 708 486 602 486 z m 1152 486 l 1152 486 q 1302 424 1254 486 q 1351 241 1351 361 l 1351 241 q 1299 56 1351 119 q 1149 -7 1248 -7 l 1149 -7 q 999 56 1049 -7 q 948 241 948 120 l 948 241 q 997 425 948 363 q 1152 486 1046 486 z m 807 241 l 807 241 q 784 372 807 331 q 708 412 762 412 l 708 412 q 627 372 651 412 q 604 241 604 332 l 604 241 q 628 110 604 151 q 707 69 653 69 l 707 69 q 782 111 758 69 q 807 241 807 153 z m 1251 241 l 1251 241 q 1229 372 1251 331 q 1152 412 1206 412 l 1152 412 q 1072 372 1095 412 q 1048 241 1048 332 l 1048 241 q 1073 110 1048 151 q 1151 69 1097 69 l 1151 69 q 1226 111 1202 69 q 1251 241 1251 153 z "},"Â":{"ha":926,"x_min":3,"x_max":924,"o":"m 682 279 l 247 279 l 137 0 l 3 0 l 393 956 l 540 956 l 924 0 l 791 0 l 682 279 z m 465 858 l 465 858 q 437 773 453 820 q 408 692 421 727 l 408 692 l 286 380 l 644 380 l 521 696 q 496 763 511 720 q 465 858 480 806 z m 309 1038 l 239 1038 l 239 1051 l 397 1214 l 536 1214 l 688 1051 l 688 1038 l 616 1038 l 468 1132 l 467 1132 l 309 1038 z "},"Ê":{"ha":926,"x_min":114,"x_max":867,"o":"m 243 106 l 867 106 l 867 0 l 114 0 l 114 956 l 839 956 l 839 850 l 243 850 l 243 543 l 798 543 l 798 439 l 243 439 l 243 106 z m 325 1038 l 254 1038 l 254 1051 l 413 1214 l 551 1214 l 703 1051 l 703 1038 l 632 1038 l 484 1132 l 482 1132 l 325 1038 z "},"Á":{"ha":926,"x_min":3,"x_max":924,"o":"m 682 279 l 247 279 l 137 0 l 3 0 l 393 956 l 540 956 l 924 0 l 791 0 l 682 279 z m 465 858 l 465 858 q 437 773 453 820 q 408 692 421 727 l 408 692 l 286 380 l 644 380 l 521 696 q 496 763 511 720 q 465 858 480 806 z m 659 1204 l 659 1185 l 448 1038 l 371 1038 l 371 1051 l 518 1204 l 659 1204 z "},"Ë":{"ha":926,"x_min":114,"x_max":867,"o":"m 243 106 l 867 106 l 867 0 l 114 0 l 114 956 l 839 956 l 839 850 l 243 850 l 243 543 l 798 543 l 798 439 l 243 439 l 243 106 z m 553 1162 l 664 1162 l 664 1038 l 553 1038 l 553 1162 z m 286 1162 l 398 1162 l 398 1038 l 286 1038 l 286 1162 z "},"È":{"ha":926,"x_min":114,"x_max":867,"o":"m 243 106 l 867 106 l 867 0 l 114 0 l 114 956 l 839 956 l 839 850 l 243 850 l 243 543 l 798 543 l 798 439 l 243 439 l 243 106 z m 429 1204 l 576 1051 l 576 1038 l 498 1038 l 288 1185 l 288 1204 l 429 1204 z "},"Í":{"ha":386,"x_min":96,"x_max":384,"o":"m 128 956 l 258 956 l 258 0 l 128 0 l 128 956 z m 384 1204 l 384 1185 l 174 1038 l 96 1038 l 96 1051 l 243 1204 l 384 1204 z "},"Î":{"ha":386,"x_min":-31,"x_max":418,"o":"m 128 956 l 258 956 l 258 0 l 128 0 l 128 956 z m 39 1038 l -31 1038 l -31 1051 l 127 1214 l 266 1214 l 418 1051 l 418 1038 l 347 1038 l 198 1132 l 197 1132 l 39 1038 z "},"Ï":{"ha":386,"x_min":5,"x_max":382,"o":"m 128 956 l 258 956 l 258 0 l 128 0 l 128 956 z m 272 1162 l 382 1162 l 382 1038 l 272 1038 l 272 1162 z m 5 1162 l 117 1162 l 117 1038 l 5 1038 l 5 1162 z "},"Ì":{"ha":386,"x_min":6,"x_max":294,"o":"m 128 956 l 258 956 l 258 0 l 128 0 l 128 956 z m 146 1204 l 294 1051 l 294 1038 l 216 1038 l 6 1185 l 6 1204 l 146 1204 z "},"Ó":{"ha":1080,"x_min":66,"x_max":1014,"o":"m 1014 482 l 1014 482 q 956 218 1014 329 q 791 46 898 106 q 539 -14 685 -14 l 539 -14 q 287 46 393 -14 q 123 217 180 106 q 66 482 66 328 l 66 482 q 122 744 66 635 q 285 911 179 853 q 541 970 391 970 l 541 970 q 793 912 687 970 q 957 746 899 854 q 1014 482 1014 637 z m 882 482 l 882 482 q 792 762 882 661 q 541 864 703 864 l 541 864 q 287 764 376 864 q 197 482 197 663 l 197 482 q 238 275 197 363 q 355 139 279 187 q 539 92 432 92 l 539 92 q 793 194 705 92 q 882 482 882 296 z m 709 1204 l 709 1185 l 498 1038 l 421 1038 l 421 1051 l 568 1204 l 709 1204 z "},"Ô":{"ha":1080,"x_min":66,"x_max":1014,"o":"m 1014 482 l 1014 482 q 956 218 1014 329 q 791 46 898 106 q 539 -14 685 -14 l 539 -14 q 287 46 393 -14 q 123 217 180 106 q 66 482 66 328 l 66 482 q 122 744 66 635 q 285 911 179 853 q 541 970 391 970 l 541 970 q 793 912 687 970 q 957 746 899 854 q 1014 482 1014 637 z m 882 482 l 882 482 q 792 762 882 661 q 541 864 703 864 l 541 864 q 287 764 376 864 q 197 482 197 663 l 197 482 q 238 275 197 363 q 355 139 279 187 q 539 92 432 92 l 539 92 q 793 194 705 92 q 882 482 882 296 z m 389 1038 l 318 1038 l 318 1051 l 477 1214 l 615 1214 l 767 1051 l 767 1038 l 696 1038 l 547 1132 l 546 1132 l 389 1038 z "},"Ò":{"ha":1080,"x_min":66,"x_max":1014,"o":"m 1014 482 l 1014 482 q 956 218 1014 329 q 791 46 898 106 q 539 -14 685 -14 l 539 -14 q 287 46 393 -14 q 123 217 180 106 q 66 482 66 328 l 66 482 q 122 744 66 635 q 285 911 179 853 q 541 970 391 970 l 541 970 q 793 912 687 970 q 957 746 899 854 q 1014 482 1014 637 z m 882 482 l 882 482 q 792 762 882 661 q 541 864 703 864 l 541 864 q 287 764 376 864 q 197 482 197 663 l 197 482 q 238 275 197 363 q 355 139 279 187 q 539 92 432 92 l 539 92 q 793 194 705 92 q 882 482 882 296 z m 509 1204 l 656 1051 l 656 1038 l 579 1038 l 369 1185 l 369 1204 l 509 1204 z "},"Ú":{"ha":1003,"x_min":107,"x_max":896,"o":"m 496 -14 l 496 -14 q 291 30 378 -14 q 155 154 203 73 q 107 347 107 235 l 107 347 l 107 956 l 237 956 l 237 358 q 303 159 237 227 q 495 92 370 92 l 495 92 q 695 162 624 92 q 767 367 767 232 l 767 367 l 767 956 l 896 956 l 896 359 q 847 160 896 243 q 708 32 798 77 q 496 -14 618 -14 z m 671 1204 l 671 1185 l 460 1038 l 383 1038 l 383 1051 l 530 1204 l 671 1204 z "},"Û":{"ha":1003,"x_min":107,"x_max":896,"o":"m 496 -14 l 496 -14 q 291 30 378 -14 q 155 154 203 73 q 107 347 107 235 l 107 347 l 107 956 l 237 956 l 237 358 q 303 159 237 227 q 495 92 370 92 l 495 92 q 695 162 624 92 q 767 367 767 232 l 767 367 l 767 956 l 896 956 l 896 359 q 847 160 896 243 q 708 32 798 77 q 496 -14 618 -14 z m 347 1038 l 277 1038 l 277 1051 l 435 1214 l 574 1214 l 726 1051 l 726 1038 l 654 1038 l 506 1132 l 505 1132 l 347 1038 z "},"Ù":{"ha":1003,"x_min":107,"x_max":896,"o":"m 496 -14 l 496 -14 q 291 30 378 -14 q 155 154 203 73 q 107 347 107 235 l 107 347 l 107 956 l 237 956 l 237 358 q 303 159 237 227 q 495 92 370 92 l 495 92 q 695 162 624 92 q 767 367 767 232 l 767 367 l 767 956 l 896 956 l 896 359 q 847 160 896 243 q 708 32 798 77 q 496 -14 618 -14 z m 481 1204 l 629 1051 l 629 1038 l 551 1038 l 341 1185 l 341 1204 l 481 1204 z "},"ı":{"ha":386,"x_min":132,"x_max":254,"o":"m 132 734 l 254 734 l 254 0 l 132 0 l 132 734 z "},"ˆ":{"ha":463,"x_min":1,"x_max":450,"o":"m 71 814 l 1 814 l 1 828 l 159 1011 l 298 1011 l 450 828 l 450 814 l 378 814 l 230 929 l 229 929 l 71 814 z "},"˜":{"ha":463,"x_min":-16,"x_max":471,"o":"m 334 814 l 334 814 q 279 827 307 814 q 225 854 252 840 l 225 854 q 173 883 198 870 q 126 895 148 895 l 126 895 q 71 874 89 895 q 46 814 52 853 l 46 814 l -16 814 q 31 957 -4 918 q 122 996 66 996 l 122 996 q 181 982 152 996 q 239 952 211 968 l 239 952 q 287 927 264 938 q 329 916 309 916 l 329 916 q 383 936 363 916 q 408 996 403 956 l 408 996 l 471 996 q 425 855 459 896 q 334 814 391 814 z "},"ˉ":{"ha":463,"x_min":35,"x_max":407,"o":"m 35 838 l 35 924 l 407 924 l 407 838 l 35 838 z "},"˘":{"ha":463,"x_min":-24,"x_max":428,"o":"m 201 814 l 201 814 q 50 872 112 814 q -24 1024 -12 930 l -24 1024 l 56 1024 q 102 946 65 972 q 203 920 139 920 l 203 920 q 302 946 266 920 q 349 1024 339 972 l 349 1024 l 428 1024 q 353 871 414 928 q 201 814 292 814 z "},"˙":{"ha":463,"x_min":106,"x_max":228,"o":"m 106 1006 l 228 1006 l 228 890 l 106 890 l 106 1006 z "},"˚":{"ha":463,"x_min":35,"x_max":363,"o":"m 363 956 l 363 956 q 340 874 363 911 q 281 814 318 837 q 199 792 244 792 l 199 792 q 117 814 154 792 q 57 874 79 837 q 35 956 35 911 l 35 956 q 57 1039 35 1002 q 117 1098 79 1076 q 199 1120 154 1120 l 199 1120 q 281 1098 243 1120 q 340 1039 318 1076 q 363 956 363 1002 z m 290 956 l 290 956 q 263 1021 290 994 q 199 1047 237 1047 l 199 1047 q 134 1021 160 1047 q 107 956 107 994 l 107 956 q 133 891 107 919 q 199 863 159 863 l 199 863 q 264 891 238 863 q 290 956 290 918 z "},"¸":{"ha":463,"x_min":81,"x_max":328,"o":"m 328 -172 l 328 -172 q 281 -264 328 -233 q 142 -294 235 -294 l 142 -294 q 81 -292 100 -294 l 81 -292 l 81 -225 q 139 -229 115 -229 l 139 -229 q 239 -174 239 -229 l 239 -174 q 216 -135 239 -149 q 149 -122 194 -122 l 149 -122 q 124 -122 134 -122 q 110 -123 115 -123 l 110 -123 l 154 0 l 227 0 l 200 -68 q 296 -97 264 -70 q 328 -172 328 -125 z "},"˝":{"ha":463,"x_min":15,"x_max":538,"o":"m 79 814 l 15 814 l 15 828 l 162 1023 l 302 1023 l 302 1003 l 79 814 z m 314 814 l 250 814 l 250 828 l 397 1023 l 538 1023 l 538 1003 l 314 814 z "},"˛":{"ha":463,"x_min":54,"x_max":292,"o":"m 292 -199 l 292 -271 q 197 -290 249 -290 l 197 -290 q 90 -255 126 -290 q 54 -163 54 -220 l 54 -163 q 84 -71 54 -115 q 159 0 113 -26 l 159 0 l 250 0 q 181 -62 213 -20 q 150 -154 150 -104 l 150 -154 q 166 -199 150 -182 q 214 -215 183 -215 l 214 -215 q 292 -199 250 -215 l 292 -199 z "},"ˇ":{"ha":463,"x_min":0,"x_max":449,"o":"m 449 1011 l 449 998 l 297 814 l 159 814 l 0 998 l 0 1011 l 71 1011 l 228 897 l 229 897 l 378 1011 l 449 1011 z "},"Ł":{"ha":772,"x_min":14,"x_max":726,"o":"m 726 0 l 114 0 l 114 365 l 14 307 l 14 414 l 114 472 l 114 956 l 243 956 l 243 547 l 418 647 l 418 541 l 243 439 l 243 106 l 726 106 l 726 0 z "},"ł":{"ha":309,"x_min":11,"x_max":300,"o":"m 216 0 l 94 0 l 94 368 l 11 321 l 11 429 l 94 475 l 94 1006 l 216 1006 l 216 545 l 300 594 l 300 486 l 216 438 l 216 0 z "},"Š":{"ha":926,"x_min":63,"x_max":863,"o":"m 863 264 l 863 264 q 759 59 863 132 q 468 -14 656 -14 l 468 -14 q 63 229 119 -14 l 63 229 l 189 254 q 281 128 210 168 q 473 87 351 87 l 473 87 q 666 131 598 87 q 734 257 734 174 l 734 257 q 713 333 734 304 q 653 381 692 362 l 653 381 q 561 413 614 400 q 442 441 507 426 l 442 441 q 316 474 367 458 q 233 508 266 490 q 178 547 201 526 l 178 547 q 126 619 144 578 q 108 714 108 661 l 108 714 q 202 903 108 837 q 471 970 296 970 l 471 970 q 720 920 633 970 q 840 750 806 870 l 840 750 l 713 728 q 633 838 692 804 q 469 872 574 872 l 469 872 q 294 834 355 872 q 234 721 234 796 l 234 721 q 257 648 234 677 q 325 600 281 619 l 325 600 q 500 550 366 580 l 500 550 q 609 523 555 537 q 710 488 663 509 l 710 488 q 763 460 738 477 q 808 422 789 444 l 808 422 q 848 355 833 393 q 863 264 863 316 z m 701 1214 l 701 1200 l 549 1038 l 410 1038 l 252 1200 l 252 1214 l 322 1214 l 479 1120 l 481 1120 l 629 1214 l 701 1214 z "},"š":{"ha":694,"x_min":39,"x_max":644,"o":"m 644 203 l 644 203 q 566 43 644 99 q 347 -14 488 -14 l 347 -14 q 135 32 210 -14 q 39 172 61 77 l 39 172 l 146 193 q 211 107 162 134 q 347 79 260 79 l 347 79 q 483 108 439 79 q 526 193 526 136 l 526 193 q 496 264 526 237 q 399 309 466 291 l 399 309 q 274 343 321 330 q 203 367 228 357 q 163 385 178 376 l 163 385 q 93 448 118 411 q 68 540 68 486 l 68 540 q 139 693 68 640 q 348 745 211 745 l 348 745 q 541 703 469 745 q 631 566 612 660 l 631 566 l 522 552 q 467 627 511 601 q 348 653 422 653 l 348 653 q 226 628 265 653 q 186 552 186 603 l 186 552 q 209 491 186 515 q 294 451 231 467 l 294 451 q 456 407 379 431 q 566 359 532 382 l 566 359 q 624 293 604 331 q 644 203 644 256 z m 566 1011 l 566 998 l 414 814 l 276 814 l 117 998 l 117 1011 l 188 1011 l 345 897 l 347 897 l 495 1011 l 566 1011 z "},"Ž":{"ha":848,"x_min":44,"x_max":805,"o":"m 191 106 l 805 106 l 805 0 l 44 0 l 44 97 l 626 850 l 94 850 l 94 956 l 773 956 l 773 861 l 191 106 z m 661 1214 l 661 1200 l 509 1038 l 370 1038 l 212 1200 l 212 1214 l 282 1214 l 439 1120 l 441 1120 l 589 1214 l 661 1214 z "},"ž":{"ha":694,"x_min":56,"x_max":625,"o":"m 200 94 l 625 94 l 625 0 l 56 0 l 56 93 l 467 640 l 79 640 l 79 734 l 611 734 l 611 641 l 200 94 z m 555 1011 l 555 998 l 403 814 l 264 814 l 106 998 l 106 1011 l 176 1011 l 334 897 l 335 897 l 484 1011 l 555 1011 z "},"¦":{"ha":361,"x_min":124,"x_max":237,"o":"m 124 1006 l 237 1006 l 237 479 l 124 479 l 124 1006 z m 124 234 l 237 234 l 237 -294 l 124 -294 l 124 234 z "},"Ð":{"ha":1003,"x_min":9,"x_max":937,"o":"m 937 488 l 937 488 q 878 227 937 336 q 714 59 819 117 q 471 0 610 0 l 471 0 l 114 0 l 114 439 l 9 439 l 9 543 l 114 543 l 114 956 l 430 956 q 805 834 673 956 q 937 488 937 712 z m 806 488 l 806 488 q 709 759 806 665 q 427 852 612 852 l 427 852 l 243 852 l 243 543 l 519 543 l 519 439 l 243 439 l 243 104 l 456 104 q 643 151 564 104 q 764 283 722 197 q 806 488 806 370 z "},"ð":{"ha":772,"x_min":58,"x_max":721,"o":"m 384 -14 l 384 -14 q 142 74 227 -14 q 58 326 58 161 l 58 326 q 142 578 58 492 q 389 664 227 664 l 389 664 q 545 624 481 664 l 545 624 q 387 848 471 771 l 387 848 l 182 758 l 182 836 l 330 899 q 252 956 293 929 q 166 1006 212 983 l 166 1006 l 308 1006 q 423 937 363 981 l 423 937 l 631 1027 l 630 951 l 487 888 q 662 645 603 783 q 721 350 721 507 l 721 350 q 636 78 721 170 q 384 -14 552 -14 z m 593 326 l 593 326 q 545 515 593 456 q 391 574 497 574 l 391 574 q 236 515 285 574 q 186 326 186 456 l 186 326 q 235 137 186 197 q 382 77 284 77 l 382 77 q 542 136 492 77 q 593 326 593 195 z "},"Ý":{"ha":926,"x_min":31,"x_max":896,"o":"m 896 956 l 527 396 l 527 0 l 398 0 l 398 396 l 31 956 l 173 956 l 464 500 l 753 956 l 896 956 z m 651 1204 l 651 1185 l 441 1038 l 363 1038 l 363 1051 l 511 1204 l 651 1204 z "},"ý":{"ha":694,"x_min":3,"x_max":692,"o":"m 130 -288 l 130 -288 q 45 -281 81 -288 l 45 -281 l 45 -189 q 102 -193 71 -193 l 102 -193 q 208 -151 159 -193 q 294 3 256 -109 l 294 3 l 3 734 l 134 734 l 288 328 q 325 230 305 285 q 355 133 344 175 l 355 133 q 389 229 372 181 q 422 323 406 276 l 422 323 l 563 734 l 692 734 l 410 0 q 366 -102 387 -58 q 325 -174 345 -146 l 325 -174 q 238 -260 286 -232 q 130 -288 190 -288 z m 528 1023 l 528 1003 l 304 814 l 241 814 l 241 828 l 388 1023 l 528 1023 z "},"Þ":{"ha":926,"x_min":114,"x_max":853,"o":"m 853 498 l 853 498 q 813 345 853 412 q 700 240 774 278 q 524 201 626 201 l 524 201 l 243 201 l 243 0 l 114 0 l 114 956 l 243 956 l 243 785 l 516 785 q 766 709 678 785 q 853 498 853 634 z m 723 496 l 723 496 q 667 637 723 587 q 500 688 612 688 l 500 688 l 243 688 l 243 297 l 506 297 q 666 350 610 297 q 723 496 723 402 z "},"þ":{"ha":772,"x_min":94,"x_max":714,"o":"m 216 -1 l 216 -1 l 216 -288 l 94 -288 l 94 1006 l 216 1006 l 216 720 q 215 672 216 698 q 213 616 214 646 l 213 616 l 217 616 q 303 715 250 684 q 444 747 357 747 l 444 747 q 647 656 580 747 q 714 370 714 565 l 714 370 q 647 82 714 178 q 444 -14 579 -14 l 444 -14 q 216 114 275 -14 l 216 114 l 213 114 q 216 -1 216 109 z m 586 368 l 586 368 q 545 587 586 521 q 413 652 503 652 l 413 652 q 263 583 311 652 q 216 358 216 513 l 216 358 q 262 145 216 214 q 412 77 308 77 l 412 77 q 544 143 503 77 q 586 368 586 210 z "},"−":{"ha":811,"x_min":68,"x_max":743,"o":"m 68 511 l 743 511 l 743 412 l 68 412 l 68 511 z "},"×":{"ha":811,"x_min":96,"x_max":715,"o":"m 646 154 l 407 393 l 165 153 l 96 224 l 336 464 l 98 703 l 168 772 l 406 533 l 643 771 l 714 700 l 477 464 l 715 225 l 646 154 z "},"¹":{"ha":463,"x_min":54,"x_max":432,"o":"m 286 454 l 432 454 l 432 382 l 54 382 l 54 454 l 197 454 l 197 875 l 60 781 l 60 863 l 203 956 l 286 956 l 286 454 z "},"²":{"ha":463,"x_min":28,"x_max":436,"o":"m 136 458 l 436 458 l 436 382 l 29 382 l 28 452 q 93 543 49 498 q 209 637 136 587 l 209 637 q 304 722 275 684 q 334 799 334 760 l 334 799 q 310 866 334 841 q 236 892 286 892 l 236 892 q 160 867 190 892 q 125 796 130 842 l 125 796 l 35 802 q 98 919 43 874 q 240 964 153 964 l 240 964 q 377 922 326 964 q 427 806 427 880 l 427 806 q 300 612 427 706 l 300 612 q 229 559 258 582 q 183 520 200 536 l 183 520 q 136 458 148 488 l 136 458 z "},"³":{"ha":463,"x_min":18,"x_max":435,"o":"m 435 539 l 435 539 q 383 417 435 460 q 234 374 330 374 l 234 374 q 83 412 137 374 q 18 528 29 451 l 18 528 l 111 536 q 234 444 123 444 l 234 444 q 342 545 342 444 l 342 545 q 214 637 342 637 l 214 637 l 173 637 l 173 711 l 212 711 q 297 736 266 711 q 328 804 328 760 l 328 804 q 303 868 328 845 q 230 892 278 892 l 230 892 q 155 868 184 892 q 123 800 127 844 l 123 800 l 31 808 q 93 923 40 882 q 233 964 146 964 l 233 964 q 371 923 321 964 q 421 817 421 883 l 421 817 q 392 728 421 766 q 302 677 363 691 l 302 677 l 302 676 q 399 634 363 670 q 435 539 435 599 z "},"½":{"ha":1158,"x_min":38,"x_max":1121,"o":"m 270 454 l 416 454 l 416 382 l 38 382 l 38 454 l 181 454 l 181 875 l 44 781 l 44 863 l 186 956 l 270 956 l 270 454 z m 831 956 l 930 956 l 334 0 l 234 0 l 831 956 z m 821 78 l 1121 78 l 1121 1 l 714 1 l 713 71 q 778 162 734 118 q 894 257 821 207 l 894 257 q 989 341 960 303 q 1019 418 1019 379 l 1019 418 q 995 486 1019 460 q 921 511 971 511 l 921 511 q 845 487 875 511 q 810 416 815 462 l 810 416 l 720 421 q 783 538 728 494 q 925 583 838 583 l 925 583 q 1062 542 1011 583 q 1112 425 1112 500 l 1112 425 q 985 232 1112 326 l 985 232 q 914 178 943 201 q 868 140 885 155 l 868 140 q 821 78 833 107 l 821 78 z "},"¼":{"ha":1158,"x_min":38,"x_max":1095,"o":"m 270 454 l 416 454 l 416 382 l 38 382 l 38 454 l 181 454 l 181 875 l 44 781 l 44 863 l 186 956 l 270 956 l 270 454 z m 831 956 l 930 956 l 334 0 l 234 0 l 831 956 z m 1095 122 l 1019 122 l 1019 1 l 930 1 l 930 122 l 655 122 l 655 197 l 917 575 l 1019 575 l 1019 199 l 1095 199 l 1095 122 z m 932 485 l 932 485 q 911 448 925 471 q 876 393 898 425 l 876 393 l 741 199 l 930 199 l 930 395 q 931 440 930 417 q 932 485 931 463 z "},"¾":{"ha":1158,"x_min":50,"x_max":1095,"o":"m 845 956 l 943 956 l 348 0 l 248 0 l 845 956 z m 1095 122 l 1019 122 l 1019 1 l 930 1 l 930 122 l 655 122 l 655 197 l 917 575 l 1019 575 l 1019 199 l 1095 199 l 1095 122 z m 932 485 l 932 485 q 911 448 925 471 q 876 393 898 425 l 876 393 l 741 199 l 930 199 l 930 395 q 931 440 930 417 q 932 485 931 463 z m 467 539 l 467 539 q 414 417 467 460 q 265 374 361 374 l 265 374 q 114 412 168 374 q 50 528 60 451 l 50 528 l 142 536 q 265 444 154 444 l 265 444 q 374 545 374 444 l 374 545 q 245 637 374 637 l 245 637 l 204 637 l 204 711 l 243 711 q 328 736 297 711 q 359 804 359 760 l 359 804 q 334 868 359 845 q 261 892 309 892 l 261 892 q 186 868 215 892 q 154 800 158 844 l 154 800 l 62 808 q 124 923 71 882 q 264 964 178 964 l 264 964 q 402 923 352 964 q 452 817 452 883 l 452 817 q 423 728 452 766 q 333 677 394 691 l 333 677 l 333 676 q 431 634 395 670 q 467 539 467 599 z "},"₣":{"ha":772,"x_min":3,"x_max":726,"o":"m 516 189 l 243 189 l 243 0 l 121 0 l 121 189 l 3 189 l 3 277 l 121 277 l 121 956 l 726 956 l 726 850 l 243 850 l 243 528 l 709 528 l 709 421 l 243 421 l 243 277 l 516 277 l 516 189 z "},"Ğ":{"ha":1080,"x_min":70,"x_max":977,"o":"m 551 92 l 551 92 q 726 120 645 92 q 857 197 807 149 l 857 197 l 857 370 l 572 370 l 572 478 l 977 478 l 977 149 q 790 29 901 71 q 551 -14 680 -14 l 551 -14 q 294 47 402 -14 q 128 219 186 107 q 70 482 70 330 l 70 482 q 195 842 70 715 q 545 970 319 970 l 545 970 q 803 916 704 970 q 956 745 902 863 l 956 745 l 832 708 q 720 827 791 789 q 542 864 648 864 l 542 864 q 289 764 376 864 q 201 482 201 664 l 201 482 q 294 196 201 301 q 551 92 387 92 z m 549 1038 l 549 1038 q 398 1084 459 1038 q 324 1206 336 1131 l 324 1206 l 404 1206 q 452 1150 415 1171 q 551 1130 489 1130 l 551 1130 q 649 1151 612 1130 q 696 1206 685 1171 l 696 1206 l 776 1206 q 701 1083 762 1129 q 549 1038 640 1038 z "},"ğ":{"ha":772,"x_min":58,"x_max":683,"o":"m 372 -288 l 372 -288 q 180 -241 252 -288 q 89 -107 109 -194 l 89 -107 l 212 -90 q 266 -168 224 -140 q 375 -195 307 -195 l 375 -195 q 512 -142 466 -195 q 557 18 557 -88 l 557 18 l 557 136 l 556 136 q 461 30 522 66 q 320 -5 401 -5 l 320 -5 q 122 84 185 -5 q 58 366 58 174 l 58 366 q 126 653 58 560 q 334 745 195 745 l 334 745 q 469 710 412 745 q 557 608 526 674 l 557 608 l 559 608 q 560 651 559 622 q 564 705 562 680 q 567 734 566 731 l 567 734 l 683 734 q 679 582 679 697 l 679 582 l 679 21 q 602 -211 679 -134 q 372 -288 526 -288 z m 557 367 l 557 367 q 503 577 557 500 q 363 654 448 654 l 363 654 q 227 587 270 654 q 184 367 184 519 l 184 367 q 224 151 184 216 q 361 85 264 85 l 361 85 q 503 160 448 85 q 557 367 557 236 z m 370 814 l 370 814 q 219 872 281 814 q 145 1024 157 930 l 145 1024 l 224 1024 q 271 946 234 972 q 372 920 308 920 l 372 920 q 471 946 435 920 q 517 1024 508 972 l 517 1024 l 597 1024 q 522 871 583 928 q 370 814 461 814 z "},"İ":{"ha":386,"x_min":128,"x_max":258,"o":"m 128 956 l 258 956 l 258 0 l 128 0 l 128 956 z m 132 1205 l 254 1205 l 254 1088 l 132 1088 l 132 1205 z "},"Ş":{"ha":926,"x_min":63,"x_max":863,"o":"m 863 264 l 863 264 q 759 59 863 132 q 468 -14 656 -14 l 468 -14 q 63 229 119 -14 l 63 229 l 189 254 q 281 128 210 168 q 473 87 351 87 l 473 87 q 666 131 598 87 q 734 257 734 174 l 734 257 q 713 333 734 304 q 653 381 692 362 l 653 381 q 561 413 614 400 q 442 441 507 426 l 442 441 q 316 474 367 458 q 233 508 266 490 q 178 547 201 526 l 178 547 q 126 619 144 578 q 108 714 108 661 l 108 714 q 202 903 108 837 q 471 970 296 970 l 471 970 q 720 920 633 970 q 840 750 806 870 l 840 750 l 713 728 q 633 838 692 804 q 469 872 574 872 l 469 872 q 294 834 355 872 q 234 721 234 796 l 234 721 q 257 648 234 677 q 325 600 281 619 l 325 600 q 500 550 366 580 l 500 550 q 609 523 555 537 q 710 488 663 509 l 710 488 q 763 460 738 477 q 808 422 789 444 l 808 422 q 848 355 833 393 q 863 264 863 316 z m 614 -172 l 614 -172 q 567 -264 614 -233 q 428 -294 521 -294 l 428 -294 q 367 -292 387 -294 l 367 -292 l 367 -225 q 425 -229 401 -229 l 425 -229 q 525 -174 525 -229 l 525 -174 q 503 -135 525 -149 q 435 -122 480 -122 l 435 -122 q 410 -122 420 -122 q 396 -123 401 -123 l 396 -123 l 440 0 l 513 0 l 486 -68 q 582 -97 550 -70 q 614 -172 614 -125 z "},"ş":{"ha":694,"x_min":39,"x_max":644,"o":"m 644 203 l 644 203 q 566 43 644 99 q 347 -14 488 -14 l 347 -14 q 135 32 210 -14 q 39 172 61 77 l 39 172 l 146 193 q 211 107 162 134 q 347 79 260 79 l 347 79 q 483 108 439 79 q 526 193 526 136 l 526 193 q 496 264 526 237 q 399 309 466 291 l 399 309 q 274 343 321 330 q 203 367 228 357 q 163 385 178 376 l 163 385 q 93 448 118 411 q 68 540 68 486 l 68 540 q 139 693 68 640 q 348 745 211 745 l 348 745 q 541 703 469 745 q 631 566 612 660 l 631 566 l 522 552 q 467 627 511 601 q 348 653 422 653 l 348 653 q 226 628 265 653 q 186 552 186 603 l 186 552 q 209 491 186 515 q 294 451 231 467 l 294 451 q 456 407 379 431 q 566 359 532 382 l 566 359 q 624 293 604 331 q 644 203 644 256 z m 475 -172 l 475 -172 q 429 -264 475 -233 q 290 -294 382 -294 l 290 -294 q 229 -292 248 -294 l 229 -292 l 229 -225 q 287 -229 262 -229 l 287 -229 q 387 -174 387 -229 l 387 -174 q 364 -135 387 -149 q 296 -122 342 -122 l 296 -122 q 272 -122 281 -122 q 258 -123 262 -123 l 258 -123 l 302 0 l 374 0 l 348 -68 q 444 -97 412 -70 q 475 -172 475 -125 z "},"Ć":{"ha":1003,"x_min":71,"x_max":950,"o":"m 543 93 l 543 93 q 844 292 743 93 l 844 292 l 950 239 q 784 51 891 115 q 536 -14 677 -14 l 536 -14 q 287 47 391 -14 q 126 219 182 107 q 71 482 71 330 l 71 482 q 126 744 71 635 q 286 911 182 853 q 536 970 391 970 l 536 970 q 791 910 688 970 q 941 733 893 850 l 941 733 l 819 692 q 712 820 785 776 q 537 864 638 864 l 537 864 q 290 762 378 864 q 202 482 202 660 l 202 482 q 244 278 202 366 q 362 141 286 190 q 543 93 438 93 z m 740 1204 l 740 1185 l 530 1038 l 452 1038 l 452 1051 l 600 1204 l 740 1204 z "},"ć":{"ha":694,"x_min":59,"x_max":658,"o":"m 375 -14 l 375 -14 q 140 84 221 -14 q 59 368 59 181 l 59 368 q 140 650 59 553 q 374 747 222 747 l 374 747 q 561 689 486 747 q 654 528 635 631 l 654 528 l 528 519 q 480 616 519 580 q 370 652 441 652 l 370 652 q 230 587 273 652 q 186 370 186 523 l 186 370 q 233 153 186 224 q 372 83 279 83 l 372 83 q 480 118 437 83 q 534 227 524 153 l 534 227 l 658 218 q 611 96 648 148 q 513 15 573 43 q 375 -14 453 -14 z m 580 1023 l 580 1003 l 356 814 l 292 814 l 292 828 l 439 1023 l 580 1023 z "},"Č":{"ha":1003,"x_min":71,"x_max":950,"o":"m 543 93 l 543 93 q 844 292 743 93 l 844 292 l 950 239 q 784 51 891 115 q 536 -14 677 -14 l 536 -14 q 287 47 391 -14 q 126 219 182 107 q 71 482 71 330 l 71 482 q 126 744 71 635 q 286 911 182 853 q 536 970 391 970 l 536 970 q 791 910 688 970 q 941 733 893 850 l 941 733 l 819 692 q 712 820 785 776 q 537 864 638 864 l 537 864 q 290 762 378 864 q 202 482 202 660 l 202 482 q 244 278 202 366 q 362 141 286 190 q 543 93 438 93 z m 761 1214 l 761 1200 l 609 1038 l 471 1038 l 312 1200 l 312 1214 l 382 1214 l 540 1120 l 541 1120 l 690 1214 l 761 1214 z "},"č":{"ha":694,"x_min":59,"x_max":658,"o":"m 375 -14 l 375 -14 q 140 84 221 -14 q 59 368 59 181 l 59 368 q 140 650 59 553 q 374 747 222 747 l 374 747 q 561 689 486 747 q 654 528 635 631 l 654 528 l 528 519 q 480 616 519 580 q 370 652 441 652 l 370 652 q 230 587 273 652 q 186 370 186 523 l 186 370 q 233 153 186 224 q 372 83 279 83 l 372 83 q 480 118 437 83 q 534 227 524 153 l 534 227 l 658 218 q 611 96 648 148 q 513 15 573 43 q 375 -14 453 -14 z m 594 1011 l 594 998 l 442 814 l 304 814 l 145 998 l 145 1011 l 216 1011 l 373 897 l 374 897 l 523 1011 l 594 1011 z "},"đ":{"ha":772,"x_min":58,"x_max":768,"o":"m 353 907 l 557 907 l 557 1006 l 679 1006 l 679 907 l 768 907 l 768 818 l 679 818 l 679 151 q 680 56 679 94 q 683 0 681 18 l 683 0 l 566 0 q 563 28 565 7 q 561 74 562 49 q 559 118 559 99 l 559 118 l 557 118 q 467 17 523 47 q 328 -14 411 -14 l 328 -14 q 124 80 189 -14 q 58 363 58 174 l 58 363 q 126 651 58 555 q 328 747 193 747 l 328 747 q 467 717 412 747 q 557 620 523 686 l 557 620 l 558 620 l 557 702 l 557 818 l 353 818 l 353 907 z m 186 368 l 186 368 q 227 147 186 214 q 359 81 268 81 l 359 81 q 510 153 463 81 q 557 376 557 224 l 557 376 q 510 589 557 522 q 361 657 463 657 l 361 657 q 228 589 269 657 q 186 368 186 521 z "},"¯":{"ha":767,"x_min":-12,"x_max":779,"o":"m -12 1048 l 779 1048 l 779 985 l -12 985 l -12 1048 z "},"·":{"ha":463,"x_min":165,"x_max":297,"o":"m 165 452 l 297 452 l 297 302 l 165 302 l 165 452 z "},"Ă":{"ha":926,"x_min":3,"x_max":924,"o":"m 682 279 l 247 279 l 137 0 l 3 0 l 393 956 l 540 956 l 924 0 l 791 0 l 682 279 z m 465 858 l 465 858 q 437 773 453 820 q 408 692 421 727 l 408 692 l 286 380 l 644 380 l 521 696 q 496 763 511 720 q 465 858 480 806 z m 465 1038 l 465 1038 q 313 1084 374 1038 q 239 1206 252 1131 l 239 1206 l 319 1206 q 367 1150 330 1171 q 466 1130 404 1130 l 466 1130 q 564 1151 528 1130 q 612 1206 600 1171 l 612 1206 l 691 1206 q 616 1083 677 1129 q 465 1038 555 1038 z "},"ă":{"ha":772,"x_min":59,"x_max":772,"o":"m 281 -14 l 281 -14 q 115 45 170 -14 q 59 205 59 103 l 59 205 q 134 380 59 319 q 376 445 209 441 l 376 445 l 541 448 l 541 488 q 503 616 541 577 q 383 654 465 654 l 383 654 q 264 627 301 654 q 219 538 227 599 l 219 538 l 92 549 q 386 747 123 747 l 386 747 q 594 684 524 747 q 664 500 664 621 l 664 500 l 664 184 q 678 103 664 130 q 732 75 692 75 l 732 75 q 772 80 751 75 l 772 80 l 772 4 q 726 -4 749 -1 q 678 -7 702 -7 l 678 -7 q 579 29 610 -7 q 545 140 549 64 l 545 140 l 541 140 q 432 21 494 56 q 281 -14 370 -14 z m 541 302 l 541 362 l 407 359 q 277 342 321 359 l 277 342 q 208 292 232 326 q 184 203 184 258 l 184 203 q 217 111 184 143 q 309 78 249 78 l 309 78 q 428 109 376 78 l 428 109 q 510 192 480 139 q 541 302 541 245 l 541 302 z m 380 814 l 380 814 q 229 872 290 814 q 155 1024 167 930 l 155 1024 l 234 1024 q 280 946 243 972 q 381 920 317 920 l 381 920 q 481 946 444 920 q 527 1024 517 972 l 527 1024 l 606 1024 q 531 871 592 928 q 380 814 471 814 z "},"Ą":{"ha":926,"x_min":3,"x_max":935,"o":"m 682 279 l 247 279 l 137 0 l 3 0 l 393 956 l 540 956 l 924 0 l 791 0 l 682 279 z m 465 858 l 465 858 q 437 773 453 820 q 408 692 421 727 l 408 692 l 286 380 l 644 380 l 521 696 q 496 763 511 720 q 465 858 480 806 z m 935 -191 l 935 -264 q 841 -282 892 -282 l 841 -282 q 734 -248 770 -282 q 698 -155 698 -213 l 698 -155 q 727 -63 698 -108 q 803 7 757 -18 l 803 7 l 893 7 q 825 -55 857 -13 q 793 -146 793 -96 l 793 -146 q 810 -191 793 -175 q 857 -208 827 -208 l 857 -208 q 935 -191 894 -208 l 935 -191 z "},"ą":{"ha":772,"x_min":59,"x_max":772,"o":"m 281 -14 l 281 -14 q 115 45 170 -14 q 59 205 59 103 l 59 205 q 134 380 59 319 q 376 445 209 441 l 376 445 l 541 448 l 541 488 q 503 616 541 577 q 383 654 465 654 l 383 654 q 264 627 301 654 q 219 538 227 599 l 219 538 l 92 549 q 386 747 123 747 l 386 747 q 594 684 524 747 q 664 500 664 621 l 664 500 l 664 184 q 678 103 664 130 q 732 75 692 75 l 732 75 q 772 80 751 75 l 772 80 l 772 4 q 726 -4 749 -1 q 678 -7 702 -7 l 678 -7 q 579 29 610 -7 q 545 140 549 64 l 545 140 l 541 140 q 432 21 494 56 q 281 -14 370 -14 z m 541 302 l 541 362 l 407 359 q 277 342 321 359 l 277 342 q 208 292 232 326 q 184 203 184 258 l 184 203 q 217 111 184 143 q 309 78 249 78 l 309 78 q 428 109 376 78 l 428 109 q 510 192 480 139 q 541 302 541 245 l 541 302 z m 772 -199 l 772 -271 q 678 -290 730 -290 l 678 -290 q 571 -255 607 -290 q 535 -163 535 -220 l 535 -163 q 565 -71 535 -115 q 640 0 594 -26 l 640 0 l 730 0 q 662 -62 694 -20 q 631 -154 631 -104 l 631 -154 q 647 -199 631 -182 q 694 -215 664 -215 l 694 -215 q 772 -199 731 -215 l 772 -199 z "},"Ď":{"ha":1003,"x_min":114,"x_max":937,"o":"m 937 488 l 937 488 q 878 227 937 336 q 714 59 819 118 q 471 0 610 0 l 471 0 l 114 0 l 114 956 l 430 956 q 805 834 673 956 q 937 488 937 712 z m 806 488 l 806 488 q 709 759 806 665 q 427 852 612 852 l 427 852 l 243 852 l 243 104 l 456 104 q 641 151 563 104 q 763 283 720 197 q 806 488 806 370 z m 692 1214 l 692 1200 l 540 1038 l 401 1038 l 243 1200 l 243 1214 l 313 1214 l 471 1120 l 472 1120 l 621 1214 l 692 1214 z "},"ď":{"ha":854,"x_min":58,"x_max":867,"o":"m 683 0 l 566 0 q 563 28 565 7 q 561 74 562 49 q 559 118 559 99 l 559 118 l 557 118 q 467 17 523 47 q 328 -14 411 -14 l 328 -14 q 124 80 189 -14 q 58 363 58 174 l 58 363 q 126 651 58 555 q 328 747 193 747 l 328 747 q 467 717 412 747 q 557 620 523 686 l 557 620 l 558 620 l 557 702 l 557 1006 l 679 1006 l 679 151 q 680 56 679 94 q 683 0 681 18 l 683 0 z m 186 368 l 186 368 q 227 147 186 214 q 359 81 268 81 l 359 81 q 510 153 463 81 q 557 376 557 224 l 557 376 q 510 589 557 522 q 361 657 463 657 l 361 657 q 228 589 269 657 q 186 368 186 521 z m 867 1006 l 867 935 q 852 836 867 876 q 810 764 838 796 l 810 764 l 731 764 q 795 893 795 832 l 795 893 l 735 893 l 735 1006 l 867 1006 z "},"Đ":{"ha":1003,"x_min":9,"x_max":937,"o":"m 937 488 l 937 488 q 878 227 937 336 q 714 59 819 117 q 471 0 610 0 l 471 0 l 114 0 l 114 439 l 9 439 l 9 543 l 114 543 l 114 956 l 430 956 q 805 834 673 956 q 937 488 937 712 z m 806 488 l 806 488 q 709 759 806 665 q 427 852 612 852 l 427 852 l 243 852 l 243 543 l 519 543 l 519 439 l 243 439 l 243 104 l 456 104 q 643 151 564 104 q 764 283 722 197 q 806 488 806 370 z "},"Ę":{"ha":926,"x_min":114,"x_max":867,"o":"m 243 106 l 867 106 l 867 0 l 114 0 l 114 956 l 839 956 l 839 850 l 243 850 l 243 543 l 798 543 l 798 439 l 243 439 l 243 106 z m 867 -199 l 867 -271 q 772 -290 824 -290 l 772 -290 q 665 -255 701 -290 q 629 -163 629 -220 l 629 -163 q 659 -71 629 -115 q 734 0 688 -26 l 734 0 l 825 0 q 756 -62 788 -20 q 725 -154 725 -104 l 725 -154 q 742 -199 725 -182 q 789 -215 758 -215 l 789 -215 q 867 -199 825 -215 l 867 -199 z "},"ę":{"ha":772,"x_min":59,"x_max":711,"o":"m 711 341 l 187 341 q 239 146 187 215 q 392 78 292 78 l 392 78 q 519 110 471 78 q 584 191 567 142 l 584 191 l 691 160 q 392 -14 625 -14 l 392 -14 q 144 83 229 -14 q 59 372 59 180 l 59 372 q 144 650 59 553 q 387 747 229 747 l 387 747 q 630 650 549 747 q 711 357 711 552 l 711 357 l 711 341 z m 189 435 l 585 435 q 526 604 574 551 q 385 657 477 657 l 385 657 q 244 598 296 657 q 189 435 193 538 l 189 435 z m 550 -199 l 550 -271 q 456 -290 507 -290 l 456 -290 q 349 -255 385 -290 q 313 -163 313 -220 l 313 -163 q 342 -71 313 -115 q 418 0 372 -26 l 418 0 l 508 0 q 440 -62 471 -20 q 408 -154 408 -104 l 408 -154 q 425 -199 408 -182 q 472 -215 441 -215 l 472 -215 q 550 -199 509 -215 l 550 -199 z "},"Ě":{"ha":926,"x_min":114,"x_max":867,"o":"m 243 106 l 867 106 l 867 0 l 114 0 l 114 956 l 839 956 l 839 850 l 243 850 l 243 543 l 798 543 l 798 439 l 243 439 l 243 106 z m 698 1214 l 698 1200 l 546 1038 l 408 1038 l 249 1200 l 249 1214 l 319 1214 l 477 1120 l 478 1120 l 627 1214 l 698 1214 z "},"ě":{"ha":772,"x_min":59,"x_max":711,"o":"m 711 341 l 187 341 q 239 146 187 215 q 392 78 292 78 l 392 78 q 519 110 471 78 q 584 191 567 142 l 584 191 l 691 160 q 392 -14 625 -14 l 392 -14 q 144 83 229 -14 q 59 372 59 180 l 59 372 q 144 650 59 553 q 387 747 229 747 l 387 747 q 630 650 549 747 q 711 357 711 552 l 711 357 l 711 341 z m 189 435 l 585 435 q 526 604 574 551 q 385 657 477 657 l 385 657 q 244 598 296 657 q 189 435 193 538 l 189 435 z m 608 1011 l 608 998 l 456 814 l 317 814 l 159 998 l 159 1011 l 229 1011 l 387 897 l 388 897 l 536 1011 l 608 1011 z "},"Ĺ":{"ha":772,"x_min":114,"x_max":726,"o":"m 243 106 l 726 106 l 726 0 l 114 0 l 114 956 l 243 956 l 243 106 z m 454 1204 l 454 1185 l 243 1038 l 166 1038 l 166 1051 l 313 1204 l 454 1204 z "},"ĺ":{"ha":309,"x_min":62,"x_max":349,"o":"m 94 1006 l 216 1006 l 216 0 l 94 0 l 94 1006 z m 349 1257 l 349 1238 l 139 1090 l 62 1090 l 62 1104 l 209 1257 l 349 1257 z "},"Ľ":{"ha":772,"x_min":114,"x_max":726,"o":"m 243 106 l 726 106 l 726 0 l 114 0 l 114 956 l 243 956 l 243 106 z m 582 956 l 582 884 q 567 785 582 825 q 525 713 552 745 l 525 713 l 446 713 q 509 842 509 781 l 509 842 l 450 842 l 450 956 l 582 956 z "},"ľ":{"ha":405,"x_min":94,"x_max":418,"o":"m 94 1006 l 216 1006 l 216 0 l 94 0 l 94 1006 z m 418 1006 l 418 935 q 404 836 418 876 q 361 764 389 796 l 361 764 l 282 764 q 346 893 346 832 l 346 893 l 286 893 l 286 1006 l 418 1006 z "},"Ŀ":{"ha":772,"x_min":114,"x_max":726,"o":"m 243 106 l 726 106 l 726 0 l 114 0 l 114 956 l 243 956 l 243 106 z m 424 583 l 546 583 l 546 466 l 424 466 l 424 583 z "},"ŀ":{"ha":464,"x_min":94,"x_max":446,"o":"m 94 1006 l 216 1006 l 216 0 l 94 0 l 94 1006 z m 324 583 l 446 583 l 446 466 l 324 466 l 324 583 z "},"Ń":{"ha":1003,"x_min":114,"x_max":890,"o":"m 229 635 l 229 635 l 229 0 l 114 0 l 114 956 l 264 956 l 781 136 q 773 329 773 270 l 773 329 l 773 956 l 890 956 l 890 0 l 734 0 l 222 814 q 227 724 224 769 q 229 635 229 680 z m 748 1204 l 748 1185 l 538 1038 l 460 1038 l 460 1051 l 608 1204 l 748 1204 z "},"ń":{"ha":772,"x_min":95,"x_max":685,"o":"m 221 425 l 221 425 l 221 0 l 99 0 l 99 577 q 98 681 99 642 q 95 734 97 720 l 95 734 l 210 734 q 213 701 212 721 q 214 658 214 682 q 216 608 215 634 l 216 608 l 218 608 q 315 716 260 684 q 452 747 370 747 l 452 747 q 629 686 573 747 q 685 489 685 624 l 685 489 l 685 0 l 562 0 l 562 465 q 528 612 562 570 q 411 653 494 653 l 411 653 q 272 593 323 653 q 221 425 221 532 z m 600 1023 l 600 1003 l 376 814 l 312 814 l 312 828 l 459 1023 l 600 1023 z "},"Ň":{"ha":1003,"x_min":114,"x_max":890,"o":"m 229 635 l 229 635 l 229 0 l 114 0 l 114 956 l 264 956 l 781 136 q 773 329 773 270 l 773 329 l 773 956 l 890 956 l 890 0 l 734 0 l 222 814 q 227 724 224 769 q 229 635 229 680 z m 760 1214 l 760 1200 l 608 1038 l 469 1038 l 311 1200 l 311 1214 l 381 1214 l 538 1120 l 540 1120 l 688 1214 l 760 1214 z "},"ň":{"ha":772,"x_min":95,"x_max":685,"o":"m 221 425 l 221 425 l 221 0 l 99 0 l 99 577 q 98 681 99 642 q 95 734 97 720 l 95 734 l 210 734 q 213 701 212 721 q 214 658 214 682 q 216 608 215 634 l 216 608 l 218 608 q 315 716 260 684 q 452 747 370 747 l 452 747 q 629 686 573 747 q 685 489 685 624 l 685 489 l 685 0 l 562 0 l 562 465 q 528 612 562 570 q 411 653 494 653 l 411 653 q 272 593 323 653 q 221 425 221 532 z m 633 1011 l 633 998 l 481 814 l 343 814 l 184 998 l 184 1011 l 255 1011 l 412 897 l 414 897 l 562 1011 l 633 1011 z "},"Ő":{"ha":1080,"x_min":66,"x_max":1014,"o":"m 1014 482 l 1014 482 q 956 218 1014 329 q 791 46 898 106 q 539 -14 685 -14 l 539 -14 q 287 46 393 -14 q 123 217 180 106 q 66 482 66 328 l 66 482 q 122 744 66 635 q 285 911 179 853 q 541 970 391 970 l 541 970 q 793 912 687 970 q 957 746 899 854 q 1014 482 1014 637 z m 882 482 l 882 482 q 792 762 882 661 q 541 864 703 864 l 541 864 q 287 764 376 864 q 197 482 197 663 l 197 482 q 238 275 197 363 q 355 139 279 187 q 539 92 432 92 l 539 92 q 793 194 705 92 q 882 482 882 296 z m 412 1038 l 349 1038 l 349 1051 l 482 1205 l 623 1205 l 623 1185 l 412 1038 z m 648 1038 l 584 1038 l 584 1051 l 718 1205 l 858 1205 l 858 1185 l 648 1038 z "},"ő":{"ha":772,"x_min":58,"x_max":718,"o":"m 714 368 l 714 368 q 629 81 714 175 q 383 -14 545 -14 l 383 -14 q 140 84 222 -14 q 58 368 58 182 l 58 368 q 141 652 58 557 q 387 747 223 747 l 387 747 q 635 655 555 747 q 714 368 714 562 z m 586 368 l 586 368 q 541 588 586 519 q 389 657 496 657 l 389 657 q 234 587 282 657 q 186 368 186 517 l 186 368 q 234 150 186 222 q 382 77 281 77 l 382 77 q 539 147 492 77 q 586 368 586 218 z m 258 814 l 195 814 l 195 828 l 342 1023 l 482 1023 l 482 1003 l 258 814 z m 494 814 l 430 814 l 430 828 l 577 1023 l 718 1023 l 718 1003 l 494 814 z "},"Ŕ":{"ha":1003,"x_min":114,"x_max":939,"o":"m 541 397 l 243 397 l 243 0 l 114 0 l 114 956 l 564 956 q 813 883 725 956 q 901 682 901 811 l 901 682 q 839 503 901 576 q 667 412 777 431 l 667 412 l 939 0 l 789 0 l 541 397 z m 770 681 l 770 681 q 714 808 770 764 q 551 852 657 852 l 551 852 l 243 852 l 243 499 l 556 499 q 714 547 659 499 q 770 681 770 595 z m 663 1204 l 663 1185 l 452 1038 l 375 1038 l 375 1051 l 522 1204 l 663 1204 z "},"ŕ":{"ha":463,"x_min":92,"x_max":460,"o":"m 218 382 l 218 382 l 218 0 l 96 0 l 96 563 q 95 644 96 602 q 92 734 94 687 l 92 734 l 208 734 q 210 677 209 703 q 212 634 211 652 q 213 603 212 615 q 213 584 213 590 l 213 584 l 216 584 q 260 687 236 650 l 260 687 q 315 734 284 721 q 390 747 345 747 l 390 747 q 439 741 415 747 l 439 741 l 439 629 q 374 635 416 635 l 374 635 q 258 570 298 635 q 218 382 218 505 z m 460 1023 l 460 1003 l 236 814 l 172 814 l 172 828 l 319 1023 l 460 1023 z "},"Ř":{"ha":1003,"x_min":114,"x_max":939,"o":"m 541 397 l 243 397 l 243 0 l 114 0 l 114 956 l 564 956 q 813 883 725 956 q 901 682 901 811 l 901 682 q 839 503 901 576 q 667 412 777 431 l 667 412 l 939 0 l 789 0 l 541 397 z m 770 681 l 770 681 q 714 808 770 764 q 551 852 657 852 l 551 852 l 243 852 l 243 499 l 556 499 q 714 547 659 499 q 770 681 770 595 z m 692 1214 l 692 1200 l 540 1038 l 401 1038 l 243 1200 l 243 1214 l 313 1214 l 471 1120 l 472 1120 l 621 1214 l 692 1214 z "},"ř":{"ha":463,"x_min":38,"x_max":487,"o":"m 218 382 l 218 382 l 218 0 l 96 0 l 96 563 q 95 644 96 602 q 92 734 94 687 l 92 734 l 208 734 q 210 677 209 703 q 212 634 211 652 q 213 603 212 615 q 213 584 213 590 l 213 584 l 216 584 q 260 687 236 650 l 260 687 q 315 734 284 721 q 390 747 345 747 l 390 747 q 439 741 415 747 l 439 741 l 439 629 q 374 635 416 635 l 374 635 q 258 570 298 635 q 218 382 218 505 z m 487 1011 l 487 998 l 335 814 l 197 814 l 38 998 l 38 1011 l 109 1011 l 266 897 l 267 897 l 416 1011 l 487 1011 z "},"Ś":{"ha":926,"x_min":63,"x_max":863,"o":"m 863 264 l 863 264 q 759 59 863 132 q 468 -14 656 -14 l 468 -14 q 63 229 119 -14 l 63 229 l 189 254 q 281 128 210 168 q 473 87 351 87 l 473 87 q 666 131 598 87 q 734 257 734 174 l 734 257 q 713 333 734 304 q 653 381 692 362 l 653 381 q 561 413 614 400 q 442 441 507 426 l 442 441 q 316 474 367 458 q 233 508 266 490 q 178 547 201 526 l 178 547 q 126 619 144 578 q 108 714 108 661 l 108 714 q 202 903 108 837 q 471 970 296 970 l 471 970 q 720 920 633 970 q 840 750 806 870 l 840 750 l 713 728 q 633 838 692 804 q 469 872 574 872 l 469 872 q 294 834 355 872 q 234 721 234 796 l 234 721 q 257 648 234 677 q 325 600 281 619 l 325 600 q 500 550 366 580 l 500 550 q 609 523 555 537 q 710 488 663 509 l 710 488 q 763 460 738 477 q 808 422 789 444 l 808 422 q 848 355 833 393 q 863 264 863 316 z m 655 1204 l 655 1185 l 445 1038 l 368 1038 l 368 1051 l 515 1204 l 655 1204 z "},"ś":{"ha":694,"x_min":39,"x_max":644,"o":"m 644 203 l 644 203 q 566 43 644 99 q 347 -14 488 -14 l 347 -14 q 135 32 210 -14 q 39 172 61 77 l 39 172 l 146 193 q 211 107 162 134 q 347 79 260 79 l 347 79 q 483 108 439 79 q 526 193 526 136 l 526 193 q 496 264 526 237 q 399 309 466 291 l 399 309 q 274 343 321 330 q 203 367 228 357 q 163 385 178 376 l 163 385 q 93 448 118 411 q 68 540 68 486 l 68 540 q 139 693 68 640 q 348 745 211 745 l 348 745 q 541 703 469 745 q 631 566 612 660 l 631 566 l 522 552 q 467 627 511 601 q 348 653 422 653 l 348 653 q 226 628 265 653 q 186 552 186 603 l 186 552 q 209 491 186 515 q 294 451 231 467 l 294 451 q 456 407 379 431 q 566 359 532 382 l 566 359 q 624 293 604 331 q 644 203 644 256 z m 549 1023 l 549 1003 l 325 814 l 261 814 l 261 828 l 408 1023 l 549 1023 z "},"Ţ":{"ha":848,"x_min":31,"x_max":817,"o":"m 817 850 l 488 850 l 488 0 l 359 0 l 359 850 l 31 850 l 31 956 l 817 956 l 817 850 z m 565 -172 l 565 -172 q 518 -264 565 -233 q 379 -294 472 -294 l 379 -294 q 318 -292 338 -294 l 318 -292 l 318 -225 q 376 -229 352 -229 l 376 -229 q 476 -174 476 -229 l 476 -174 q 454 -135 476 -149 q 386 -122 431 -122 l 386 -122 q 361 -122 371 -122 q 347 -123 352 -123 l 347 -123 l 391 0 l 464 0 l 437 -68 q 533 -97 501 -70 q 565 -172 565 -125 z "},"ţ":{"ha":386,"x_min":21,"x_max":382,"o":"m 376 96 l 376 5 q 252 -11 316 -11 l 252 -11 q 142 31 179 -11 q 106 155 106 73 l 106 155 l 106 645 l 21 645 l 21 734 l 111 734 l 146 898 l 228 898 l 228 734 l 363 734 l 363 645 l 228 645 l 228 182 q 245 107 228 129 q 305 86 262 86 l 305 86 q 376 96 328 86 l 376 96 z m 382 -172 l 382 -172 q 335 -264 382 -233 q 196 -294 289 -294 l 196 -294 q 135 -292 155 -294 l 135 -292 l 135 -225 q 193 -229 169 -229 l 193 -229 q 293 -174 293 -229 l 293 -174 q 271 -135 293 -149 q 203 -122 248 -122 l 203 -122 q 178 -122 188 -122 q 164 -123 169 -123 l 164 -123 l 208 0 l 281 0 l 254 -68 q 350 -97 318 -70 q 382 -172 382 -125 z "},"Ť":{"ha":848,"x_min":31,"x_max":817,"o":"m 817 850 l 488 850 l 488 0 l 359 0 l 359 850 l 31 850 l 31 956 l 817 956 l 817 850 z m 645 1214 l 645 1200 l 493 1038 l 355 1038 l 196 1200 l 196 1214 l 267 1214 l 424 1120 l 425 1120 l 574 1214 l 645 1214 z "},"ť":{"ha":521,"x_min":21,"x_max":532,"o":"m 376 96 l 376 5 q 252 -11 316 -11 l 252 -11 q 142 31 179 -11 q 106 155 106 73 l 106 155 l 106 645 l 21 645 l 21 734 l 111 734 l 146 898 l 228 898 l 228 734 l 363 734 l 363 645 l 228 645 l 228 182 q 245 107 228 129 q 305 86 262 86 l 305 86 q 376 96 328 86 l 376 96 z m 532 1006 l 532 935 q 517 836 532 876 q 475 764 503 796 l 475 764 l 396 764 q 460 893 460 832 l 460 893 l 400 893 l 400 1006 l 532 1006 z "},"Ů":{"ha":1003,"x_min":107,"x_max":896,"o":"m 496 -14 l 496 -14 q 291 30 378 -14 q 155 154 203 73 q 107 347 107 235 l 107 347 l 107 956 l 237 956 l 237 358 q 303 159 237 227 q 495 92 370 92 l 495 92 q 695 162 624 92 q 767 367 767 232 l 767 367 l 767 956 l 896 956 l 896 359 q 847 160 896 243 q 708 32 798 77 q 496 -14 618 -14 z m 666 1094 l 666 1094 q 644 1012 666 1049 q 584 952 621 975 q 502 930 547 930 l 502 930 q 420 952 457 930 q 360 1012 382 975 q 338 1094 338 1049 l 338 1094 q 360 1177 338 1140 q 420 1236 382 1214 q 502 1257 457 1257 l 502 1257 q 584 1235 547 1257 q 644 1176 621 1213 q 666 1094 666 1139 z m 593 1094 l 593 1094 q 566 1158 593 1132 q 502 1185 540 1185 l 502 1185 q 437 1158 463 1185 q 410 1094 410 1132 l 410 1094 q 436 1029 410 1057 q 502 1001 462 1001 l 502 1001 q 567 1028 541 1001 q 593 1094 593 1056 z "},"ů":{"ha":772,"x_min":90,"x_max":680,"o":"m 559 125 l 557 125 q 460 18 515 50 q 323 -14 405 -14 l 323 -14 q 146 46 202 -14 q 90 245 90 106 l 90 245 l 90 734 l 213 734 l 213 269 q 247 120 213 159 q 364 81 281 81 l 364 81 q 503 141 452 81 q 554 309 554 201 l 554 309 l 554 734 l 676 734 l 676 157 q 677 54 676 93 q 680 0 678 14 l 680 0 l 565 0 q 563 32 564 3 q 559 125 561 60 l 559 125 z m 550 956 l 550 956 q 528 874 550 911 q 468 814 505 837 q 386 792 431 792 l 386 792 q 304 814 341 792 q 244 874 267 837 q 222 956 222 911 l 222 956 q 244 1039 222 1002 q 304 1098 267 1076 q 386 1120 341 1120 l 386 1120 q 468 1098 431 1120 q 528 1039 505 1076 q 550 956 550 1002 z m 477 956 l 477 956 q 450 1021 477 994 q 386 1047 424 1047 l 386 1047 q 321 1021 347 1047 q 294 956 294 994 l 294 956 q 320 891 294 919 q 386 863 346 863 l 386 863 q 451 891 425 863 q 477 956 477 918 z "},"Ű":{"ha":1003,"x_min":107,"x_max":896,"o":"m 496 -14 l 496 -14 q 291 30 378 -14 q 155 154 203 73 q 107 347 107 235 l 107 347 l 107 956 l 237 956 l 237 358 q 303 159 237 227 q 495 92 370 92 l 495 92 q 695 162 624 92 q 767 367 767 232 l 767 367 l 767 956 l 896 956 l 896 359 q 847 160 896 243 q 708 32 798 77 q 496 -14 618 -14 z m 366 1038 l 302 1038 l 302 1051 l 435 1205 l 576 1205 l 576 1185 l 366 1038 z m 601 1038 l 537 1038 l 537 1051 l 671 1205 l 811 1205 l 811 1185 l 601 1038 z "},"ű":{"ha":772,"x_min":90,"x_max":715,"o":"m 559 125 l 557 125 q 460 18 515 50 q 323 -14 405 -14 l 323 -14 q 146 46 202 -14 q 90 245 90 106 l 90 245 l 90 734 l 213 734 l 213 269 q 247 120 213 159 q 364 81 281 81 l 364 81 q 503 141 452 81 q 554 309 554 201 l 554 309 l 554 734 l 676 734 l 676 157 q 677 54 676 93 q 680 0 678 14 l 680 0 l 565 0 q 563 32 564 3 q 559 125 561 60 l 559 125 z m 256 814 l 192 814 l 192 828 l 339 1023 l 479 1023 l 479 1003 l 256 814 z m 491 814 l 427 814 l 427 828 l 574 1023 l 715 1023 l 715 1003 l 491 814 z "},"Ź":{"ha":848,"x_min":44,"x_max":805,"o":"m 191 106 l 805 106 l 805 0 l 44 0 l 44 97 l 626 850 l 94 850 l 94 956 l 773 956 l 773 861 l 191 106 z m 618 1204 l 618 1185 l 408 1038 l 331 1038 l 331 1051 l 478 1204 l 618 1204 z "},"ź":{"ha":694,"x_min":56,"x_max":625,"o":"m 200 94 l 625 94 l 625 0 l 56 0 l 56 93 l 467 640 l 79 640 l 79 734 l 611 734 l 611 641 l 200 94 z m 546 1023 l 546 1003 l 322 814 l 258 814 l 258 828 l 406 1023 l 546 1023 z "},"Ż":{"ha":848,"x_min":44,"x_max":805,"o":"m 191 106 l 805 106 l 805 0 l 44 0 l 44 97 l 626 850 l 94 850 l 94 956 l 773 956 l 773 861 l 191 106 z m 363 1205 l 486 1205 l 486 1088 l 363 1088 l 363 1205 z "},"ż":{"ha":694,"x_min":56,"x_max":625,"o":"m 200 94 l 625 94 l 625 0 l 56 0 l 56 93 l 467 640 l 79 640 l 79 734 l 611 734 l 611 641 l 200 94 z m 277 1006 l 399 1006 l 399 890 l 277 890 l 277 1006 z "},"Γ":{"ha":765,"x_min":114,"x_max":726,"o":"m 726 850 l 243 850 l 243 1 l 114 1 l 114 956 l 726 956 l 726 850 z "},"Θ":{"ha":1080,"x_min":66,"x_max":1014,"o":"m 1014 482 l 1014 482 q 956 221 1014 333 q 791 48 898 110 q 539 -14 685 -14 l 539 -14 q 287 48 393 -14 q 123 220 180 109 q 66 482 66 332 l 66 482 q 122 744 66 635 q 285 911 179 853 q 541 970 391 970 l 541 970 q 793 910 687 970 q 957 742 899 851 q 1014 482 1014 633 z m 882 482 l 882 482 q 792 762 882 661 q 541 864 703 864 l 541 864 q 287 764 376 864 q 197 482 197 663 l 197 482 q 238 275 197 363 q 355 139 279 187 q 539 92 432 92 l 539 92 q 793 194 705 92 q 882 482 882 296 z m 340 538 l 739 538 l 739 430 l 340 430 l 340 538 z "},"Φ":{"ha":1108,"x_min":79,"x_max":1029,"o":"m 1029 499 l 1029 499 q 986 316 1029 395 q 862 191 942 236 q 673 146 782 146 l 673 146 l 617 146 l 617 -7 l 492 -7 l 492 146 l 435 146 q 246 192 326 146 q 123 316 166 237 q 79 499 79 396 l 79 499 q 174 750 79 661 q 443 839 269 839 l 443 839 l 492 839 l 492 962 l 617 962 l 617 839 l 665 839 q 935 749 840 839 q 1029 499 1029 660 z m 899 496 l 899 496 q 837 683 899 621 q 650 745 774 745 l 650 745 l 617 745 l 617 239 l 655 239 q 836 304 773 239 q 899 496 899 370 z m 210 496 l 210 496 q 273 304 210 370 q 454 239 336 239 l 454 239 l 492 239 l 492 745 l 456 745 q 271 684 333 745 q 210 496 210 623 z "},"α":{"ha":803,"x_min":58,"x_max":763,"o":"m 574 161 l 572 161 q 470 27 529 68 q 328 -14 410 -14 l 328 -14 q 124 80 189 -14 q 58 363 58 174 l 58 363 q 132 652 58 556 q 347 747 205 747 l 347 747 q 493 702 433 747 q 585 574 554 656 l 585 574 l 586 574 q 635 734 601 653 l 635 734 l 763 734 q 720 622 741 686 q 685 495 699 557 q 667 387 671 432 l 667 387 q 690 174 670 279 q 742 0 710 70 l 742 0 l 618 0 q 590 90 602 41 q 574 161 578 138 l 574 161 z m 186 368 l 186 368 q 225 149 186 217 q 353 81 264 81 l 353 81 q 491 159 435 81 q 564 370 547 237 l 564 370 q 493 585 545 513 q 361 657 441 657 l 361 657 q 228 589 269 657 q 186 368 186 521 z "},"δ":{"ha":773,"x_min":58,"x_max":714,"o":"m 714 322 l 714 322 q 675 144 714 220 q 562 27 635 68 q 387 -14 489 -14 l 387 -14 q 146 75 234 -14 q 58 321 58 164 l 58 321 q 374 696 58 586 l 374 696 l 157 926 l 157 1006 l 654 1006 l 654 917 l 412 917 l 307 922 l 522 703 q 637 568 595 627 q 696 450 679 508 q 714 322 714 392 z m 586 319 l 586 319 q 554 469 586 396 q 437 630 522 542 l 437 630 q 251 506 315 587 q 186 319 186 425 l 186 319 q 240 141 186 205 q 387 77 293 77 l 387 77 q 586 319 586 77 z "},"ε":{"ha":619,"x_min":47,"x_max":593,"o":"m 309 77 l 309 77 q 425 107 368 77 q 522 186 481 138 l 522 186 l 593 119 q 465 20 538 53 q 301 -14 391 -14 l 301 -14 q 113 43 178 -14 q 47 200 47 99 l 47 200 q 98 325 47 275 q 227 382 149 375 l 227 382 l 227 384 q 112 438 155 392 q 70 551 70 484 l 70 551 q 139 693 70 640 q 319 747 208 747 l 319 747 q 468 716 404 747 q 574 622 532 684 l 574 622 l 488 562 q 414 633 456 610 q 320 656 372 656 l 320 656 q 226 628 258 656 q 193 549 193 599 l 193 549 q 246 458 193 487 l 246 458 q 436 429 298 429 l 436 429 l 436 338 q 281 325 332 338 l 281 325 q 202 282 229 312 q 174 202 174 253 l 174 202 q 211 110 174 143 q 309 77 247 77 z "},"σ":{"ha":857,"x_min":58,"x_max":836,"o":"m 727 333 l 727 333 q 638 78 727 170 q 395 -14 550 -14 l 395 -14 q 145 82 232 -14 q 58 355 58 177 l 58 355 q 160 634 58 535 q 450 734 262 734 l 450 734 l 836 734 l 836 645 l 724 645 l 624 649 l 624 646 q 703 489 679 564 q 727 333 727 414 z m 599 331 l 599 331 q 515 645 599 504 l 515 645 l 454 645 q 258 569 330 645 q 187 357 187 493 l 187 357 q 389 77 187 77 l 389 77 q 545 142 492 77 q 599 331 599 208 z "},"τ":{"ha":549,"x_min":20,"x_max":537,"o":"m 209 645 l 191 645 q 125 642 161 645 q 61 632 90 638 q 20 620 32 627 l 20 620 l 20 714 q 72 728 36 722 q 144 734 109 734 l 144 734 l 537 734 l 537 645 l 331 645 l 331 180 q 345 105 331 129 q 395 82 359 81 l 395 82 q 424 84 410 83 q 453 87 438 86 l 453 87 l 453 0 q 403 -10 427 -7 q 356 -14 378 -14 l 356 -14 q 243 25 278 -14 q 209 154 209 63 l 209 154 l 209 645 z "},"φ":{"ha":901,"x_min":58,"x_max":842,"o":"m 842 383 l 842 383 q 756 98 842 199 q 503 -12 671 -3 l 503 -12 l 503 -288 l 388 -288 l 388 -12 q 141 92 224 -5 q 58 370 58 189 l 58 370 q 133 627 58 526 q 342 750 209 728 l 342 750 l 357 658 q 229 566 273 640 q 186 367 186 492 l 186 367 q 236 154 186 222 q 388 81 286 86 l 388 81 l 388 474 q 440 677 388 605 q 600 749 492 749 l 600 749 q 730 704 675 749 q 813 577 784 659 q 842 383 842 495 z m 714 385 l 714 385 q 685 587 714 515 q 601 659 655 659 l 601 659 q 503 476 503 659 l 503 476 l 503 81 q 664 159 613 85 q 714 385 714 233 z "},"‗":{"ha":767,"x_min":-21,"x_max":788,"o":"m -21 -206 l 788 -206 l 788 -294 l -21 -294 l -21 -206 z m -21 -59 l 788 -59 l 788 -147 l -21 -147 l -21 -59 z "},"‼":{"ha":694,"x_min":125,"x_max":569,"o":"m 127 956 l 260 956 l 243 269 l 143 269 l 127 956 z m 125 136 l 257 136 l 257 0 l 125 0 l 125 136 z m 436 956 l 569 956 l 553 269 l 452 269 l 436 956 z m 435 136 l 566 136 l 566 0 l 435 0 l 435 136 z "},"ⁿ":{"ha":507,"x_min":68,"x_max":436,"o":"m 158 599 l 158 599 l 158 352 l 71 352 l 71 699 l 68 793 l 149 793 q 152 755 151 774 q 153 718 153 736 l 153 718 l 155 718 q 212 781 178 762 q 296 801 245 801 l 296 801 q 403 764 370 801 q 436 646 436 728 l 436 646 l 436 352 l 349 352 l 349 622 q 330 707 349 683 q 264 730 312 730 l 264 730 q 187 696 216 730 q 158 599 158 663 z "},"₧":{"ha":1519,"x_min":107,"x_max":1452,"o":"m 647 668 l 647 668 q 627 551 647 604 l 627 551 l 711 551 l 747 715 l 822 715 l 822 551 l 928 551 l 928 463 l 822 463 l 822 182 q 836 104 822 129 q 887 79 850 79 l 887 79 q 947 89 904 79 l 947 89 l 947 5 q 841 -11 896 -11 l 841 -11 q 738 31 770 -11 q 707 155 707 73 l 707 155 l 707 463 l 616 463 l 616 528 q 502 413 578 454 q 318 372 425 372 l 318 372 l 230 372 l 230 0 l 107 0 l 107 956 l 310 956 q 559 880 471 956 q 647 668 647 805 z m 524 667 l 524 667 q 468 806 524 760 q 301 852 412 852 l 301 852 l 230 852 l 230 475 l 307 475 q 469 523 415 475 q 524 667 524 570 z m 1452 155 l 1452 155 q 1390 30 1452 74 q 1213 -14 1328 -14 l 1213 -14 q 1044 24 1103 -14 q 966 142 985 61 l 966 142 l 1074 160 q 1119 99 1085 119 q 1212 79 1152 79 l 1212 79 q 1337 151 1337 79 l 1337 151 q 1289 211 1337 189 l 1289 211 q 1249 224 1276 216 q 1177 243 1221 232 l 1177 243 q 1113 262 1140 252 q 1068 281 1086 271 l 1068 281 q 1014 331 1033 301 q 995 402 995 360 l 995 402 q 1052 518 995 478 q 1218 559 1109 559 l 1218 559 q 1370 523 1314 559 q 1440 409 1426 488 l 1440 409 l 1331 397 q 1219 465 1318 465 l 1219 465 q 1140 451 1166 465 q 1114 408 1114 437 l 1114 408 q 1143 363 1114 382 l 1143 363 q 1261 325 1173 344 l 1261 325 q 1375 287 1337 308 l 1375 287 q 1432 235 1411 267 q 1452 155 1452 203 z "},"←":{"ha":1389,"x_min":283,"x_max":1105,"o":"m 1105 337 l 435 337 q 515 203 475 290 l 515 203 l 467 203 q 283 354 380 304 l 283 354 l 283 378 q 467 529 380 429 l 467 529 l 515 529 q 435 395 475 443 l 435 395 l 1105 395 l 1105 337 z "},"↑":{"ha":694,"x_min":184,"x_max":510,"o":"m 318 -41 l 318 629 q 184 549 271 589 l 184 549 l 184 597 q 335 781 286 684 l 335 781 l 359 781 q 510 597 410 684 l 510 597 l 510 549 q 376 629 424 589 l 376 629 l 376 -41 l 318 -41 z "},"→":{"ha":1389,"x_min":283,"x_max":1105,"o":"m 283 395 l 954 395 q 873 529 914 443 l 873 529 l 922 529 q 1105 378 1009 429 l 1105 378 l 1105 354 q 922 203 1009 304 l 922 203 l 873 203 q 954 337 914 290 l 954 337 l 283 337 l 283 395 z "},"↓":{"ha":694,"x_min":184,"x_max":510,"o":"m 376 781 l 376 110 q 510 191 424 150 l 510 191 l 510 142 q 359 -41 410 56 l 359 -41 l 335 -41 q 184 142 286 56 l 184 142 l 184 191 q 318 110 271 150 l 318 110 l 318 781 l 376 781 z "},"↔":{"ha":1389,"x_min":283,"x_max":1105,"o":"m 954 337 l 435 337 q 515 203 475 290 l 515 203 l 467 203 q 283 354 380 304 l 283 354 l 283 378 q 467 529 380 429 l 467 529 l 515 529 q 435 395 475 443 l 435 395 l 954 395 q 873 529 914 443 l 873 529 l 922 529 q 1105 378 1009 429 l 1105 378 l 1105 354 q 922 203 1009 304 l 922 203 l 873 203 q 954 337 914 290 l 954 337 z "},"↕":{"ha":694,"x_min":184,"x_max":510,"o":"m 318 110 l 318 629 q 184 549 271 589 l 184 549 l 184 597 q 335 781 286 684 l 335 781 l 359 781 q 510 597 410 684 l 510 597 l 510 549 q 376 629 424 589 l 376 629 l 376 110 q 510 191 424 150 l 510 191 l 510 142 q 359 -41 410 56 l 359 -41 l 335 -41 q 184 142 286 56 l 184 142 l 184 191 q 318 110 271 150 l 318 110 z "},"↨":{"ha":694,"x_min":184,"x_max":510,"o":"m 318 110 l 318 629 q 184 549 271 589 l 184 549 l 184 597 q 335 781 286 684 l 335 781 l 359 781 q 510 597 410 684 l 510 597 l 510 549 q 376 629 424 589 l 376 629 l 376 110 q 510 191 424 150 l 510 191 l 510 142 q 359 -41 410 56 l 359 -41 l 335 -41 q 184 142 286 56 l 184 142 l 184 191 q 318 110 271 150 l 318 110 z m 184 -71 l 510 -71 l 510 -125 l 184 -125 l 184 -71 z "},"∟":{"ha":1360,"x_min":277,"x_max":1107,"o":"m 340 64 l 1107 64 l 1107 0 l 277 0 l 277 829 l 340 829 l 340 64 z "},"∩":{"ha":998,"x_min":189,"x_max":810,"o":"m 258 346 l 258 346 l 258 -1 l 189 -1 l 189 346 q 228 529 189 448 l 228 529 q 338 655 267 610 q 497 700 409 700 l 497 700 q 658 655 586 700 l 658 655 q 769 528 729 610 q 810 346 810 446 l 810 346 l 810 -1 l 740 -1 l 740 347 q 673 553 740 476 q 498 631 607 631 l 498 631 q 323 554 389 631 q 258 346 258 477 z "},"≡":{"ha":810,"x_min":68,"x_max":743,"o":"m 68 749 l 743 749 l 743 648 l 68 648 l 68 749 z m 68 507 l 743 507 l 743 407 l 68 407 l 68 507 z m 68 266 l 743 266 l 743 165 l 68 165 l 68 266 z "},"⌂":{"ha":839,"x_min":106,"x_max":732,"o":"m 419 782 l 732 431 l 732 0 l 106 0 l 106 431 l 419 782 z m 161 407 l 161 56 l 677 56 l 677 407 l 419 696 l 161 407 z "},"⌐":{"ha":811,"x_min":68,"x_max":743,"o":"m 743 412 l 166 412 l 166 122 l 68 122 l 68 511 l 743 511 l 743 412 z "},"⌠":{"ha":839,"x_min":370,"x_max":663,"o":"m 470 965 l 470 965 l 470 -416 l 370 -416 l 370 857 q 396 1014 370 946 q 468 1119 422 1081 q 570 1157 513 1157 l 570 1157 q 638 1136 612 1157 q 663 1082 663 1114 l 663 1082 q 646 1037 663 1055 q 604 1019 629 1019 l 604 1019 q 574 1026 583 1019 l 574 1026 q 538 1060 564 1031 l 538 1060 q 505 1086 515 1086 l 505 1086 q 474 1060 480 1086 l 474 1060 q 470 965 470 1037 z "},"⌡":{"ha":839,"x_min":177,"x_max":470,"o":"m 470 1157 l 470 -118 q 445 -273 470 -206 q 375 -378 420 -340 q 270 -416 330 -416 l 270 -416 q 203 -396 230 -416 q 177 -343 177 -375 l 177 -343 q 194 -299 177 -317 q 235 -281 211 -281 l 235 -281 q 275 -292 258 -281 l 275 -292 q 303 -322 281 -294 l 303 -322 q 335 -347 324 -347 l 335 -347 q 363 -330 355 -347 l 363 -330 q 370 -227 370 -311 l 370 -227 l 370 1157 l 470 1157 z "},"─":{"ha":984,"x_min":-7,"x_max":991,"o":"m -7 471 l 991 471 l 991 372 l -7 372 l -7 471 z "},"│":{"ha":868,"x_min":320,"x_max":418,"o":"m 320 1264 l 418 1264 l 418 -421 l 320 -421 l 320 1264 z "},"┌":{"ha":984,"x_min":443,"x_max":991,"o":"m 991 372 l 541 372 l 541 -421 l 443 -421 l 443 471 l 991 471 l 991 372 z "},"┐":{"ha":984,"x_min":-7,"x_max":541,"o":"m -7 471 l 541 471 l 541 -421 l 443 -421 l 443 372 l -7 372 l -7 471 z "},"└":{"ha":984,"x_min":443,"x_max":991,"o":"m 541 471 l 991 471 l 991 372 l 443 372 l 443 1264 l 541 1264 l 541 471 z "},"┘":{"ha":984,"x_min":-7,"x_max":541,"o":"m 443 1264 l 541 1264 l 541 372 l -7 372 l -7 471 l 443 471 l 443 1264 z "},"├":{"ha":984,"x_min":443,"x_max":991,"o":"m 991 372 l 541 372 l 541 -421 l 443 -421 l 443 1264 l 541 1264 l 541 471 l 991 471 l 991 372 z "},"┤":{"ha":984,"x_min":-7,"x_max":541,"o":"m 443 1264 l 541 1264 l 541 -421 l 443 -421 l 443 372 l -7 372 l -7 471 l 443 471 l 443 1264 z "},"┬":{"ha":984,"x_min":-7,"x_max":991,"o":"m 991 372 l 541 372 l 541 -421 l 443 -421 l 443 372 l -7 372 l -7 471 l 991 471 l 991 372 z "},"┴":{"ha":984,"x_min":-7,"x_max":991,"o":"m 541 471 l 991 471 l 991 372 l -7 372 l -7 471 l 443 471 l 443 1264 l 541 1264 l 541 471 z "},"┼":{"ha":984,"x_min":-7,"x_max":991,"o":"m 991 372 l 541 372 l 541 -421 l 443 -421 l 443 372 l -7 372 l -7 471 l 443 471 l 443 1264 l 541 1264 l 541 471 l 991 471 l 991 372 z "},"═":{"ha":984,"x_min":-7,"x_max":991,"o":"m -7 593 l 991 593 l 991 494 l -7 494 l -7 593 z m -7 349 l 991 349 l 991 250 l -7 250 l -7 349 z "},"║":{"ha":984,"x_min":321,"x_max":663,"o":"m 321 1264 l 419 1264 l 419 -421 l 321 -421 l 321 1264 z m 565 1264 l 663 1264 l 663 -421 l 565 -421 l 565 1264 z "},"╒":{"ha":984,"x_min":443,"x_max":991,"o":"m 991 250 l 541 250 l 541 -421 l 443 -421 l 443 593 l 991 593 l 991 494 l 541 494 l 541 349 l 991 349 l 991 250 z "},"╓":{"ha":984,"x_min":321,"x_max":991,"o":"m 565 372 l 419 372 l 419 -421 l 321 -421 l 321 471 l 991 471 l 991 372 l 663 372 l 663 -421 l 565 -421 l 565 372 z "},"╔":{"ha":984,"x_min":321,"x_max":991,"o":"m 991 494 l 419 494 l 419 -421 l 321 -421 l 321 593 l 991 593 l 991 494 z m 991 250 l 663 250 l 663 -421 l 565 -421 l 565 349 l 991 349 l 991 250 z "},"╕":{"ha":984,"x_min":-7,"x_max":541,"o":"m -7 593 l 541 593 l 541 -421 l 443 -421 l 443 250 l -7 250 l -7 349 l 443 349 l 443 494 l -7 494 l -7 593 z "},"╖":{"ha":984,"x_min":-7,"x_max":663,"o":"m 565 372 l 419 372 l 419 -421 l 321 -421 l 321 372 l -7 372 l -7 471 l 663 471 l 663 -421 l 565 -421 l 565 372 z "},"╗":{"ha":984,"x_min":-7,"x_max":663,"o":"m -7 593 l 663 593 l 663 -421 l 565 -421 l 565 494 l -7 494 l -7 593 z m -7 349 l 419 349 l 419 -421 l 321 -421 l 321 250 l -7 250 l -7 349 z "},"╘":{"ha":984,"x_min":443,"x_max":991,"o":"m 541 349 l 991 349 l 991 250 l 443 250 l 443 1264 l 541 1264 l 541 593 l 991 593 l 991 494 l 541 494 l 541 349 z "},"╙":{"ha":984,"x_min":321,"x_max":991,"o":"m 663 471 l 991 471 l 991 372 l 321 372 l 321 1264 l 419 1264 l 419 471 l 565 471 l 565 1264 l 663 1264 l 663 471 z "},"╚":{"ha":984,"x_min":321,"x_max":991,"o":"m 419 349 l 991 349 l 991 250 l 321 250 l 321 1264 l 419 1264 l 419 349 z m 663 593 l 991 593 l 991 494 l 565 494 l 565 1264 l 663 1264 l 663 593 z "},"╛":{"ha":984,"x_min":-7,"x_max":541,"o":"m 443 1264 l 541 1264 l 541 250 l -7 250 l -7 349 l 443 349 l 443 494 l -7 494 l -7 593 l 443 593 l 443 1264 z "},"╜":{"ha":984,"x_min":-7,"x_max":663,"o":"m 565 1264 l 663 1264 l 663 372 l -7 372 l -7 471 l 321 471 l 321 1264 l 419 1264 l 419 471 l 565 471 l 565 1264 z "},"╝":{"ha":984,"x_min":-7,"x_max":663,"o":"m 565 1264 l 663 1264 l 663 250 l -7 250 l -7 349 l 565 349 l 565 1264 z m 321 1264 l 419 1264 l 419 494 l -7 494 l -7 593 l 321 593 l 321 1264 z "},"╞":{"ha":984,"x_min":443,"x_max":991,"o":"m 991 250 l 541 250 l 541 -421 l 443 -421 l 443 1264 l 541 1264 l 541 593 l 991 593 l 991 494 l 541 494 l 541 349 l 991 349 l 991 250 z "},"╟":{"ha":984,"x_min":321,"x_max":991,"o":"m 991 372 l 663 372 l 663 -421 l 565 -421 l 565 1264 l 663 1264 l 663 471 l 991 471 l 991 372 z m 321 1264 l 419 1264 l 419 -421 l 321 -421 l 321 1264 z "},"╠":{"ha":984,"x_min":321,"x_max":991,"o":"m 321 1264 l 419 1264 l 419 -421 l 321 -421 l 321 1264 z m 663 593 l 991 593 l 991 494 l 565 494 l 565 1264 l 663 1264 l 663 593 z m 991 250 l 663 250 l 663 -421 l 565 -421 l 565 349 l 991 349 l 991 250 z "},"╡":{"ha":984,"x_min":-7,"x_max":541,"o":"m 443 1264 l 541 1264 l 541 -421 l 443 -421 l 443 250 l -7 250 l -7 349 l 443 349 l 443 494 l -7 494 l -7 593 l 443 593 l 443 1264 z "},"╢":{"ha":984,"x_min":-7,"x_max":663,"o":"m 321 1264 l 419 1264 l 419 -421 l 321 -421 l 321 372 l -7 372 l -7 471 l 321 471 l 321 1264 z m 565 1264 l 663 1264 l 663 -421 l 565 -421 l 565 1264 z "},"╣":{"ha":984,"x_min":-7,"x_max":663,"o":"m 565 1264 l 663 1264 l 663 -421 l 565 -421 l 565 1264 z m 321 1264 l 419 1264 l 419 494 l -7 494 l -7 593 l 321 593 l 321 1264 z m -7 349 l 419 349 l 419 -421 l 321 -421 l 321 250 l -7 250 l -7 349 z "},"╤":{"ha":984,"x_min":-7,"x_max":991,"o":"m -7 593 l 991 593 l 991 494 l -7 494 l -7 593 z m 991 250 l 541 250 l 541 -421 l 443 -421 l 443 250 l -7 250 l -7 349 l 991 349 l 991 250 z "},"╥":{"ha":984,"x_min":-7,"x_max":991,"o":"m 565 372 l 419 372 l 419 -421 l 321 -421 l 321 372 l -7 372 l -7 471 l 991 471 l 991 372 l 663 372 l 663 -421 l 565 -421 l 565 372 z "},"╦":{"ha":984,"x_min":-7,"x_max":991,"o":"m -7 593 l 991 593 l 991 494 l -7 494 l -7 593 z m -7 349 l 419 349 l 419 -421 l 321 -421 l 321 250 l -7 250 l -7 349 z m 991 250 l 663 250 l 663 -421 l 565 -421 l 565 349 l 991 349 l 991 250 z "},"╧":{"ha":984,"x_min":-7,"x_max":991,"o":"m 541 593 l 991 593 l 991 494 l -7 494 l -7 593 l 443 593 l 443 1264 l 541 1264 l 541 593 z m -7 349 l 991 349 l 991 250 l -7 250 l -7 349 z "},"╨":{"ha":984,"x_min":-7,"x_max":991,"o":"m 663 471 l 991 471 l 991 372 l -7 372 l -7 471 l 321 471 l 321 1264 l 419 1264 l 419 471 l 565 471 l 565 1264 l 663 1264 l 663 471 z "},"╩":{"ha":984,"x_min":-7,"x_max":991,"o":"m 663 593 l 991 593 l 991 494 l 565 494 l 565 1264 l 663 1264 l 663 593 z m 321 1264 l 419 1264 l 419 494 l -7 494 l -7 593 l 321 593 l 321 1264 z m -7 349 l 991 349 l 991 250 l -7 250 l -7 349 z "},"╪":{"ha":984,"x_min":-7,"x_max":991,"o":"m 991 250 l 541 250 l 541 -421 l 443 -421 l 443 250 l -7 250 l -7 349 l 443 349 l 443 494 l -7 494 l -7 593 l 443 593 l 443 1264 l 541 1264 l 541 593 l 991 593 l 991 494 l 541 494 l 541 349 l 991 349 l 991 250 z "},"╫":{"ha":984,"x_min":-7,"x_max":991,"o":"m 565 372 l 419 372 l 419 -421 l 321 -421 l 321 372 l -7 372 l -7 471 l 321 471 l 321 1264 l 419 1264 l 419 471 l 565 471 l 565 1264 l 663 1264 l 663 471 l 991 471 l 991 372 l 663 372 l 663 -421 l 565 -421 l 565 372 z "},"╬":{"ha":984,"x_min":-7,"x_max":991,"o":"m 663 593 l 991 593 l 991 494 l 565 494 l 565 1264 l 663 1264 l 663 593 z m 321 1264 l 419 1264 l 419 494 l -7 494 l -7 593 l 321 593 l 321 1264 z m -7 349 l 419 349 l 419 -421 l 321 -421 l 321 250 l -7 250 l -7 349 z m 991 250 l 663 250 l 663 -421 l 565 -421 l 565 349 l 991 349 l 991 250 z "},"▀":{"ha":984,"x_min":0,"x_max":984,"o":"m 0 1264 l 984 1264 l 984 421 l 0 421 l 0 1264 z "},"▄":{"ha":984,"x_min":0,"x_max":984,"o":"m 0 421 l 984 421 l 984 -421 l 0 -421 l 0 421 z "},"█":{"ha":984,"x_min":0,"x_max":984,"o":"m 0 1264 l 984 1264 l 984 -421 l 0 -421 l 0 1264 z "},"▌":{"ha":984,"x_min":0,"x_max":492,"o":"m 0 1264 l 492 1264 l 492 -421 l 0 -421 l 0 1264 z "},"▐":{"ha":984,"x_min":492,"x_max":984,"o":"m 492 1264 l 984 1264 l 984 -421 l 492 -421 l 492 1264 z "},"░":{"ha":984,"x_min":70,"x_max":984,"o":"m 913 1152 l 984 1152 l 984 1087 l 913 1087 l 913 1152 z m 633 1152 l 703 1152 l 703 1087 l 633 1087 l 633 1152 z m 351 1152 l 421 1152 l 421 1087 l 351 1087 l 351 1152 z m 70 1152 l 140 1152 l 140 1087 l 70 1087 l 70 1152 z m 773 1021 l 844 1021 l 844 955 l 773 955 l 773 1021 z m 492 1021 l 562 1021 l 562 955 l 492 955 l 492 1021 z m 210 1021 l 281 1021 l 281 955 l 210 955 l 210 1021 z m 913 891 l 984 891 l 984 825 l 913 825 l 913 891 z m 70 891 l 140 891 l 140 825 l 70 825 l 70 891 z m 351 891 l 421 891 l 421 825 l 351 825 l 351 891 z m 633 891 l 703 891 l 703 825 l 633 825 l 633 891 z m 210 759 l 281 759 l 281 694 l 210 694 l 210 759 z m 492 759 l 562 759 l 562 694 l 492 694 l 492 759 z m 773 759 l 844 759 l 844 694 l 773 694 l 773 759 z m 913 629 l 984 629 l 984 564 l 913 564 l 913 629 z m 633 629 l 703 629 l 703 564 l 633 564 l 633 629 z m 351 629 l 421 629 l 421 564 l 351 564 l 351 629 z m 70 629 l 140 629 l 140 564 l 70 564 l 70 629 z m 773 496 l 844 496 l 844 431 l 773 431 l 773 496 z m 492 496 l 562 496 l 562 431 l 492 431 l 492 496 z m 210 496 l 281 496 l 281 431 l 210 431 l 210 496 z m 913 366 l 984 366 l 984 301 l 913 301 l 913 366 z m 70 366 l 140 366 l 140 301 l 70 301 l 70 366 z m 351 366 l 421 366 l 421 301 l 351 301 l 351 366 z m 633 366 l 703 366 l 703 301 l 633 301 l 633 366 z m 773 234 l 844 234 l 844 169 l 773 169 l 773 234 z m 492 234 l 562 234 l 562 169 l 492 169 l 492 234 z m 210 234 l 281 234 l 281 169 l 210 169 l 210 234 z m 633 104 l 703 104 l 703 38 l 633 38 l 633 104 z m 351 104 l 421 104 l 421 38 l 351 38 l 351 104 z m 70 104 l 140 104 l 140 38 l 70 38 l 70 104 z m 913 104 l 984 104 l 984 38 l 913 38 l 913 104 z m 773 -28 l 844 -28 l 844 -92 l 773 -92 l 773 -28 z m 492 -28 l 562 -28 l 562 -92 l 492 -92 l 492 -28 z m 210 -28 l 281 -28 l 281 -92 l 210 -92 l 210 -28 z m 70 -159 l 140 -159 l 140 -224 l 70 -224 l 70 -159 z m 351 -159 l 421 -159 l 421 -224 l 351 -224 l 351 -159 z m 633 -159 l 703 -159 l 703 -224 l 633 -224 l 633 -159 z m 913 -159 l 984 -159 l 984 -224 l 913 -224 l 913 -159 z m 210 -290 l 281 -290 l 281 -355 l 210 -355 l 210 -290 z m 492 -290 l 562 -290 l 562 -355 l 492 -355 l 492 -290 z m 773 -290 l 844 -290 l 844 -355 l 773 -355 l 773 -290 z "},"▒":{"ha":984,"x_min":0,"x_max":984,"o":"m 913 1152 l 984 1152 l 984 1087 l 913 1087 l 913 1152 z m 773 1152 l 844 1152 l 844 1087 l 773 1087 l 773 1152 z m 633 1152 l 703 1152 l 703 1087 l 633 1087 l 633 1152 z m 492 1152 l 562 1152 l 562 1087 l 492 1087 l 492 1152 z m 351 1152 l 421 1152 l 421 1087 l 351 1087 l 351 1152 z m 210 1152 l 281 1152 l 281 1087 l 210 1087 l 210 1152 z m 70 1152 l 140 1152 l 140 1087 l 70 1087 l 70 1152 z m 844 1021 l 913 1021 l 913 955 l 844 955 l 844 1021 z m 703 1021 l 773 1021 l 773 955 l 703 955 l 703 1021 z m 562 1021 l 633 1021 l 633 955 l 562 955 l 562 1021 z m 421 1021 l 492 1021 l 492 955 l 421 955 l 421 1021 z m 281 1021 l 351 1021 l 351 955 l 281 955 l 281 1021 z m 140 1021 l 210 1021 l 210 955 l 140 955 l 140 1021 z m 0 1021 l 70 1021 l 70 955 l 0 955 l 0 1021 z m 913 891 l 984 891 l 984 825 l 913 825 l 913 891 z m 70 891 l 140 891 l 140 825 l 70 825 l 70 891 z m 210 891 l 281 891 l 281 825 l 210 825 l 210 891 z m 351 891 l 421 891 l 421 825 l 351 825 l 351 891 z m 492 891 l 562 891 l 562 825 l 492 825 l 492 891 z m 633 891 l 703 891 l 703 825 l 633 825 l 633 891 z m 773 891 l 844 891 l 844 825 l 773 825 l 773 891 z m 703 759 l 773 759 l 773 694 l 703 694 l 703 759 z m 562 759 l 633 759 l 633 694 l 562 694 l 562 759 z m 421 759 l 492 759 l 492 694 l 421 694 l 421 759 z m 281 759 l 351 759 l 351 694 l 281 694 l 281 759 z m 140 759 l 210 759 l 210 694 l 140 694 l 140 759 z m 0 759 l 70 759 l 70 694 l 0 694 l 0 759 z m 844 759 l 913 759 l 913 694 l 844 694 l 844 759 z m 913 629 l 984 629 l 984 564 l 913 564 l 913 629 z m 70 629 l 140 629 l 140 564 l 70 564 l 70 629 z m 210 629 l 281 629 l 281 564 l 210 564 l 210 629 z m 351 629 l 421 629 l 421 564 l 351 564 l 351 629 z m 492 629 l 562 629 l 562 564 l 492 564 l 492 629 z m 633 629 l 703 629 l 703 564 l 633 564 l 633 629 z m 773 629 l 844 629 l 844 564 l 773 564 l 773 629 z m 703 496 l 773 496 l 773 431 l 703 431 l 703 496 z m 562 496 l 633 496 l 633 431 l 562 431 l 562 496 z m 421 496 l 492 496 l 492 431 l 421 431 l 421 496 z m 281 496 l 351 496 l 351 431 l 281 431 l 281 496 z m 140 496 l 210 496 l 210 431 l 140 431 l 140 496 z m 0 496 l 70 496 l 70 431 l 0 431 l 0 496 z m 844 496 l 913 496 l 913 431 l 844 431 l 844 496 z m 913 366 l 984 366 l 984 301 l 913 301 l 913 366 z m 70 366 l 140 366 l 140 301 l 70 301 l 70 366 z m 210 366 l 281 366 l 281 301 l 210 301 l 210 366 z m 351 366 l 421 366 l 421 301 l 351 301 l 351 366 z m 492 366 l 562 366 l 562 301 l 492 301 l 492 366 z m 633 366 l 703 366 l 703 301 l 633 301 l 633 366 z m 773 366 l 844 366 l 844 301 l 773 301 l 773 366 z m 844 234 l 913 234 l 913 169 l 844 169 l 844 234 z m 0 234 l 70 234 l 70 169 l 0 169 l 0 234 z m 281 234 l 351 234 l 351 169 l 281 169 l 281 234 z m 421 234 l 492 234 l 492 169 l 421 169 l 421 234 z m 562 234 l 633 234 l 633 169 l 562 169 l 562 234 z m 703 234 l 773 234 l 773 169 l 703 169 l 703 234 z m 140 234 l 210 234 l 210 169 l 140 169 l 140 234 z m 913 104 l 984 104 l 984 38 l 913 38 l 913 104 z m 773 104 l 844 104 l 844 38 l 773 38 l 773 104 z m 633 104 l 703 104 l 703 38 l 633 38 l 633 104 z m 492 104 l 562 104 l 562 38 l 492 38 l 492 104 z m 351 104 l 421 104 l 421 38 l 351 38 l 351 104 z m 210 104 l 281 104 l 281 38 l 210 38 l 210 104 z m 70 104 l 140 104 l 140 38 l 70 38 l 70 104 z m 844 -28 l 913 -28 l 913 -92 l 844 -92 l 844 -28 z m 0 -28 l 70 -28 l 70 -92 l 0 -92 l 0 -28 z m 140 -28 l 210 -28 l 210 -92 l 140 -92 l 140 -28 z m 281 -28 l 351 -28 l 351 -92 l 281 -92 l 281 -28 z m 421 -28 l 492 -28 l 492 -92 l 421 -92 l 421 -28 z m 562 -28 l 633 -28 l 633 -92 l 562 -92 l 562 -28 z m 703 -28 l 773 -28 l 773 -92 l 703 -92 l 703 -28 z m 210 -159 l 281 -159 l 281 -224 l 210 -224 l 210 -159 z m 70 -159 l 140 -159 l 140 -224 l 70 -224 l 70 -159 z m 913 -159 l 984 -159 l 984 -224 l 913 -224 l 913 -159 z m 351 -159 l 421 -159 l 421 -224 l 351 -224 l 351 -159 z m 492 -159 l 562 -159 l 562 -224 l 492 -224 l 492 -159 z m 633 -159 l 703 -159 l 703 -224 l 633 -224 l 633 -159 z m 773 -159 l 844 -159 l 844 -224 l 773 -224 l 773 -159 z m 703 -290 l 773 -290 l 773 -355 l 703 -355 l 703 -290 z m 562 -290 l 633 -290 l 633 -355 l 562 -355 l 562 -290 z m 421 -290 l 492 -290 l 492 -355 l 421 -355 l 421 -290 z m 281 -290 l 351 -290 l 351 -355 l 281 -355 l 281 -290 z m 140 -290 l 210 -290 l 210 -355 l 140 -355 l 140 -290 z m 0 -290 l 70 -290 l 70 -355 l 0 -355 l 0 -290 z m 844 -290 l 913 -290 l 913 -355 l 844 -355 l 844 -290 z "},"▓":{"ha":1013,"x_min":0,"x_max":1013,"o":"m 940 -355 l 1013 -355 l 1013 -421 l 0 -421 l 0 -224 l 72 -224 l 72 -159 l 0 -159 l 0 38 l 72 38 l 72 104 l 0 104 l 0 301 l 72 301 l 72 366 l 0 366 l 0 562 l 72 562 l 72 629 l 0 629 l 0 825 l 72 825 l 72 891 l 0 891 l 0 1087 l 72 1087 l 72 1152 l 144 1152 l 144 1087 l 216 1087 l 216 1152 l 289 1152 l 289 1087 l 361 1087 l 361 1152 l 433 1152 l 433 1087 l 506 1087 l 506 1152 l 578 1152 l 578 1087 l 651 1087 l 651 1152 l 724 1152 l 724 1087 l 795 1087 l 795 1152 l 868 1152 l 868 1087 l 940 1087 l 940 1152 l 1013 1152 l 1013 1021 l 940 1021 l 940 955 l 1013 955 l 1013 759 l 940 759 l 940 694 l 1013 694 l 1013 496 l 940 496 l 940 431 l 1013 431 l 1013 234 l 940 234 l 940 169 l 1013 169 l 1013 -28 l 940 -28 l 940 -92 l 1013 -92 l 1013 -290 l 940 -290 l 940 -355 z m 651 1021 l 651 955 l 724 955 l 724 1021 l 651 1021 z m 795 1021 l 795 955 l 868 955 l 868 1021 l 795 1021 z m 72 1021 l 72 955 l 144 955 l 144 1021 l 72 1021 z m 216 1021 l 216 955 l 289 955 l 289 1021 l 216 1021 z m 361 1021 l 361 955 l 433 955 l 433 1021 l 361 1021 z m 506 1021 l 506 955 l 578 955 l 578 1021 l 506 1021 z m 724 891 l 724 825 l 795 825 l 795 891 l 724 891 z m 868 891 l 868 825 l 940 825 l 940 891 l 868 891 z m 144 891 l 144 825 l 216 825 l 216 891 l 144 891 z m 289 891 l 289 825 l 361 825 l 361 891 l 289 891 z m 433 891 l 433 825 l 506 825 l 506 891 l 433 891 z m 578 891 l 578 825 l 651 825 l 651 891 l 578 891 z m 72 759 l 72 694 l 144 694 l 144 759 l 72 759 z m 216 759 l 216 694 l 289 694 l 289 759 l 216 759 z m 795 759 l 795 694 l 868 694 l 868 759 l 795 759 z m 651 759 l 651 694 l 724 694 l 724 759 l 651 759 z m 361 759 l 361 694 l 433 694 l 433 759 l 361 759 z m 506 759 l 506 694 l 578 694 l 578 759 l 506 759 z m 433 629 l 433 562 l 506 562 l 506 629 l 433 629 z m 578 629 l 578 562 l 651 562 l 651 629 l 578 629 z m 868 629 l 868 562 l 940 562 l 940 629 l 868 629 z m 724 629 l 724 562 l 795 562 l 795 629 l 724 629 z m 144 629 l 144 562 l 216 562 l 216 629 l 144 629 z m 289 629 l 289 562 l 361 562 l 361 629 l 289 629 z m 795 496 l 795 431 l 868 431 l 868 496 l 795 496 z m 651 496 l 651 431 l 724 431 l 724 496 l 651 496 z m 216 496 l 216 431 l 289 431 l 289 496 l 216 496 z m 72 496 l 72 431 l 144 431 l 144 496 l 72 496 z m 361 496 l 361 431 l 433 431 l 433 496 l 361 496 z m 506 496 l 506 431 l 578 431 l 578 496 l 506 496 z m 868 366 l 868 301 l 940 301 l 940 366 l 868 366 z m 724 366 l 724 301 l 795 301 l 795 366 l 724 366 z m 144 366 l 144 301 l 216 301 l 216 366 l 144 366 z m 289 366 l 289 301 l 361 301 l 361 366 l 289 366 z m 433 366 l 433 301 l 506 301 l 506 366 l 433 366 z m 578 366 l 578 301 l 651 301 l 651 366 l 578 366 z m 216 234 l 216 169 l 289 169 l 289 234 l 216 234 z m 506 234 l 506 169 l 578 169 l 578 234 l 506 234 z m 795 234 l 795 169 l 868 169 l 868 234 l 795 234 z m 651 234 l 651 169 l 724 169 l 724 234 l 651 234 z m 361 234 l 361 169 l 433 169 l 433 234 l 361 234 z m 72 234 l 72 169 l 144 169 l 144 234 l 72 234 z m 724 104 l 724 38 l 795 38 l 795 104 l 724 104 z m 868 104 l 868 38 l 940 38 l 940 104 l 868 104 z m 433 104 l 433 38 l 506 38 l 506 104 l 433 104 z m 578 104 l 578 38 l 651 38 l 651 104 l 578 104 z m 289 104 l 289 38 l 361 38 l 361 104 l 289 104 z m 144 104 l 144 38 l 216 38 l 216 104 l 144 104 z m 216 -28 l 216 -92 l 289 -92 l 289 -28 l 216 -28 z m 72 -28 l 72 -92 l 144 -92 l 144 -28 l 72 -28 z m 361 -28 l 361 -92 l 433 -92 l 433 -28 l 361 -28 z m 506 -28 l 506 -92 l 578 -92 l 578 -28 l 506 -28 z m 651 -28 l 651 -92 l 724 -92 l 724 -28 l 651 -28 z m 795 -28 l 795 -92 l 868 -92 l 868 -28 l 795 -28 z m 578 -159 l 578 -224 l 651 -224 l 651 -159 l 578 -159 z m 433 -159 l 433 -224 l 506 -224 l 506 -159 l 433 -159 z m 289 -159 l 289 -224 l 361 -224 l 361 -159 l 289 -159 z m 144 -159 l 144 -224 l 216 -224 l 216 -159 l 144 -159 z m 868 -159 l 868 -224 l 940 -224 l 940 -159 l 868 -159 z m 724 -159 l 724 -224 l 795 -224 l 795 -159 l 724 -159 z m 795 -290 l 795 -355 l 868 -355 l 868 -290 l 795 -290 z m 651 -290 l 651 -355 l 724 -355 l 724 -290 l 651 -290 z m 506 -290 l 506 -355 l 578 -355 l 578 -290 l 506 -290 z m 361 -290 l 361 -355 l 433 -355 l 433 -290 l 361 -290 z m 72 -290 l 72 -355 l 144 -355 l 144 -290 l 72 -290 z m 216 -290 l 216 -355 l 289 -355 l 289 -290 l 216 -290 z "},"■":{"ha":839,"x_min":83,"x_max":755,"o":"m 83 751 l 755 751 l 755 79 l 83 79 l 83 751 z "},"▬":{"ha":1389,"x_min":0,"x_max":1389,"o":"m 0 418 l 1389 418 l 1389 0 l 0 0 l 0 418 z "},"▲":{"ha":1375,"x_min":281,"x_max":1093,"o":"m 281 0 l 688 812 l 1093 0 l 281 0 z "},"►":{"ha":1375,"x_min":272,"x_max":1103,"o":"m 272 811 l 1103 397 l 272 -18 l 272 811 z "},"▼":{"ha":1375,"x_min":281,"x_max":1093,"o":"m 281 794 l 1093 794 l 688 -18 l 281 794 z "},"◄":{"ha":1375,"x_min":272,"x_max":1103,"o":"m 272 397 l 1103 811 l 1103 -18 l 272 397 z "},"○":{"ha":839,"x_min":113,"x_max":726,"o":"m 113 415 l 113 415 q 154 569 113 498 l 154 569 q 266 681 195 640 q 418 722 336 722 l 418 722 q 572 682 501 722 l 572 682 q 685 569 644 640 q 726 415 726 497 l 726 415 q 685 262 726 333 l 685 262 q 573 151 644 191 q 418 110 502 110 l 418 110 q 265 151 336 110 l 265 151 q 154 262 195 191 q 113 415 113 332 z m 172 415 l 172 415 q 205 292 172 348 l 205 292 q 295 201 238 234 q 418 168 351 168 l 418 168 q 543 201 485 168 l 543 201 q 633 291 600 233 q 667 415 667 349 l 667 415 q 634 540 667 482 l 634 540 q 543 631 601 598 q 418 664 485 664 l 418 664 q 296 631 352 664 l 296 631 q 205 540 238 597 q 172 415 172 483 z "},"◘":{"ha":839,"x_min":28,"x_max":811,"o":"m 28 783 l 811 783 l 811 0 l 28 0 l 28 783 z m 119 391 l 119 391 q 159 242 119 312 l 159 242 q 268 133 199 173 q 418 93 337 93 l 418 93 q 568 133 497 93 l 568 133 q 677 242 637 173 q 717 391 717 312 l 717 391 q 677 541 717 471 l 677 541 q 568 650 637 610 q 418 690 498 690 l 418 690 q 269 650 338 690 l 269 650 q 159 541 199 610 q 119 391 119 471 z "},"◙":{"ha":839,"x_min":28,"x_max":811,"o":"m 28 783 l 811 783 l 811 0 l 28 0 l 28 783 z m 119 391 l 119 391 q 159 242 119 312 l 159 242 q 268 133 199 173 q 418 93 337 93 l 418 93 q 568 133 497 93 l 568 133 q 677 242 637 173 q 717 391 717 312 l 717 391 q 677 541 717 471 l 677 541 q 568 650 637 610 q 418 690 498 690 l 418 690 q 269 650 338 690 l 269 650 q 159 541 199 610 q 119 391 119 471 z m 172 391 l 172 391 q 205 515 172 457 l 205 515 q 296 606 238 572 q 419 639 353 639 l 419 639 q 543 606 485 639 l 543 606 q 633 515 600 572 q 667 391 667 457 l 667 391 q 633 268 667 326 l 633 268 q 543 177 600 210 q 419 144 485 144 l 419 144 q 296 177 353 144 l 296 177 q 205 268 238 210 q 172 391 172 326 z "},"☺":{"ha":1418,"x_min":294,"x_max":1124,"o":"m 1124 396 l 1124 396 q 1091 235 1124 310 q 1002 103 1059 159 q 869 14 945 46 q 709 -18 794 -18 l 709 -18 q 548 14 623 -18 q 416 103 473 46 q 326 235 359 160 q 294 396 294 311 l 294 396 q 326 556 294 481 q 414 688 357 631 q 546 779 471 746 q 709 811 621 811 l 709 811 q 872 778 796 811 q 1004 688 947 745 q 1092 556 1061 631 q 1124 396 1124 481 z m 1063 396 l 1063 396 q 1015 575 1063 494 q 887 703 967 655 q 709 751 806 751 l 709 751 q 458 647 561 751 l 458 647 q 355 396 355 543 l 355 396 q 402 218 355 298 q 531 90 450 138 q 709 41 611 42 l 709 41 q 887 90 807 41 q 1015 218 967 138 q 1063 396 1063 299 z m 603 482 l 603 482 q 587 445 603 460 q 550 429 572 429 l 550 429 q 513 445 528 429 q 498 482 498 460 l 498 482 q 513 519 498 504 q 550 534 528 534 l 550 534 q 587 519 572 534 q 603 482 603 504 z m 920 482 l 920 482 q 905 445 920 460 q 868 429 890 429 l 868 429 q 830 445 846 429 q 814 482 814 460 l 814 482 q 830 519 814 504 q 868 534 846 534 l 868 534 q 905 519 890 534 q 920 482 920 504 z m 517 262 l 557 286 q 709 193 610 193 l 709 193 q 859 286 806 193 l 859 286 l 901 262 q 709 136 835 136 l 709 136 q 517 262 583 136 l 517 262 z "},"☻":{"ha":1461,"x_min":315,"x_max":1145,"o":"m 1145 396 l 1145 396 q 1113 235 1145 310 q 1023 103 1080 159 q 891 14 966 46 q 730 -18 816 -18 l 730 -18 q 570 14 645 -18 q 437 103 494 46 q 348 235 380 160 q 315 396 315 311 l 315 396 q 347 556 315 481 q 436 688 379 631 q 568 779 492 746 q 730 811 643 811 l 730 811 q 893 778 818 811 q 1026 688 969 745 q 1114 556 1082 631 q 1145 396 1145 481 z m 625 482 l 625 482 q 609 519 625 504 q 572 534 593 534 l 572 534 q 535 519 550 534 q 519 482 519 504 l 519 482 q 535 445 519 460 q 572 429 550 429 l 572 429 q 609 445 593 429 q 625 482 625 460 z m 941 482 l 941 482 q 926 519 941 504 q 890 534 911 534 l 890 534 q 852 519 868 534 q 836 482 836 504 l 836 482 q 852 445 836 460 q 890 429 868 429 l 890 429 q 926 445 911 429 q 941 482 941 460 z m 579 286 l 538 262 q 730 136 605 136 l 730 136 q 922 262 857 136 l 922 262 l 880 286 q 730 193 828 193 l 730 193 q 579 286 631 193 l 579 286 z "},"☼":{"ha":1273,"x_min":221,"x_max":1051,"o":"m 659 52 l 659 52 l 659 -96 l 614 -96 l 614 52 q 464 113 532 62 l 464 113 l 336 -9 l 307 21 l 431 146 q 367 298 378 214 l 367 298 l 221 298 l 221 340 l 367 340 q 429 492 375 427 l 429 492 l 307 616 l 334 650 l 463 526 q 614 587 536 578 l 614 587 l 614 734 l 659 734 l 659 587 q 737 570 703 583 q 811 526 770 557 l 811 526 l 937 650 l 968 619 l 843 494 q 905 339 901 418 l 905 339 l 1051 339 l 1051 297 l 905 297 q 843 147 895 213 l 843 147 l 968 20 l 935 -9 l 811 114 q 744 74 775 88 q 659 52 713 60 z m 635 546 l 635 546 q 521 515 572 546 q 440 432 470 484 q 410 319 410 381 l 410 319 q 440 207 410 258 q 522 125 471 156 q 635 94 573 94 l 635 94 q 750 125 699 94 q 831 207 801 155 q 861 319 861 258 l 861 319 q 831 432 861 381 q 749 515 800 484 q 635 546 697 546 z "},"♀":{"ha":1042,"x_min":321,"x_max":720,"o":"m 496 279 l 496 392 q 409 425 446 399 l 409 425 q 349 492 372 451 q 326 585 326 534 l 326 585 q 354 686 326 642 q 426 756 381 731 q 522 782 470 782 l 522 782 q 658 724 602 782 l 658 724 q 716 585 716 667 l 716 585 q 694 494 716 536 q 633 425 671 452 q 547 392 595 398 l 547 392 l 547 279 l 720 279 l 720 232 l 547 232 l 547 54 l 496 54 l 496 232 l 321 232 l 321 279 l 496 279 z m 520 725 l 520 725 q 451 707 483 725 l 451 707 q 400 657 420 689 q 381 586 381 625 l 381 586 q 423 487 381 528 q 520 446 465 446 l 520 446 q 619 488 579 446 l 619 488 q 661 586 661 529 l 661 586 q 642 658 661 626 l 642 658 q 520 725 601 725 z "},"♂":{"ha":1042,"x_min":229,"x_max":813,"o":"m 530 530 l 694 694 q 565 753 593 724 l 565 753 q 559 765 559 756 l 559 765 q 564 777 559 770 l 564 777 q 573 779 567 779 l 573 779 l 595 777 q 682 765 643 765 l 682 765 q 769 774 743 765 l 769 774 q 802 782 793 782 l 802 782 q 813 772 813 782 l 813 772 l 809 754 q 798 647 798 715 l 798 647 q 806 559 798 594 l 806 559 l 809 538 q 806 528 809 531 l 806 528 l 797 524 q 772 546 784 524 l 772 546 q 747 598 759 568 q 726 663 734 629 l 726 663 l 565 501 q 622 372 622 446 l 622 372 q 594 270 622 316 q 522 197 567 224 q 425 170 477 170 l 425 170 q 328 195 372 170 q 256 264 283 220 q 229 363 229 308 l 229 363 q 255 462 229 417 q 326 533 281 507 q 426 559 371 559 l 426 559 q 530 530 475 559 l 530 530 z m 426 509 l 426 509 q 323 467 366 509 q 281 366 281 426 l 281 366 q 324 261 281 301 q 426 221 367 221 l 426 221 q 528 263 486 221 q 569 366 569 306 l 569 366 q 527 467 569 425 q 426 509 485 509 z "},"♠":{"ha":738,"x_min":40,"x_max":698,"o":"m 369 835 l 369 835 q 397 753 380 791 q 450 669 414 714 q 553 561 486 624 l 553 561 q 673 431 650 475 l 673 431 q 698 338 697 385 l 698 338 q 654 229 698 273 q 551 186 610 186 l 551 186 q 377 315 444 186 l 377 315 q 406 151 379 206 l 406 151 q 488 63 433 95 q 633 25 543 31 l 633 25 l 638 0 l 101 0 l 105 25 q 248 58 190 25 l 248 58 q 335 149 306 91 q 365 306 365 208 l 365 306 l 365 315 q 189 186 304 186 l 189 186 q 84 229 128 186 q 40 335 40 273 l 40 335 q 70 441 40 395 q 168 543 100 488 l 168 543 q 271 642 231 597 q 334 733 311 687 q 369 835 357 779 z "},"♣":{"ha":911,"x_min":41,"x_max":871,"o":"m 736 24 l 736 24 l 742 0 l 171 0 l 176 24 q 274 47 237 36 q 335 76 311 59 q 381 119 359 92 l 381 119 q 431 211 413 160 q 449 313 449 261 l 449 313 l 448 345 q 349 223 409 263 q 228 183 288 183 l 228 183 q 132 209 176 183 l 132 209 q 41 372 41 263 l 41 372 q 64 466 41 425 q 124 533 87 508 q 203 558 161 558 l 203 558 q 313 524 245 558 l 313 524 q 290 563 300 545 q 275 595 281 581 l 275 595 q 268 646 268 621 l 268 646 q 293 742 268 701 q 361 806 319 783 q 454 829 404 829 l 454 829 q 550 804 507 829 q 617 738 592 779 q 642 648 642 697 l 642 648 q 595 524 642 590 l 595 524 q 663 553 651 551 l 663 553 q 704 558 679 558 l 704 558 q 821 505 776 558 l 821 505 q 871 375 871 454 l 871 375 q 847 279 871 323 q 781 210 823 236 q 686 184 739 184 l 686 184 q 608 201 647 184 l 608 201 q 536 245 568 218 q 463 345 504 273 l 463 345 q 483 207 466 259 q 536 115 499 155 l 536 115 q 616 56 573 74 q 736 24 659 38 z "},"♥":{"ha":825,"x_min":69,"x_max":755,"o":"m 414 -16 l 414 -16 q 368 104 398 44 l 368 104 q 218 326 337 167 l 218 326 l 157 410 q 87 521 106 477 q 69 610 69 565 l 69 610 q 116 729 69 682 q 232 775 163 775 l 232 775 q 339 736 291 775 q 414 616 388 698 l 414 616 q 485 737 437 697 q 593 777 533 777 l 593 777 q 674 755 637 777 q 733 699 711 734 q 755 618 755 663 l 755 618 q 726 495 755 559 q 621 338 696 431 l 621 338 q 518 200 557 257 q 454 93 478 142 q 414 -16 430 43 z "},"♦":{"ha":709,"x_min":45,"x_max":663,"o":"m 352 829 l 352 829 q 437 698 385 773 q 549 546 489 623 q 663 407 608 469 l 663 407 q 600 333 640 383 q 513 221 559 283 q 425 96 467 159 q 353 -17 382 33 l 353 -17 q 319 41 340 7 q 266 120 297 76 l 266 120 q 153 273 203 209 q 45 407 102 338 l 45 407 q 155 543 98 469 q 265 691 213 616 q 352 829 317 766 z "},"♪":{"ha":694,"x_min":133,"x_max":561,"o":"m 383 549 l 383 205 q 333 71 383 122 q 211 20 283 20 l 211 20 q 153 38 172 20 q 133 87 133 56 l 133 87 q 153 152 133 123 q 204 200 172 182 q 271 218 235 218 l 271 218 q 332 205 301 218 l 332 205 l 332 782 l 383 782 l 383 714 l 487 583 q 561 368 561 484 l 561 368 q 497 184 561 267 l 497 184 l 465 184 q 504 353 504 271 l 504 353 q 486 449 504 407 q 440 518 467 492 q 383 549 412 544 l 383 549 z "},"♫":{"ha":1042,"x_min":184,"x_max":857,"o":"m 857 786 l 857 220 q 838 129 857 167 l 838 129 q 778 62 820 90 q 687 33 736 33 l 687 33 q 610 102 610 33 l 610 102 q 651 194 610 157 q 745 232 692 232 l 745 232 q 806 220 778 232 l 806 220 l 806 524 l 433 422 l 433 155 q 387 23 433 76 q 262 -29 340 -29 l 262 -29 q 204 -11 224 -29 q 184 37 184 7 l 184 37 q 204 102 184 72 q 255 151 224 132 q 322 168 287 170 l 322 168 q 383 155 353 168 l 383 155 l 383 665 l 857 786 z m 806 689 l 433 586 l 433 509 l 806 610 l 806 689 z "},"Ĳ":{"ha":1021,"x_min":115,"x_max":918,"o":"m 115 956 l 245 956 l 245 0 l 115 0 l 115 956 z m 636 -14 l 636 -14 q 443 49 515 -14 q 348 237 371 112 l 348 237 l 475 258 q 530 136 487 180 q 637 92 572 92 l 637 92 q 748 140 707 92 q 789 282 789 189 l 789 282 l 789 850 l 605 850 l 605 956 l 918 956 l 918 285 q 842 66 918 146 q 636 -14 767 -14 z "},"ĳ":{"ha":616,"x_min":93,"x_max":523,"o":"m 93 1006 l 215 1006 l 215 890 l 93 890 l 93 1006 z m 93 734 l 215 734 l 215 0 l 93 0 l 93 734 z m 401 1006 l 523 1006 l 523 890 l 401 890 l 401 1006 z m 360 -288 l 360 -288 q 274 -282 307 -288 l 274 -282 l 274 -188 q 295 -191 285 -189 q 316 -192 305 -192 l 316 -192 q 382 -168 363 -192 q 401 -73 401 -143 l 401 -73 l 401 734 l 523 734 l 523 -91 q 482 -241 523 -195 q 360 -288 441 -288 z "},"ŉ":{"ha":839,"x_min":-1,"x_max":749,"o":"m 285 425 l 285 425 l 285 0 l 163 0 l 163 577 q 162 681 163 642 q 159 734 161 720 l 159 734 l 274 734 q 276 701 275 721 q 278 658 277 682 q 279 608 279 634 l 279 608 l 281 608 q 379 716 323 684 q 516 747 434 747 l 516 747 q 693 686 637 747 q 749 489 749 624 l 749 489 l 749 0 l 626 0 l 626 465 q 592 612 626 570 q 475 653 558 653 l 475 653 q 336 593 387 653 q 285 425 285 532 z m 135 956 l 135 857 q 122 738 135 786 q 82 646 109 689 l 82 646 l -1 646 q 62 822 62 738 l 62 822 l 3 822 l 3 956 l 135 956 z "},"′":{"ha":260,"x_min":58,"x_max":234,"o":"m 101 956 l 234 956 l 127 604 l 58 604 l 101 956 z "},"″":{"ha":492,"x_min":58,"x_max":466,"o":"m 101 956 l 234 956 l 127 604 l 58 604 l 101 956 z m 333 956 l 466 956 l 359 604 l 290 604 l 333 956 z "},"℅":{"ha":1230,"x_min":47,"x_max":1183,"o":"m 281 354 l 281 354 q 107 433 167 354 q 47 659 47 511 l 47 659 q 106 884 47 805 q 281 963 166 963 l 281 963 q 421 915 366 963 q 489 787 476 867 l 489 787 l 392 780 q 357 858 385 829 q 278 886 329 886 l 278 886 q 175 831 205 886 q 146 661 146 775 l 146 661 q 179 489 146 547 q 279 431 212 431 l 279 431 q 357 459 326 431 q 397 546 389 487 l 397 546 l 492 540 q 427 406 483 457 q 281 354 370 354 z m 875 956 l 981 956 l 355 0 l 250 0 l 875 956 z m 1183 294 l 1183 294 q 1128 70 1183 149 q 966 -8 1073 -8 l 966 -8 q 806 68 860 -8 q 752 294 752 144 l 752 294 q 804 525 752 449 q 968 600 856 600 l 968 600 q 1131 523 1080 600 q 1183 294 1183 445 z m 1082 294 l 1082 294 q 1056 470 1082 416 q 968 525 1030 525 l 968 525 q 879 471 907 525 q 852 294 852 418 l 852 294 q 879 122 852 178 q 967 66 905 66 l 967 66 q 1055 123 1027 66 q 1082 294 1082 180 z "},"ℓ":{"ha":449,"x_min":13,"x_max":433,"o":"m 294 53 l 294 53 q 352 89 329 53 q 386 197 375 125 l 386 197 l 433 197 q 378 40 419 93 q 264 -14 338 -14 l 264 -14 q 145 40 189 -14 q 102 199 102 94 l 102 199 l 102 318 q 63 299 85 309 q 13 279 41 290 l 13 279 l 13 328 q 62 349 40 339 q 102 368 85 359 l 102 368 l 102 766 q 147 917 102 865 q 275 969 191 969 l 275 969 q 380 916 343 969 q 418 766 418 863 l 418 766 q 363 529 418 637 q 215 368 309 421 l 215 368 l 215 202 q 237 93 215 133 q 294 53 258 53 z m 356 761 l 356 761 q 337 875 356 833 q 283 918 318 918 l 283 918 q 232 882 249 918 q 215 766 215 846 l 215 766 l 215 422 q 318 557 279 465 q 356 761 356 649 z "},"□":{"ha":839,"x_min":4,"x_max":835,"o":"m 4 831 l 835 831 l 835 0 l 4 0 l 4 831 z m 56 779 l 56 52 l 783 52 l 783 779 l 56 779 z "},"▪":{"ha":492,"x_min":74,"x_max":418,"o":"m 74 604 l 418 604 l 418 260 l 74 260 l 74 604 z "},"▫":{"ha":492,"x_min":74,"x_max":418,"o":"m 74 604 l 418 604 l 418 260 l 74 260 l 74 604 z m 125 551 l 125 311 l 367 311 l 367 551 l 125 551 z "},"●":{"ha":839,"x_min":121,"x_max":718,"o":"m 419 690 l 419 690 q 568 651 494 690 l 568 651 q 650 583 616 625 q 701 490 684 540 q 718 392 718 440 l 718 392 q 678 241 718 309 q 570 133 637 174 q 419 93 502 93 l 419 93 q 269 133 337 93 q 161 242 201 174 q 121 392 121 310 l 121 392 q 159 538 121 465 l 159 538 q 269 650 197 610 q 419 690 342 690 z "},"◦":{"ha":492,"x_min":78,"x_max":414,"o":"m 414 432 l 414 432 q 391 346 414 384 q 329 286 367 307 q 246 264 290 264 l 246 264 q 162 286 200 264 l 162 286 q 101 347 124 308 q 78 432 78 385 l 78 432 q 101 517 78 479 q 162 577 124 555 q 246 600 201 600 l 246 600 q 364 550 316 600 l 364 550 q 414 432 414 502 z m 363 432 l 363 432 q 328 514 363 480 q 246 549 294 549 l 246 549 q 164 514 199 549 q 130 432 130 479 l 130 432 q 163 350 130 384 q 246 315 196 315 l 246 315 q 331 351 298 315 q 363 432 363 387 z "},"Ā":{"ha":926,"x_min":3,"x_max":924,"o":"m 682 279 l 247 279 l 137 0 l 3 0 l 393 956 l 540 956 l 924 0 l 791 0 l 682 279 z m 465 858 l 465 858 q 437 773 453 820 q 408 692 421 727 l 408 692 l 286 380 l 644 380 l 521 696 q 496 763 511 720 q 465 858 480 806 z m 279 1061 l 279 1147 l 651 1147 l 651 1061 l 279 1061 z "},"ā":{"ha":772,"x_min":59,"x_max":772,"o":"m 281 -14 l 281 -14 q 115 45 170 -14 q 59 205 59 103 l 59 205 q 134 380 59 319 q 376 445 209 441 l 376 445 l 541 448 l 541 488 q 503 616 541 577 q 383 654 465 654 l 383 654 q 264 627 301 654 q 219 538 227 599 l 219 538 l 92 549 q 386 747 123 747 l 386 747 q 594 684 524 747 q 664 500 664 621 l 664 500 l 664 184 q 678 103 664 130 q 732 75 692 75 l 732 75 q 772 80 751 75 l 772 80 l 772 4 q 726 -4 749 -1 q 678 -7 702 -7 l 678 -7 q 579 29 610 -7 q 545 140 549 64 l 545 140 l 541 140 q 432 21 494 56 q 281 -14 370 -14 z m 541 302 l 541 362 l 407 359 q 277 342 321 359 l 277 342 q 208 292 232 326 q 184 203 184 258 l 184 203 q 217 111 184 143 q 309 78 249 78 l 309 78 q 428 109 376 78 l 428 109 q 510 192 480 139 q 541 302 541 245 l 541 302 z m 193 838 l 193 924 l 565 924 l 565 838 l 193 838 z "},"Ĉ":{"ha":1003,"x_min":71,"x_max":950,"o":"m 543 93 l 543 93 q 844 292 743 93 l 844 292 l 950 239 q 784 51 891 115 q 536 -14 677 -14 l 536 -14 q 287 47 391 -14 q 126 219 182 107 q 71 482 71 330 l 71 482 q 126 744 71 635 q 286 911 182 853 q 536 970 391 970 l 536 970 q 791 910 688 970 q 941 733 893 850 l 941 733 l 819 692 q 712 820 785 776 q 537 864 638 864 l 537 864 q 290 762 378 864 q 202 482 202 660 l 202 482 q 244 278 202 366 q 362 141 286 190 q 543 93 438 93 z m 382 1038 l 312 1038 l 312 1051 l 471 1214 l 609 1214 l 761 1051 l 761 1038 l 690 1038 l 541 1132 l 540 1132 l 382 1038 z "},"ĉ":{"ha":694,"x_min":59,"x_max":658,"o":"m 375 -14 l 375 -14 q 140 84 221 -14 q 59 368 59 181 l 59 368 q 140 650 59 553 q 374 747 222 747 l 374 747 q 561 689 486 747 q 654 528 635 631 l 654 528 l 528 519 q 480 616 519 580 q 370 652 441 652 l 370 652 q 230 587 273 652 q 186 370 186 523 l 186 370 q 233 153 186 224 q 372 83 279 83 l 372 83 q 480 118 437 83 q 534 227 524 153 l 534 227 l 658 218 q 611 96 648 148 q 513 15 573 43 q 375 -14 453 -14 z m 212 814 l 142 814 l 142 828 l 300 1011 l 439 1011 l 591 828 l 591 814 l 519 814 l 371 929 l 370 929 l 212 814 z "},"Ċ":{"ha":1003,"x_min":71,"x_max":950,"o":"m 543 93 l 543 93 q 844 292 743 93 l 844 292 l 950 239 q 784 51 891 115 q 536 -14 677 -14 l 536 -14 q 287 47 391 -14 q 126 219 182 107 q 71 482 71 330 l 71 482 q 126 744 71 635 q 286 911 182 853 q 536 970 391 970 l 536 970 q 791 910 688 970 q 941 733 893 850 l 941 733 l 819 692 q 712 820 785 776 q 537 864 638 864 l 537 864 q 290 762 378 864 q 202 482 202 660 l 202 482 q 244 278 202 366 q 362 141 286 190 q 543 93 438 93 z m 476 1205 l 598 1205 l 598 1088 l 476 1088 l 476 1205 z "},"ċ":{"ha":694,"x_min":59,"x_max":658,"o":"m 375 -14 l 375 -14 q 140 84 221 -14 q 59 368 59 181 l 59 368 q 140 650 59 553 q 374 747 222 747 l 374 747 q 561 689 486 747 q 654 528 635 631 l 654 528 l 528 519 q 480 616 519 580 q 370 652 441 652 l 370 652 q 230 587 273 652 q 186 370 186 523 l 186 370 q 233 153 186 224 q 372 83 279 83 l 372 83 q 480 118 437 83 q 534 227 524 153 l 534 227 l 658 218 q 611 96 648 148 q 513 15 573 43 q 375 -14 453 -14 z m 309 1006 l 431 1006 l 431 890 l 309 890 l 309 1006 z "},"Ē":{"ha":926,"x_min":114,"x_max":867,"o":"m 243 106 l 867 106 l 867 0 l 114 0 l 114 956 l 839 956 l 839 850 l 243 850 l 243 543 l 798 543 l 798 439 l 243 439 l 243 106 z m 291 1061 l 291 1147 l 663 1147 l 663 1061 l 291 1061 z "},"ē":{"ha":772,"x_min":59,"x_max":711,"o":"m 711 341 l 187 341 q 239 146 187 215 q 392 78 292 78 l 392 78 q 519 110 471 78 q 584 191 567 142 l 584 191 l 691 160 q 392 -14 625 -14 l 392 -14 q 144 83 229 -14 q 59 372 59 180 l 59 372 q 144 650 59 553 q 387 747 229 747 l 387 747 q 630 650 549 747 q 711 357 711 552 l 711 357 l 711 341 z m 189 435 l 585 435 q 526 604 574 551 q 385 657 477 657 l 385 657 q 244 598 296 657 q 189 435 193 538 l 189 435 z m 201 838 l 201 924 l 573 924 l 573 838 l 201 838 z "},"Ĕ":{"ha":926,"x_min":114,"x_max":867,"o":"m 243 106 l 867 106 l 867 0 l 114 0 l 114 956 l 839 956 l 839 850 l 243 850 l 243 543 l 798 543 l 798 439 l 243 439 l 243 106 z m 475 1038 l 475 1038 q 324 1084 385 1038 q 250 1206 262 1131 l 250 1206 l 330 1206 q 378 1150 341 1171 q 477 1130 415 1130 l 477 1130 q 575 1151 538 1130 q 623 1206 611 1171 l 623 1206 l 702 1206 q 627 1083 688 1129 q 475 1038 566 1038 z "},"ĕ":{"ha":772,"x_min":59,"x_max":711,"o":"m 711 341 l 187 341 q 239 146 187 215 q 392 78 292 78 l 392 78 q 519 110 471 78 q 584 191 567 142 l 584 191 l 691 160 q 392 -14 625 -14 l 392 -14 q 144 83 229 -14 q 59 372 59 180 l 59 372 q 144 650 59 553 q 387 747 229 747 l 387 747 q 630 650 549 747 q 711 357 711 552 l 711 357 l 711 341 z m 189 435 l 585 435 q 526 604 574 551 q 385 657 477 657 l 385 657 q 244 598 296 657 q 189 435 193 538 l 189 435 z m 386 814 l 386 814 q 235 872 296 814 q 161 1024 173 930 l 161 1024 l 240 1024 q 287 946 250 972 q 387 920 323 920 l 387 920 q 487 946 450 920 q 533 1024 524 972 l 533 1024 l 612 1024 q 537 871 598 928 q 386 814 477 814 z "},"Ė":{"ha":926,"x_min":114,"x_max":867,"o":"m 243 106 l 867 106 l 867 0 l 114 0 l 114 956 l 839 956 l 839 850 l 243 850 l 243 543 l 798 543 l 798 439 l 243 439 l 243 106 z m 416 1205 l 538 1205 l 538 1088 l 416 1088 l 416 1205 z "},"ė":{"ha":772,"x_min":59,"x_max":711,"o":"m 711 341 l 187 341 q 239 146 187 215 q 392 78 292 78 l 392 78 q 519 110 471 78 q 584 191 567 142 l 584 191 l 691 160 q 392 -14 625 -14 l 392 -14 q 144 83 229 -14 q 59 372 59 180 l 59 372 q 144 650 59 553 q 387 747 229 747 l 387 747 q 630 650 549 747 q 711 357 711 552 l 711 357 l 711 341 z m 189 435 l 585 435 q 526 604 574 551 q 385 657 477 657 l 385 657 q 244 598 296 657 q 189 435 193 538 l 189 435 z m 326 1006 l 448 1006 l 448 890 l 326 890 l 326 1006 z "},"Ĝ":{"ha":1080,"x_min":70,"x_max":977,"o":"m 551 92 l 551 92 q 726 120 645 92 q 857 197 807 149 l 857 197 l 857 370 l 572 370 l 572 478 l 977 478 l 977 149 q 790 29 901 71 q 551 -14 680 -14 l 551 -14 q 294 47 402 -14 q 128 219 186 107 q 70 482 70 330 l 70 482 q 195 842 70 715 q 545 970 319 970 l 545 970 q 803 916 704 970 q 956 745 902 863 l 956 745 l 832 708 q 720 827 791 789 q 542 864 648 864 l 542 864 q 289 764 376 864 q 201 482 201 664 l 201 482 q 294 196 201 301 q 551 92 387 92 z m 393 1038 l 322 1038 l 322 1051 l 481 1214 l 619 1214 l 771 1051 l 771 1038 l 700 1038 l 551 1132 l 550 1132 l 393 1038 z "},"ĝ":{"ha":772,"x_min":58,"x_max":683,"o":"m 372 -288 l 372 -288 q 180 -241 252 -288 q 89 -107 109 -194 l 89 -107 l 212 -90 q 266 -168 224 -140 q 375 -195 307 -195 l 375 -195 q 512 -142 466 -195 q 557 18 557 -88 l 557 18 l 557 136 l 556 136 q 461 30 522 66 q 320 -5 401 -5 l 320 -5 q 122 84 185 -5 q 58 366 58 174 l 58 366 q 126 653 58 560 q 334 745 195 745 l 334 745 q 469 710 412 745 q 557 608 526 674 l 557 608 l 559 608 q 560 651 559 622 q 564 705 562 680 q 567 734 566 731 l 567 734 l 683 734 q 679 582 679 697 l 679 582 l 679 21 q 602 -211 679 -134 q 372 -288 526 -288 z m 557 367 l 557 367 q 503 577 557 500 q 363 654 448 654 l 363 654 q 227 587 270 654 q 184 367 184 519 l 184 367 q 224 151 184 216 q 361 85 264 85 l 361 85 q 503 160 448 85 q 557 367 557 236 z m 218 814 l 147 814 l 147 828 l 306 1011 l 444 1011 l 596 828 l 596 814 l 525 814 l 376 929 l 375 929 l 218 814 z "},"Ġ":{"ha":1080,"x_min":70,"x_max":977,"o":"m 551 92 l 551 92 q 726 120 645 92 q 857 197 807 149 l 857 197 l 857 370 l 572 370 l 572 478 l 977 478 l 977 149 q 790 29 901 71 q 551 -14 680 -14 l 551 -14 q 294 47 402 -14 q 128 219 186 107 q 70 482 70 330 l 70 482 q 195 842 70 715 q 545 970 319 970 l 545 970 q 803 916 704 970 q 956 745 902 863 l 956 745 l 832 708 q 720 827 791 789 q 542 864 648 864 l 542 864 q 289 764 376 864 q 201 482 201 664 l 201 482 q 294 196 201 301 q 551 92 387 92 z m 489 1205 l 611 1205 l 611 1088 l 489 1088 l 489 1205 z "},"ġ":{"ha":772,"x_min":58,"x_max":683,"o":"m 372 -288 l 372 -288 q 180 -241 252 -288 q 89 -107 109 -194 l 89 -107 l 212 -90 q 266 -168 224 -140 q 375 -195 307 -195 l 375 -195 q 512 -142 466 -195 q 557 18 557 -88 l 557 18 l 557 136 l 556 136 q 461 30 522 66 q 320 -5 401 -5 l 320 -5 q 122 84 185 -5 q 58 366 58 174 l 58 366 q 126 653 58 560 q 334 745 195 745 l 334 745 q 469 710 412 745 q 557 608 526 674 l 557 608 l 559 608 q 560 651 559 622 q 564 705 562 680 q 567 734 566 731 l 567 734 l 683 734 q 679 582 679 697 l 679 582 l 679 21 q 602 -211 679 -134 q 372 -288 526 -288 z m 557 367 l 557 367 q 503 577 557 500 q 363 654 448 654 l 363 654 q 227 587 270 654 q 184 367 184 519 l 184 367 q 224 151 184 216 q 361 85 264 85 l 361 85 q 503 160 448 85 q 557 367 557 236 z m 310 1006 l 432 1006 l 432 890 l 310 890 l 310 1006 z "},"Ģ":{"ha":1080,"x_min":70,"x_max":977,"o":"m 551 92 l 551 92 q 726 120 645 92 q 857 197 807 149 l 857 197 l 857 370 l 572 370 l 572 478 l 977 478 l 977 149 q 790 29 901 71 q 551 -14 680 -14 l 551 -14 q 294 47 402 -14 q 128 219 186 107 q 70 482 70 330 l 70 482 q 195 842 70 715 q 545 970 319 970 l 545 970 q 803 916 704 970 q 956 745 902 863 l 956 745 l 832 708 q 720 827 791 789 q 542 864 648 864 l 542 864 q 289 764 376 864 q 201 482 201 664 l 201 482 q 294 196 201 301 q 551 92 387 92 z m 623 -66 l 623 -131 q 608 -226 623 -190 q 566 -294 593 -262 l 566 -294 l 486 -294 q 533 -233 517 -262 q 550 -172 550 -203 l 550 -172 l 490 -172 l 490 -66 l 623 -66 z "},"ģ":{"ha":772,"x_min":58,"x_max":683,"o":"m 372 -288 l 372 -288 q 180 -241 252 -288 q 89 -107 109 -194 l 89 -107 l 212 -90 q 266 -168 224 -140 q 375 -195 307 -195 l 375 -195 q 512 -142 466 -195 q 557 18 557 -88 l 557 18 l 557 136 l 556 136 q 461 30 522 66 q 320 -5 401 -5 l 320 -5 q 122 84 185 -5 q 58 366 58 174 l 58 366 q 126 653 58 560 q 334 745 195 745 l 334 745 q 469 710 412 745 q 557 608 526 674 l 557 608 l 559 608 q 560 651 559 622 q 564 705 562 680 q 567 734 566 731 l 567 734 l 683 734 q 679 582 679 697 l 679 582 l 679 21 q 602 -211 679 -134 q 372 -288 526 -288 z m 557 367 l 557 367 q 503 577 557 500 q 363 654 448 654 l 363 654 q 227 587 270 654 q 184 367 184 519 l 184 367 q 224 151 184 216 q 361 85 264 85 l 361 85 q 503 160 448 85 q 557 367 557 236 z m 300 821 l 300 893 q 315 992 300 952 q 357 1063 330 1031 l 357 1063 l 436 1063 q 372 935 372 996 l 372 935 l 432 935 l 432 821 l 300 821 z "},"Ĥ":{"ha":1003,"x_min":114,"x_max":890,"o":"m 760 443 l 243 443 l 243 0 l 114 0 l 114 956 l 243 956 l 243 551 l 760 551 l 760 956 l 890 956 l 890 0 l 760 0 l 760 443 z m 348 1038 l 277 1038 l 277 1051 l 436 1214 l 574 1214 l 726 1051 l 726 1038 l 655 1038 l 507 1132 l 505 1132 l 348 1038 z "},"ĥ":{"ha":772,"x_min":96,"x_max":682,"o":"m 213 608 l 215 608 q 310 714 254 680 q 450 747 365 747 l 450 747 q 626 685 569 747 q 682 489 682 623 l 682 489 l 682 0 l 559 0 l 559 465 q 525 609 559 565 q 408 653 490 653 l 408 653 q 270 593 322 653 q 218 433 218 534 l 218 433 l 218 0 l 96 0 l 96 1006 l 218 1006 l 218 745 q 217 687 218 718 q 215 635 216 657 q 213 608 214 613 l 213 608 z m 235 1081 l 164 1081 l 164 1095 l 323 1257 l 461 1257 l 613 1095 l 613 1081 l 542 1081 l 393 1175 l 392 1175 l 235 1081 z "},"Ħ":{"ha":1003,"x_min":9,"x_max":994,"o":"m 764 443 l 243 443 l 243 0 l 114 0 l 114 695 l 9 695 l 9 800 l 114 800 l 114 956 l 243 956 l 243 800 l 764 800 l 764 956 l 890 956 l 890 800 l 994 800 l 994 695 l 890 695 l 890 0 l 764 0 l 764 443 z m 243 695 l 243 551 l 764 551 l 764 695 l 243 695 z "},"ħ":{"ha":772,"x_min":7,"x_max":682,"o":"m 213 581 l 215 581 q 310 687 254 653 q 450 720 365 720 l 450 720 q 626 656 569 720 q 682 462 682 593 l 682 462 l 682 0 l 559 0 l 559 438 q 527 581 559 536 q 408 626 495 626 l 408 626 q 270 566 322 626 q 218 406 218 507 l 218 406 l 218 0 l 96 0 l 96 818 l 7 818 l 7 907 l 96 907 l 96 1006 l 218 1006 l 218 907 l 422 907 l 422 818 l 218 818 l 218 718 q 217 660 218 690 q 215 608 216 630 q 213 581 214 586 l 213 581 z "},"Ĩ":{"ha":386,"x_min":-49,"x_max":437,"o":"m 128 956 l 258 956 l 258 0 l 128 0 l 128 956 z m 300 1038 l 300 1038 q 248 1049 275 1038 q 196 1075 222 1061 l 196 1075 q 142 1104 168 1090 q 93 1118 116 1118 l 93 1118 q 37 1097 56 1118 q 13 1038 19 1076 l 13 1038 l -49 1038 q -2 1181 -38 1143 q 89 1219 35 1219 l 89 1219 q 147 1206 118 1219 q 204 1176 176 1192 l 204 1176 q 253 1150 229 1162 q 296 1139 276 1139 l 296 1139 q 350 1159 330 1139 q 375 1219 370 1179 l 375 1219 l 437 1219 q 392 1078 426 1119 q 300 1038 358 1038 z "},"ĩ":{"ha":386,"x_min":-49,"x_max":437,"o":"m 132 734 l 254 734 l 254 0 l 132 0 l 132 734 z m 300 814 l 300 814 q 246 827 273 814 q 192 854 218 840 l 192 854 q 140 883 165 870 q 93 895 115 895 l 93 895 q 37 874 56 895 q 13 814 19 853 l 13 814 l -49 814 q -2 957 -37 918 q 89 996 33 996 l 89 996 q 148 982 119 996 q 205 952 178 968 l 205 952 q 253 927 231 938 q 296 916 276 916 l 296 916 q 350 936 330 916 q 375 996 370 956 l 375 996 l 437 996 q 392 855 426 896 q 300 814 358 814 z "},"Ī":{"ha":386,"x_min":8,"x_max":380,"o":"m 128 956 l 258 956 l 258 0 l 128 0 l 128 956 z m 8 1061 l 8 1147 l 380 1147 l 380 1061 l 8 1061 z "},"ī":{"ha":386,"x_min":8,"x_max":380,"o":"m 132 734 l 254 734 l 254 0 l 132 0 l 132 734 z m 8 838 l 8 924 l 380 924 l 380 838 l 8 838 z "},"Ĭ":{"ha":386,"x_min":-31,"x_max":420,"o":"m 128 956 l 258 956 l 258 0 l 128 0 l 128 956 z m 194 1038 l 194 1038 q 42 1084 104 1038 q -31 1206 -19 1131 l -31 1206 l 48 1206 q 97 1150 60 1171 q 195 1130 134 1130 l 195 1130 q 293 1151 257 1130 q 341 1206 330 1171 l 341 1206 l 420 1206 q 345 1083 406 1129 q 194 1038 284 1038 z "},"ĭ":{"ha":386,"x_min":-31,"x_max":420,"o":"m 132 734 l 254 734 l 254 0 l 132 0 l 132 734 z m 194 814 l 194 814 q 43 872 104 814 q -31 1024 -19 930 l -31 1024 l 48 1024 q 95 946 58 972 q 195 920 132 920 l 195 920 q 295 946 258 920 q 341 1024 332 972 l 341 1024 l 420 1024 q 346 871 406 928 q 194 814 285 814 z "},"Į":{"ha":386,"x_min":62,"x_max":300,"o":"m 128 956 l 258 956 l 258 0 l 128 0 l 128 956 z m 300 -199 l 300 -271 q 205 -290 257 -290 l 205 -290 q 98 -255 134 -290 q 62 -163 62 -220 l 62 -163 q 92 -71 62 -115 q 168 0 121 -26 l 168 0 l 258 0 q 190 -62 221 -20 q 158 -154 158 -104 l 158 -154 q 175 -199 158 -182 q 222 -215 191 -215 l 222 -215 q 300 -199 258 -215 l 300 -199 z "},"į":{"ha":309,"x_min":21,"x_max":258,"o":"m 93 1006 l 215 1006 l 215 890 l 93 890 l 93 1006 z m 93 734 l 215 734 l 215 0 l 93 0 l 93 734 z m 258 -199 l 258 -271 q 164 -290 216 -290 l 164 -290 q 57 -255 93 -290 q 21 -163 21 -220 l 21 -163 q 51 -71 21 -115 q 126 0 80 -26 l 126 0 l 216 0 q 148 -62 180 -20 q 117 -154 117 -104 l 117 -154 q 133 -199 117 -182 q 180 -215 150 -215 l 180 -215 q 258 -199 217 -215 l 258 -199 z "},"Ĵ":{"ha":694,"x_min":22,"x_max":660,"o":"m 310 -14 l 310 -14 q 117 49 189 -14 q 22 237 45 112 l 22 237 l 149 258 q 203 136 161 180 q 311 92 246 92 l 311 92 q 422 140 381 92 q 463 282 463 189 l 463 282 l 463 850 l 279 850 l 279 956 l 591 956 l 591 285 q 516 66 591 146 q 310 -14 441 -14 z m 281 1038 l 211 1038 l 211 1051 l 370 1214 l 508 1214 l 660 1051 l 660 1038 l 589 1038 l 440 1132 l 439 1132 l 281 1038 z "},"ĵ":{"ha":309,"x_min":-70,"x_max":379,"o":"m 159 929 l 158 929 l 1 814 l -70 814 l -70 828 l 89 1011 l 227 1011 l 379 828 l 379 814 l 308 814 l 159 929 z m 52 -288 l 52 -288 q -34 -282 -1 -288 l -34 -282 l -34 -188 l 8 -192 q 74 -168 55 -192 q 93 -73 93 -143 l 93 -73 l 93 734 l 215 734 l 215 -91 q 174 -241 215 -195 q 52 -288 134 -288 z "},"Ķ":{"ha":926,"x_min":114,"x_max":911,"o":"m 368 461 l 243 366 l 243 0 l 114 0 l 114 956 l 243 956 l 243 477 l 704 956 l 857 956 l 450 541 l 911 0 l 750 0 l 368 461 z m 546 -66 l 546 -131 q 531 -226 546 -190 q 489 -294 516 -262 l 489 -294 l 410 -294 q 457 -233 440 -262 q 473 -172 473 -203 l 473 -172 l 414 -172 l 414 -66 l 546 -66 z "},"ķ":{"ha":694,"x_min":94,"x_max":696,"o":"m 305 335 l 216 261 l 216 0 l 94 0 l 94 1006 l 216 1006 l 216 378 l 538 734 l 681 734 l 383 418 l 696 0 l 553 0 l 305 335 z m 449 -66 l 449 -131 q 434 -226 449 -190 q 392 -294 419 -262 l 392 -294 l 313 -294 q 360 -233 343 -262 q 376 -172 376 -203 l 376 -172 l 317 -172 l 317 -66 l 449 -66 z "},"ĸ":{"ha":694,"x_min":94,"x_max":696,"o":"m 305 335 l 216 262 l 216 0 l 94 0 l 94 734 l 216 734 l 216 378 l 538 734 l 681 734 l 383 418 l 696 0 l 553 0 l 305 335 z "},"Ļ":{"ha":772,"x_min":114,"x_max":726,"o":"m 243 106 l 726 106 l 726 0 l 114 0 l 114 956 l 243 956 l 243 106 z m 486 -66 l 486 -131 q 471 -226 486 -190 q 429 -294 456 -262 l 429 -294 l 350 -294 q 397 -233 380 -262 q 414 -172 414 -203 l 414 -172 l 354 -172 l 354 -66 l 486 -66 z "},"ļ":{"ha":309,"x_min":85,"x_max":222,"o":"m 94 1006 l 216 1006 l 216 0 l 94 0 l 94 1006 z m 222 -66 l 222 -131 q 207 -226 222 -190 q 165 -294 192 -262 l 165 -294 l 85 -294 q 133 -233 116 -262 q 149 -172 149 -203 l 149 -172 l 90 -172 l 90 -66 l 222 -66 z "},"Ņ":{"ha":1003,"x_min":114,"x_max":890,"o":"m 229 635 l 229 635 l 229 0 l 114 0 l 114 956 l 264 956 l 781 136 q 773 329 773 270 l 773 329 l 773 956 l 890 956 l 890 0 l 734 0 l 222 814 q 227 724 224 769 q 229 635 229 680 z m 567 -66 l 567 -131 q 552 -226 567 -190 q 510 -294 537 -262 l 510 -294 l 431 -294 q 478 -233 461 -262 q 494 -172 494 -203 l 494 -172 l 435 -172 l 435 -66 l 567 -66 z "},"ņ":{"ha":772,"x_min":95,"x_max":685,"o":"m 221 425 l 221 425 l 221 0 l 99 0 l 99 577 q 98 681 99 642 q 95 734 97 720 l 95 734 l 210 734 q 213 701 212 721 q 214 658 214 682 q 216 608 215 634 l 216 608 l 218 608 q 315 716 260 684 q 452 747 370 747 l 452 747 q 629 686 573 747 q 685 489 685 624 l 685 489 l 685 0 l 562 0 l 562 465 q 528 612 562 570 q 411 653 494 653 l 411 653 q 272 593 323 653 q 221 425 221 532 z m 458 -66 l 458 -131 q 443 -226 458 -190 q 401 -294 428 -262 l 401 -294 l 321 -294 q 369 -233 352 -262 q 385 -172 385 -203 l 385 -172 l 326 -172 l 326 -66 l 458 -66 z "},"Ŋ":{"ha":1004,"x_min":112,"x_max":903,"o":"m 638 -14 l 638 -14 q 518 12 574 -14 q 422 87 463 37 l 422 87 l 509 165 q 572 109 539 127 q 642 90 606 90 l 642 90 q 762 199 736 90 l 762 199 q 774 370 774 252 l 774 370 l 774 589 q 721 799 774 733 q 548 864 668 864 l 548 864 q 397 829 467 864 l 397 829 q 285 733 326 793 q 244 604 244 673 l 244 604 l 244 0 l 115 0 l 115 741 l 112 956 l 237 956 q 240 861 239 903 q 241 785 241 819 l 241 785 l 244 785 q 385 921 293 873 q 587 969 477 969 l 587 969 q 829 882 754 969 q 903 603 903 794 l 903 603 l 903 368 q 878 145 903 229 q 793 24 852 62 q 638 -14 735 -14 z "},"ŋ":{"ha":772,"x_min":95,"x_max":685,"o":"m 522 -288 l 522 -288 q 435 -282 469 -288 l 435 -282 l 435 -188 l 477 -192 q 543 -168 524 -192 q 562 -73 562 -143 l 562 -73 l 562 465 q 532 609 562 564 q 411 653 501 653 l 411 653 q 272 593 323 653 q 221 425 221 532 l 221 425 l 221 0 l 99 0 l 99 577 q 98 681 99 642 q 95 734 97 720 l 95 734 l 210 734 q 212 719 211 732 q 214 679 212 705 q 216 608 215 652 l 216 608 l 218 608 q 315 716 260 684 q 452 747 370 747 l 452 747 q 629 687 573 747 q 685 489 685 627 l 685 489 l 685 -91 q 644 -241 685 -193 q 522 -288 604 -288 z "},"Ō":{"ha":1080,"x_min":66,"x_max":1014,"o":"m 1014 482 l 1014 482 q 956 218 1014 329 q 791 46 898 106 q 539 -14 685 -14 l 539 -14 q 287 46 393 -14 q 123 217 180 106 q 66 482 66 328 l 66 482 q 122 744 66 635 q 285 911 179 853 q 541 970 391 970 l 541 970 q 793 912 687 970 q 957 746 899 854 q 1014 482 1014 637 z m 882 482 l 882 482 q 792 762 882 661 q 541 864 703 864 l 541 864 q 287 764 376 864 q 197 482 197 663 l 197 482 q 238 275 197 363 q 355 139 279 187 q 539 92 432 92 l 539 92 q 793 194 705 92 q 882 482 882 296 z m 353 1061 l 353 1147 l 726 1147 l 726 1061 l 353 1061 z "},"ō":{"ha":772,"x_min":58,"x_max":714,"o":"m 714 368 l 714 368 q 629 81 714 175 q 383 -14 545 -14 l 383 -14 q 140 84 222 -14 q 58 368 58 182 l 58 368 q 141 652 58 557 q 387 747 223 747 l 387 747 q 635 655 555 747 q 714 368 714 562 z m 586 368 l 586 368 q 541 588 586 519 q 389 657 496 657 l 389 657 q 234 587 282 657 q 186 368 186 517 l 186 368 q 234 150 186 222 q 382 77 281 77 l 382 77 q 539 147 492 77 q 586 368 586 218 z m 200 838 l 200 924 l 572 924 l 572 838 l 200 838 z "},"Ŏ":{"ha":1080,"x_min":66,"x_max":1014,"o":"m 1014 482 l 1014 482 q 956 218 1014 329 q 791 46 898 106 q 539 -14 685 -14 l 539 -14 q 287 46 393 -14 q 123 217 180 106 q 66 482 66 328 l 66 482 q 122 744 66 635 q 285 911 179 853 q 541 970 391 970 l 541 970 q 793 912 687 970 q 957 746 899 854 q 1014 482 1014 637 z m 882 482 l 882 482 q 792 762 882 661 q 541 864 703 864 l 541 864 q 287 764 376 864 q 197 482 197 663 l 197 482 q 238 275 197 363 q 355 139 279 187 q 539 92 432 92 l 539 92 q 793 194 705 92 q 882 482 882 296 z m 539 1038 l 539 1038 q 388 1084 449 1038 q 314 1206 326 1131 l 314 1206 l 393 1206 q 442 1150 405 1171 q 541 1130 479 1130 l 541 1130 q 638 1151 602 1130 q 686 1206 675 1171 l 686 1206 l 766 1206 q 690 1083 751 1129 q 539 1038 629 1038 z "},"ŏ":{"ha":772,"x_min":58,"x_max":714,"o":"m 714 368 l 714 368 q 629 81 714 175 q 383 -14 545 -14 l 383 -14 q 140 84 222 -14 q 58 368 58 182 l 58 368 q 141 652 58 557 q 387 747 223 747 l 387 747 q 635 655 555 747 q 714 368 714 562 z m 586 368 l 586 368 q 541 588 586 519 q 389 657 496 657 l 389 657 q 234 587 282 657 q 186 368 186 517 l 186 368 q 234 150 186 222 q 382 77 281 77 l 382 77 q 539 147 492 77 q 586 368 586 218 z m 386 814 l 386 814 q 235 872 296 814 q 161 1024 173 930 l 161 1024 l 240 1024 q 287 946 250 972 q 387 920 323 920 l 387 920 q 487 946 450 920 q 533 1024 524 972 l 533 1024 l 612 1024 q 537 871 598 928 q 386 814 477 814 z "},"Ŗ":{"ha":1003,"x_min":114,"x_max":939,"o":"m 541 397 l 243 397 l 243 0 l 114 0 l 114 956 l 564 956 q 813 883 725 956 q 901 682 901 811 l 901 682 q 839 503 901 576 q 667 412 777 431 l 667 412 l 939 0 l 789 0 l 541 397 z m 770 681 l 770 681 q 714 808 770 764 q 551 852 657 852 l 551 852 l 243 852 l 243 499 l 556 499 q 714 547 659 499 q 770 681 770 595 z m 573 -66 l 573 -131 q 558 -226 573 -190 q 516 -294 543 -262 l 516 -294 l 437 -294 q 484 -233 467 -262 q 500 -172 500 -203 l 500 -172 l 441 -172 l 441 -66 l 573 -66 z "},"ŗ":{"ha":463,"x_min":87,"x_max":439,"o":"m 218 382 l 218 382 l 218 0 l 96 0 l 96 563 q 95 644 96 602 q 92 734 94 687 l 92 734 l 208 734 q 210 677 209 703 q 212 634 211 652 q 213 603 212 615 q 213 584 213 590 l 213 584 l 216 584 q 260 687 236 650 l 260 687 q 315 734 284 721 q 390 747 345 747 l 390 747 q 439 741 415 747 l 439 741 l 439 629 q 374 635 416 635 l 374 635 q 258 570 298 635 q 218 382 218 505 z m 224 -66 l 224 -131 q 209 -226 224 -190 q 167 -294 194 -262 l 167 -294 l 87 -294 q 135 -233 118 -262 q 151 -172 151 -203 l 151 -172 l 92 -172 l 92 -66 l 224 -66 z "},"Ŝ":{"ha":926,"x_min":63,"x_max":863,"o":"m 863 264 l 863 264 q 759 59 863 132 q 468 -14 656 -14 l 468 -14 q 63 229 119 -14 l 63 229 l 189 254 q 281 128 210 168 q 473 87 351 87 l 473 87 q 666 131 598 87 q 734 257 734 174 l 734 257 q 713 333 734 304 q 653 381 692 362 l 653 381 q 561 413 614 400 q 442 441 507 426 l 442 441 q 316 474 367 458 q 233 508 266 490 q 178 547 201 526 l 178 547 q 126 619 144 578 q 108 714 108 661 l 108 714 q 202 903 108 837 q 471 970 296 970 l 471 970 q 720 920 633 970 q 840 750 806 870 l 840 750 l 713 728 q 633 838 692 804 q 469 872 574 872 l 469 872 q 294 834 355 872 q 234 721 234 796 l 234 721 q 257 648 234 677 q 325 600 281 619 l 325 600 q 500 550 366 580 l 500 550 q 609 523 555 537 q 710 488 663 509 l 710 488 q 763 460 738 477 q 808 422 789 444 l 808 422 q 848 355 833 393 q 863 264 863 316 z m 321 1038 l 251 1038 l 251 1051 l 410 1214 l 548 1214 l 700 1051 l 700 1038 l 629 1038 l 480 1132 l 479 1132 l 321 1038 z "},"ŝ":{"ha":694,"x_min":39,"x_max":644,"o":"m 644 203 l 644 203 q 566 43 644 99 q 347 -14 488 -14 l 347 -14 q 135 32 210 -14 q 39 172 61 77 l 39 172 l 146 193 q 211 107 162 134 q 347 79 260 79 l 347 79 q 483 108 439 79 q 526 193 526 136 l 526 193 q 496 264 526 237 q 399 309 466 291 l 399 309 q 274 343 321 330 q 203 367 228 357 q 163 385 178 376 l 163 385 q 93 448 118 411 q 68 540 68 486 l 68 540 q 139 693 68 640 q 348 745 211 745 l 348 745 q 541 703 469 745 q 631 566 612 660 l 631 566 l 522 552 q 467 627 511 601 q 348 653 422 653 l 348 653 q 226 628 265 653 q 186 552 186 603 l 186 552 q 209 491 186 515 q 294 451 231 467 l 294 451 q 456 407 379 431 q 566 359 532 382 l 566 359 q 624 293 604 331 q 644 203 644 256 z m 188 814 l 117 814 l 117 828 l 276 1011 l 414 1011 l 566 828 l 566 814 l 495 814 l 347 929 l 345 929 l 188 814 z "},"Ŧ":{"ha":848,"x_min":31,"x_max":817,"o":"m 679 439 l 488 439 l 488 0 l 359 0 l 359 439 l 170 439 l 170 543 l 359 543 l 359 850 l 31 850 l 31 956 l 817 956 l 817 850 l 488 850 l 488 543 l 679 543 l 679 439 z "},"ŧ":{"ha":386,"x_min":21,"x_max":376,"o":"m 252 -11 l 252 -11 q 142 31 179 -11 q 106 155 106 73 l 106 155 l 106 350 l 21 350 l 21 439 l 106 439 l 106 645 l 21 645 l 21 734 l 111 734 l 146 898 l 228 898 l 228 734 l 363 734 l 363 645 l 228 645 l 228 439 l 363 439 l 363 350 l 228 350 l 228 182 q 245 107 228 129 q 305 86 262 86 l 305 86 q 376 96 328 86 l 376 96 l 376 5 q 252 -11 316 -11 z "},"Ũ":{"ha":1003,"x_min":107,"x_max":896,"o":"m 496 -14 l 496 -14 q 291 30 378 -14 q 155 154 203 73 q 107 347 107 235 l 107 347 l 107 956 l 237 956 l 237 358 q 303 159 237 227 q 495 92 370 92 l 495 92 q 695 162 624 92 q 767 367 767 232 l 767 367 l 767 956 l 896 956 l 896 359 q 847 160 896 243 q 708 32 798 77 q 496 -14 618 -14 z m 608 1038 l 608 1038 q 555 1049 582 1038 q 503 1075 529 1061 l 503 1075 q 449 1104 475 1090 q 400 1118 423 1118 l 400 1118 q 345 1097 363 1118 q 320 1038 326 1076 l 320 1038 l 258 1038 q 306 1181 269 1143 q 396 1219 342 1219 l 396 1219 q 454 1206 425 1219 q 511 1176 484 1192 l 511 1176 q 560 1150 536 1162 q 603 1139 583 1139 l 603 1139 q 657 1159 637 1139 q 682 1219 677 1179 l 682 1219 l 745 1219 q 699 1078 733 1119 q 608 1038 665 1038 z "},"ũ":{"ha":772,"x_min":90,"x_max":680,"o":"m 559 125 l 557 125 q 460 18 515 50 q 323 -14 405 -14 l 323 -14 q 146 46 202 -14 q 90 245 90 106 l 90 245 l 90 734 l 213 734 l 213 269 q 247 120 213 159 q 364 81 281 81 l 364 81 q 503 141 452 81 q 554 309 554 201 l 554 309 l 554 734 l 676 734 l 676 157 q 677 54 676 93 q 680 0 678 14 l 680 0 l 565 0 q 563 32 564 3 q 559 125 561 60 l 559 125 z m 500 814 l 500 814 q 446 827 473 814 q 392 854 418 840 l 392 854 q 340 883 365 870 q 293 895 315 895 l 293 895 q 237 874 256 895 q 213 814 219 853 l 213 814 l 151 814 q 198 957 163 918 q 289 996 233 996 l 289 996 q 348 982 319 996 q 406 952 378 968 l 406 952 q 453 927 431 938 q 496 916 476 916 l 496 916 q 550 936 530 916 q 575 996 570 956 l 575 996 l 637 996 q 592 855 626 896 q 500 814 558 814 z "},"Ū":{"ha":1003,"x_min":107,"x_max":896,"o":"m 496 -14 l 496 -14 q 291 30 378 -14 q 155 154 203 73 q 107 347 107 235 l 107 347 l 107 956 l 237 956 l 237 358 q 303 159 237 227 q 495 92 370 92 l 495 92 q 695 162 624 92 q 767 367 767 232 l 767 367 l 767 956 l 896 956 l 896 359 q 847 160 896 243 q 708 32 798 77 q 496 -14 618 -14 z m 316 1061 l 316 1147 l 688 1147 l 688 1061 l 316 1061 z "},"ū":{"ha":772,"x_min":90,"x_max":680,"o":"m 559 125 l 557 125 q 460 18 515 50 q 323 -14 405 -14 l 323 -14 q 146 46 202 -14 q 90 245 90 106 l 90 245 l 90 734 l 213 734 l 213 269 q 247 120 213 159 q 364 81 281 81 l 364 81 q 503 141 452 81 q 554 309 554 201 l 554 309 l 554 734 l 676 734 l 676 157 q 677 54 676 93 q 680 0 678 14 l 680 0 l 565 0 q 563 32 564 3 q 559 125 561 60 l 559 125 z m 197 838 l 197 924 l 570 924 l 570 838 l 197 838 z "},"Ŭ":{"ha":1003,"x_min":107,"x_max":896,"o":"m 496 -14 l 496 -14 q 291 30 378 -14 q 155 154 203 73 q 107 347 107 235 l 107 347 l 107 956 l 237 956 l 237 358 q 303 159 237 227 q 495 92 370 92 l 495 92 q 695 162 624 92 q 767 367 767 232 l 767 367 l 767 956 l 896 956 l 896 359 q 847 160 896 243 q 708 32 798 77 q 496 -14 618 -14 z m 500 1038 l 500 1038 q 349 1084 410 1038 q 275 1206 288 1131 l 275 1206 l 355 1206 q 403 1150 366 1171 q 502 1130 440 1130 l 502 1130 q 600 1151 564 1130 q 648 1206 636 1171 l 648 1206 l 727 1206 q 652 1083 713 1129 q 500 1038 591 1038 z "},"ŭ":{"ha":772,"x_min":90,"x_max":680,"o":"m 559 125 l 557 125 q 460 18 515 50 q 323 -14 405 -14 l 323 -14 q 146 46 202 -14 q 90 245 90 106 l 90 245 l 90 734 l 213 734 l 213 269 q 247 120 213 159 q 364 81 281 81 l 364 81 q 503 141 452 81 q 554 309 554 201 l 554 309 l 554 734 l 676 734 l 676 157 q 677 54 676 93 q 680 0 678 14 l 680 0 l 565 0 q 563 32 564 3 q 559 125 561 60 l 559 125 z m 382 814 l 382 814 q 231 872 293 814 q 157 1024 170 930 l 157 1024 l 237 1024 q 283 946 246 972 q 384 920 320 920 l 384 920 q 484 946 447 920 q 530 1024 520 972 l 530 1024 l 609 1024 q 534 871 595 928 q 382 814 473 814 z "}}}
